Amita-Bold.ufo
<glyph name="ampersand" format="1">
  <advance width="463"/>
  <unicode hex="0026"/>
  <outline>
    <contour>
      <point x="149" y="511"/>
      <point x="81" y="469"/>
      <point x="81" y="394" type="curve" smooth="yes"/>
      <point x="81" y="365"/>
      <point x="87" y="332"/>
      <point x="114" y="282" type="curve"/>
      <point x="249" y="66" type="line" smooth="yes"/>
      <point x="286" y="11"/>
      <point x="312" y="-9"/>
      <point x="355" y="-9" type="curve"/>
      <point x="400" y="-9"/>
      <point x="447" y="21"/>
      <point x="480" y="77" type="curve"/>
      <point x="463" y="90" type="line"/>
      <point x="444" y="63"/>
      <point x="417" y="50"/>
      <point x="394" y="50" type="curve"/>
      <point x="370" y="50"/>
      <point x="354" y="63"/>
      <point x="338" y="87" type="curve" smooth="yes"/>
      <point x="179" y="338" type="line"/>
      <point x="163" y="369"/>
      <point x="158" y="396"/>
      <point x="158" y="416" type="curve" smooth="yes"/>
      <point x="158" y="450"/>
      <point x="176" y="478"/>
      <point x="214" y="478" type="curve"/>
      <point x="252" y="478"/>
      <point x="274" y="443"/>
      <point x="274" y="398" type="curve" smooth="yes"/>
      <point x="274" y="374"/>
      <point x="269" y="333"/>
      <point x="231" y="314" type="curve"/>
      <point x="238" y="296" type="line"/>
      <point x="316" y="311"/>
      <point x="354" y="361"/>
      <point x="354" y="405" type="curve" smooth="yes"/>
      <point x="354" y="456"/>
      <point x="304" y="511"/>
      <point x="214" y="511" type="curve"/>
    </contour>
    <contour>
      <point x="74" y="263"/>
      <point x="14" y="205"/>
      <point x="14" y="127" type="curve" smooth="yes"/>
      <point x="14" y="35"/>
      <point x="87" y="-15"/>
      <point x="173" y="-15" type="curve" smooth="yes"/>
      <point x="302" y="-15"/>
      <point x="400" y="77"/>
      <point x="400" y="250" type="curve"/>
      <point x="320" y="228" type="line"/>
      <point x="320" y="123"/>
      <point x="299" y="23"/>
      <point x="195" y="23" type="curve" smooth="yes"/>
      <point x="162" y="23"/>
      <point x="99" y="47"/>
      <point x="99" y="143" type="curve" smooth="yes"/>
      <point x="99" y="208"/>
      <point x="138" y="242"/>
      <point x="182" y="262" type="curve"/>
      <point x="181" y="290" type="line"/>
    </contour>
  </outline>
</glyph>
<glyph name="quotesingle" format="1">
  <advance width="179"/>
  <unicode hex="0027"/>
  <outline>
    <contour>
      <point x="134" y="519" type="line"/>
      <point x="110" y="339" type="line"/>
      <point x="71" y="324" type="line"/>
      <point x="45" y="485" type="line"/>
    </contour>
  </outline>
</glyph>
<glyph name="parenleft" format="1">
  <advance width="239"/>
  <unicode hex="0028"/>
  <outline>
    <contour>
      <point x="224" y="-110" type="line"/>
      <point x="104" y="-46"/>
      <point x="17" y="90"/>
      <point x="17" y="221" type="curve" smooth="yes"/>
      <point x="17" y="352"/>
      <point x="104" y="490"/>
      <point x="223" y="553" type="curve"/>
      <point x="238" y="534" type="line"/>
      <point x="158" y="461"/>
      <point x="114" y="332"/>
      <point x="114" y="221" type="curve" smooth="yes"/>
      <point x="114" y="112"/>
      <point x="157" y="-17"/>
      <point x="238" y="-88" type="curve"/>
    </contour>
  </outline>
</glyph>
<glyph name="parenright" format="1">
  <advance width="239"/>
  <unicode hex="0029"/>
  <outline>
    <contour>
      <point x="1" y="531" type="line"/>
      <point x="83" y="460"/>
      <point x="126" y="331"/>
      <point x="126" y="222" type="curve" smooth="yes"/>
      <point x="126" y="112"/>
      <point x="83" y="-18"/>
      <point x="1" y="-91" type="curve"/>
      <point x="16" y="-110" type="line"/>
      <point x="135" y="-46"/>
      <point x="223" y="91"/>
      <point x="223" y="222" type="curve" smooth="yes"/>
      <point x="223" y="354"/>
      <point x="135" y="489"/>
      <point x="16" y="553" type="curve"/>
    </contour>
  </outline>
</glyph>
<glyph name="asterisk" format="1">
  <advance width="289"/>
  <unicode hex="002A"/>
  <outline>
    <contour>
      <point x="110" y="276" type="line"/>
      <point x="123" y="353" type="line"/>
      <point x="73" y="302" type="line"/>
      <point x="35" y="347" type="line"/>
      <point x="110" y="394" type="line"/>
      <point x="35" y="441" type="line"/>
      <point x="73" y="487" type="line"/>
      <point x="125" y="428" type="line"/>
      <point x="110" y="516" type="line"/>
      <point x="174" y="516" type="line"/>
      <point x="159" y="423" type="line"/>
      <point x="216" y="487" type="line"/>
      <point x="254" y="441" type="line"/>
      <point x="179" y="394" type="line"/>
      <point x="254" y="347" type="line"/>
      <point x="216" y="302" type="line"/>
      <point x="158" y="361" type="line"/>
      <point x="174" y="276" type="line"/>
    </contour>
  </outline>
</glyph>
<glyph name="period" format="1">
  <advance width="159"/>
  <unicode hex="002E"/>
  <outline>
    <contour>
      <point x="129" y="65"/>
      <point x="106" y="88"/>
      <point x="79" y="88" type="curve" smooth="yes"/>
      <point x="53" y="88"/>
      <point x="30" y="65"/>
      <point x="30" y="39" type="curve" smooth="yes"/>
      <point x="30" y="12"/>
      <point x="53" y="-10"/>
      <point x="79" y="-10" type="curve" smooth="yes"/>
      <point x="106" y="-10"/>
      <point x="129" y="12"/>
      <point x="129" y="39" type="curve" smooth="yes"/>
    </contour>
  </outline>
</glyph>
<glyph name="one" format="1">
  <advance width="237"/>
  <unicode hex="0031"/>
  <outline>
    <contour>
      <point x="179" y="13" type="line"/>
      <point x="89" y="-17" type="line"/>
      <point x="89" y="435" type="line"/>
      <point x="20" y="398" type="line"/>
      <point x="5" y="428" type="line"/>
      <point x="179" y="521" type="line"/>
    </contour>
  </outline>
</glyph>
<glyph name="two" format="1">
  <advance width="419"/>
  <unicode hex="0032"/>
  <outline>
    <contour>
      <point x="123" y="521"/>
      <point x="49" y="466"/>
      <point x="12" y="411" type="curve"/>
      <point x="32" y="393" type="line"/>
      <point x="64" y="432"/>
      <point x="111" y="460"/>
      <point x="159" y="460" type="curve" smooth="yes"/>
      <point x="224" y="460"/>
      <point x="266" y="414"/>
      <point x="266" y="348" type="curve" smooth="yes"/>
      <point x="266" y="219"/>
      <point x="106" y="96"/>
      <point x="14" y="12" type="curve"/>
      <point x="33" y="-7" type="line"/>
      <point x="53" y="8"/>
      <point x="81" y="17"/>
      <point x="117" y="17" type="curve" smooth="yes"/>
      <point x="195" y="17"/>
      <point x="258" y="0"/>
      <point x="342" y="-7" type="curve"/>
      <point x="404" y="116" type="line"/>
      <point x="387" y="128" type="line"/>
      <point x="369" y="102"/>
      <point x="346" y="80"/>
      <point x="309" y="80" type="curve" smooth="yes"/>
      <point x="267" y="80"/>
      <point x="241" y="93"/>
      <point x="202" y="93" type="curve" smooth="yes"/>
      <point x="182" y="93"/>
      <point x="164" y="89"/>
      <point x="147" y="82" type="curve"/>
      <point x="143" y="86" type="line"/>
      <point x="233" y="148"/>
      <point x="365" y="231"/>
      <point x="365" y="366" type="curve" smooth="yes"/>
      <point x="365" y="463"/>
      <point x="296" y="521"/>
      <point x="195" y="521" type="curve" smooth="yes"/>
    </contour>
  </outline>
</glyph>
<glyph name="three" format="1">
  <advance width="386"/>
  <unicode hex="0033"/>
  <outline>
    <contour>
      <point x="160" y="283" type="line"/>
      <point x="175" y="287"/>
      <point x="195" y="289"/>
      <point x="211" y="289" type="curve" smooth="yes"/>
      <point x="294" y="289"/>
      <point x="363" y="236"/>
      <point x="363" y="154" type="curve" smooth="yes"/>
      <point x="363" y="5"/>
      <point x="158" y="-51"/>
      <point x="30" y="-51" type="curve"/>
      <point x="26" y="-28" type="line"/>
      <point x="119" y="-17"/>
      <point x="260" y="43"/>
      <point x="260" y="152" type="curve" smooth="yes"/>
      <point x="260" y="214"/>
      <point x="211" y="254"/>
      <point x="149" y="254" type="curve" smooth="yes"/>
      <point x="119" y="254"/>
      <point x="91" y="246"/>
      <point x="54" y="229" type="curve"/>
      <point x="44" y="254" type="line"/>
      <point x="105" y="283"/>
      <point x="201" y="338"/>
      <point x="201" y="416" type="curve" smooth="yes"/>
      <point x="201" y="453"/>
      <point x="179" y="467"/>
      <point x="150" y="467" type="curve" smooth="yes"/>
      <point x="112" y="467"/>
      <point x="60" y="437"/>
      <point x="33" y="406" type="curve"/>
      <point x="14" y="424" type="line"/>
      <point x="68" y="492"/>
      <point x="146" y="526"/>
      <point x="209" y="526" type="curve" smooth="yes"/>
      <point x="265" y="526"/>
      <point x="309" y="498"/>
      <point x="309" y="443" type="curve" smooth="yes"/>
      <point x="309" y="373"/>
      <point x="219" y="316"/>
      <point x="159" y="287" type="curve"/>
    </contour>
  </outline>
</glyph>
<glyph name="five" format="1">
  <advance width="376"/>
  <unicode hex="0035"/>
  <outline>
    <contour>
      <point x="350" y="14"/>
      <point x="155" y="-58"/>
      <point x="26" y="-62" type="curve"/>
      <point x="19" y="-38" type="line"/>
      <point x="126" y="-14"/>
      <point x="250" y="43"/>
      <point x="250" y="164" type="curve" smooth="yes"/>
      <point x="250" y="237"/>
      <point x="187" y="271"/>
      <point x="118" y="271" type="curve" smooth="yes"/>
      <point x="85" y="271"/>
      <point x="49" y="261"/>
      <point x="17" y="244" type="curve"/>
      <point x="84" y="516" type="line"/>
      <point x="350" y="516" type="line"/>
      <point x="323" y="429" type="line"/>
      <point x="111" y="429" type="line"/>
      <point x="77" y="295" type="line"/>
      <point x="106" y="306"/>
      <point x="132" y="314"/>
      <point x="173" y="314" type="curve" smooth="yes"/>
      <point x="265" y="314"/>
      <point x="350" y="266"/>
      <point x="350" y="156" type="curve" smooth="yes"/>
    </contour>
  </outline>
</glyph>
<glyph name="six" format="1">
  <advance width="461"/>
  <unicode hex="0036"/>
  <outline>
    <contour>
      <point x="128" y="229"/>
      <point x="125" y="204"/>
      <point x="125" y="181" type="curve" smooth="yes"/>
      <point x="125" y="99"/>
      <point x="158" y="23"/>
      <point x="244" y="23" type="curve" smooth="yes"/>
      <point x="314" y="23"/>
      <point x="345" y="79"/>
      <point x="345" y="147" type="curve" smooth="yes"/>
      <point x="345" y="218"/>
      <point x="312" y="294"/>
      <point x="226" y="294" type="curve" smooth="yes"/>
      <point x="190" y="294"/>
      <point x="157" y="280"/>
      <point x="133" y="252" type="curve"/>
    </contour>
    <contour>
      <point x="442" y="71"/>
      <point x="349" y="-18"/>
      <point x="231" y="-18" type="curve" smooth="yes"/>
      <point x="107" y="-18"/>
      <point x="26" y="75"/>
      <point x="26" y="192" type="curve" smooth="yes"/>
      <point x="26" y="372"/>
      <point x="214" y="497"/>
      <point x="375" y="520" type="curve"/>
      <point x="382" y="493" type="line"/>
      <point x="284" y="470"/>
      <point x="181" y="394"/>
      <point x="147" y="300" type="curve"/>
      <point x="185" y="324"/>
      <point x="231" y="337"/>
      <point x="282" y="337" type="curve" smooth="yes"/>
      <point x="387" y="337"/>
      <point x="442" y="258"/>
      <point x="442" y="172" type="curve" smooth="yes"/>
    </contour>
  </outline>
</glyph>
<glyph name="seven" format="1">
  <advance width="364"/>
  <unicode hex="0037"/>
  <outline>
    <contour>
      <point x="353" y="516"/>
      <point x="331" y="512"/>
      <point x="300" y="512" type="curve" smooth="yes"/>
      <point x="71" y="512" type="line"/>
      <point x="4" y="391" type="line"/>
      <point x="25" y="375" type="line"/>
      <point x="61" y="418"/>
      <point x="81" y="428"/>
      <point x="157" y="428" type="curve" smooth="yes"/>
      <point x="274" y="428" type="line"/>
      <point x="174" y="316"/>
      <point x="81" y="146"/>
      <point x="81" y="-17" type="curve"/>
      <point x="199" y="27" type="line"/>
      <point x="196" y="34"/>
      <point x="195" y="50"/>
      <point x="195" y="73" type="curve" smooth="yes"/>
      <point x="195" y="226"/>
      <point x="282" y="395"/>
      <point x="390" y="511" type="curve"/>
      <point x="371" y="531" type="line"/>
    </contour>
  </outline>
</glyph>
<glyph name="nine" format="1">
  <advance width="461"/>
  <unicode hex="0039"/>
  <outline>
    <contour>
      <point x="333" y="273"/>
      <point x="336" y="298"/>
      <point x="336" y="322" type="curve" smooth="yes"/>
      <point x="336" y="403"/>
      <point x="303" y="479"/>
      <point x="217" y="479" type="curve" smooth="yes"/>
      <point x="148" y="479"/>
      <point x="116" y="423"/>
      <point x="116" y="356" type="curve" smooth="yes"/>
      <point x="116" y="284"/>
      <point x="150" y="208"/>
      <point x="235" y="208" type="curve" smooth="yes"/>
      <point x="271" y="208"/>
      <point x="305" y="223"/>
      <point x="328" y="250" type="curve"/>
    </contour>
    <contour>
      <point x="19" y="432"/>
      <point x="112" y="520"/>
      <point x="230" y="520" type="curve" smooth="yes"/>
      <point x="355" y="520"/>
      <point x="435" y="428"/>
      <point x="435" y="311" type="curve" smooth="yes"/>
      <point x="435" y="131"/>
      <point x="246" y="6"/>
      <point x="86" y="-18" type="curve"/>
      <point x="79" y="9" type="line"/>
      <point x="177" y="33"/>
      <point x="280" y="109"/>
      <point x="314" y="203" type="curve"/>
      <point x="276" y="178"/>
      <point x="230" y="165"/>
      <point x="179" y="165" type="curve" smooth="yes"/>
      <point x="73" y="165"/>
      <point x="19" y="245"/>
      <point x="19" y="330" type="curve" smooth="yes"/>
    </contour>
  </outline>
</glyph>
<glyph name="semicolon" format="1">
  <advance width="160"/>
  <unicode hex="003B"/>
  <outline>
    <contour>
      <point x="53" y="88"/>
      <point x="31" y="65"/>
      <point x="31" y="39" type="curve" smooth="yes"/>
      <point x="31" y="16"/>
      <point x="46" y="-3"/>
      <point x="69" y="-9" type="curve"/>
      <point x="66" y="-23"/>
      <point x="56" y="-40"/>
      <point x="45" y="-49" type="curve"/>
      <point x="61" y="-62" type="line"/>
      <point x="97" y="-41"/>
      <point x="129" y="-5"/>
      <point x="129" y="39" type="curve" smooth="yes"/>
      <point x="129" y="65"/>
      <point x="107" y="88"/>
      <point x="80" y="88" type="curve" smooth="yes"/>
    </contour>
    <contour>
      <point x="53" y="291"/>
      <point x="31" y="268"/>
      <point x="31" y="241" type="curve" smooth="yes"/>
      <point x="31" y="214"/>
      <point x="53" y="192"/>
      <point x="80" y="192" type="curve" smooth="yes"/>
      <point x="107" y="192"/>
      <point x="129" y="214"/>
      <point x="129" y="241" type="curve" smooth="yes"/>
      <point x="129" y="268"/>
      <point x="107" y="291"/>
      <point x="80" y="291" type="curve" smooth="yes"/>
    </contour>
  </outline>
</glyph>
<glyph name="question" format="1">
  <advance width="372"/>
  <unicode hex="003F"/>
  <outline>
    <contour>
      <point x="347" y="262"/>
      <point x="181" y="218"/>
      <point x="181" y="134" type="curve"/>
      <point x="133" y="124" type="line"/>
      <point x="133" y="241"/>
      <point x="254" y="268"/>
      <point x="254" y="378" type="curve" smooth="yes"/>
      <point x="254" y="442"/>
      <point x="218" y="487"/>
      <point x="167" y="487" type="curve" smooth="yes"/>
      <point x="130" y="487"/>
      <point x="97" y="457"/>
      <point x="97" y="415" type="curve" smooth="yes"/>
      <point x="97" y="388"/>
      <point x="110" y="363"/>
      <point x="129" y="346" type="curve"/>
      <point x="69" y="299" type="line"/>
      <point x="39" y="321"/>
      <point x="26" y="355"/>
      <point x="26" y="387" type="curve" smooth="yes"/>
      <point x="26" y="459"/>
      <point x="95" y="523"/>
      <point x="189" y="523" type="curve" smooth="yes"/>
      <point x="280" y="523"/>
      <point x="347" y="467"/>
      <point x="347" y="381" type="curve" smooth="yes"/>
    </contour>
    <contour>
      <point x="206" y="12"/>
      <point x="184" y="-10"/>
      <point x="157" y="-10" type="curve" smooth="yes"/>
      <point x="130" y="-10"/>
      <point x="108" y="12"/>
      <point x="108" y="39" type="curve" smooth="yes"/>
      <point x="108" y="65"/>
      <point x="130" y="88"/>
      <point x="157" y="88" type="curve" smooth="yes"/>
      <point x="184" y="88"/>
      <point x="206" y="65"/>
      <point x="206" y="39" type="curve" smooth="yes"/>
    </contour>
  </outline>
</glyph>
<glyph name="at" format="1">
  <advance width="449"/>
  <unicode hex="0040"/>
  <outline>
    <contour>
      <point x="99" y="325"/>
      <point x="22" y="215"/>
      <point x="22" y="114" type="curve" smooth="yes"/>
      <point x="22" y="19"/>
      <point x="90" y="-52"/>
      <point x="189" y="-52" type="curve" smooth="yes"/>
      <point x="219" y="-52"/>
      <point x="256" y="-45"/>
      <point x="287" y="-30" type="curve"/>
      <point x="279" y="-13" type="line"/>
      <point x="258" y="-21"/>
      <point x="237" y="-26"/>
      <point x="216" y="-26" type="curve" smooth="yes"/>
      <point x="132" y="-26"/>
      <point x="92" y="46"/>
      <point x="92" y="122" type="curve" smooth="yes"/>
      <point x="92" y="211"/>
      <point x="147" y="306"/>
      <point x="255" y="306" type="curve" smooth="yes"/>
      <point x="351" y="306"/>
      <point x="406" y="242"/>
      <point x="406" y="164" type="curve" smooth="yes"/>
      <point x="406" y="111"/>
      <point x="381" y="64"/>
      <point x="362" y="64" type="curve" smooth="yes"/>
      <point x="356" y="64"/>
      <point x="352" y="69"/>
      <point x="352" y="78" type="curve" smooth="yes"/>
      <point x="352" y="191" type="line"/>
      <point x="283" y="170" type="line"/>
      <point x="283" y="151" type="line" smooth="yes"/>
      <point x="283" y="120"/>
      <point x="278" y="61"/>
      <point x="245" y="61" type="curve" smooth="yes"/>
      <point x="218" y="61"/>
      <point x="211" y="99"/>
      <point x="211" y="137" type="curve" smooth="yes"/>
      <point x="211" y="183"/>
      <point x="230" y="222"/>
      <point x="260" y="222" type="curve" smooth="yes"/>
      <point x="273" y="222"/>
      <point x="286" y="213"/>
      <point x="294" y="194" type="curve"/>
      <point x="352" y="213" type="line"/>
      <point x="337" y="241"/>
      <point x="304" y="251"/>
      <point x="273" y="251" type="curve" smooth="yes"/>
      <point x="192" y="251"/>
      <point x="146" y="188"/>
      <point x="146" y="117" type="curve" smooth="yes"/>
      <point x="146" y="67"/>
      <point x="172" y="27"/>
      <point x="218" y="27" type="curve" smooth="yes"/>
      <point x="251" y="27"/>
      <point x="273" y="50"/>
      <point x="283" y="78" type="curve"/>
      <point x="286" y="78" type="line"/>
      <point x="287" y="50"/>
      <point x="297" y="28"/>
      <point x="334" y="28" type="curve" smooth="yes"/>
      <point x="389" y="28"/>
      <point x="428" y="98"/>
      <point x="428" y="168" type="curve" smooth="yes"/>
      <point x="428" y="255"/>
      <point x="359" y="325"/>
      <point x="254" y="325" type="curve" smooth="yes"/>
    </contour>
  </outline>
</glyph>
<glyph name="B" format="1">
  <advance width="471"/>
  <unicode hex="0042"/>
  <outline>
    <contour>
      <point x="236" y="279" type="line"/>
      <point x="297" y="314"/>
      <point x="389" y="384"/>
      <point x="389" y="452" type="curve" smooth="yes"/>
      <point x="389" y="500"/>
      <point x="347" y="523"/>
      <point x="301" y="523" type="curve" smooth="yes"/>
      <point x="152" y="523"/>
      <point x="49" y="405"/>
      <point x="49" y="257" type="curve" smooth="yes"/>
      <point x="49" y="-10" type="line"/>
      <point x="140" y="20" type="line"/>
      <point x="140" y="297" type="line" smooth="yes"/>
      <point x="140" y="361"/>
      <point x="160" y="484"/>
      <point x="238" y="484" type="curve" smooth="yes"/>
      <point x="270" y="484"/>
      <point x="291" y="459"/>
      <point x="291" y="424" type="curve" smooth="yes"/>
      <point x="291" y="345"/>
      <point x="201" y="284"/>
      <point x="135" y="255" type="curve"/>
      <point x="141" y="236" type="line"/>
      <point x="175" y="248"/>
      <point x="206" y="255"/>
      <point x="239" y="255" type="curve" smooth="yes"/>
      <point x="293" y="255"/>
      <point x="352" y="217"/>
      <point x="352" y="158" type="curve" smooth="yes"/>
      <point x="352" y="42"/>
      <point x="212" y="-10"/>
      <point x="115" y="-30" type="curve"/>
      <point x="122" y="-56" type="line"/>
      <point x="243" y="-52"/>
      <point x="452" y="18"/>
      <point x="452" y="164" type="curve" smooth="yes"/>
      <point x="452" y="249"/>
      <point x="377" y="283"/>
      <point x="301" y="283" type="curve" smooth="yes"/>
      <point x="281" y="283"/>
      <point x="258" y="280"/>
      <point x="238" y="276" type="curve"/>
    </contour>
  </outline>
</glyph>
<glyph name="E" format="1">
  <advance width="389"/>
  <unicode hex="0045"/>
  <outline>
    <contour>
      <point x="169" y="525"/>
      <point x="70" y="472"/>
      <point x="70" y="378" type="curve" smooth="yes"/>
      <point x="70" y="335"/>
      <point x="100" y="294"/>
      <point x="145" y="281" type="curve"/>
      <point x="80" y="251"/>
      <point x="14" y="196"/>
      <point x="14" y="123" type="curve" smooth="yes"/>
      <point x="14" y="44"/>
      <point x="70" y="-8"/>
      <point x="163" y="-8" type="curve" smooth="yes"/>
      <point x="262" y="-8"/>
      <point x="346" y="60"/>
      <point x="390" y="137" type="curve"/>
      <point x="367" y="156" type="line"/>
      <point x="339" y="105"/>
      <point x="274" y="52"/>
      <point x="200" y="52" type="curve" smooth="yes"/>
      <point x="146" y="52"/>
      <point x="116" y="94"/>
      <point x="116" y="147" type="curve" smooth="yes"/>
      <point x="116" y="235"/>
      <point x="205" y="286"/>
      <point x="277" y="308" type="curve"/>
      <point x="270" y="332" type="line"/>
      <point x="257" y="326"/>
      <point x="242" y="324"/>
      <point x="229" y="324" type="curve" smooth="yes"/>
      <point x="181" y="324"/>
      <point x="140" y="358"/>
      <point x="140" y="410" type="curve" smooth="yes"/>
      <point x="140" y="457"/>
      <point x="181" y="490"/>
      <point x="222" y="490" type="curve" smooth="yes"/>
      <point x="254" y="490"/>
      <point x="281" y="469"/>
      <point x="301" y="434" type="curve"/>
      <point x="366" y="475" type="line"/>
      <point x="339" y="508"/>
      <point x="300" y="525"/>
      <point x="257" y="525" type="curve" smooth="yes"/>
    </contour>
    <contour>
      <point x="264" y="4" type="move" name="ogonek"/>
    </contour>
    <contour>
      <point x="195" y="0" type="move" name="bottom"/>
    </contour>
    <contour>
      <point x="232" y="538" type="move" name="top"/>
    </contour>
  </outline>
</glyph>
<glyph name="F" format="1">
  <advance width="429"/>
  <unicode hex="0046"/>
  <outline>
    <contour>
      <point x="411" y="516"/>
      <point x="347" y="512"/>
      <point x="314" y="512" type="curve" smooth="yes"/>
      <point x="141" y="512" type="line" smooth="yes"/>
      <point x="73" y="512"/>
      <point x="27" y="466"/>
      <point x="-11" y="414" type="curve"/>
      <point x="5" y="400" type="line"/>
      <point x="29" y="429"/>
      <point x="56" y="444"/>
      <point x="88" y="444" type="curve"/>
      <point x="188" y="443" type="line"/>
      <point x="157" y="416"/>
      <point x="120" y="375"/>
      <point x="120" y="330" type="curve" smooth="yes"/>
      <point x="120" y="20" type="line" smooth="yes"/>
      <point x="120" y="-4"/>
      <point x="117" y="-33"/>
      <point x="102" y="-51" type="curve"/>
      <point x="117" y="-68" type="line"/>
      <point x="178" y="-30"/>
      <point x="210" y="13"/>
      <point x="210" y="85" type="curve"/>
      <point x="210" y="372" type="line" smooth="yes"/>
      <point x="210" y="401"/>
      <point x="219" y="420"/>
      <point x="237" y="443" type="curve"/>
      <point x="297" y="443" type="line" smooth="yes"/>
      <point x="366" y="443"/>
      <point x="422" y="483"/>
      <point x="450" y="527" type="curve"/>
      <point x="439" y="540" type="line"/>
    </contour>
    <contour>
      <point x="337" y="281"/>
      <point x="303" y="270"/>
      <point x="258" y="270" type="curve" smooth="yes"/>
      <point x="90" y="270" type="line"/>
      <point x="53" y="223" type="line"/>
      <point x="240" y="223" type="line" smooth="yes"/>
      <point x="297" y="223"/>
      <point x="343" y="241"/>
      <point x="373" y="285" type="curve"/>
      <point x="360" y="300" type="line"/>
    </contour>
  </outline>
</glyph>
<glyph name="G" format="1">
  <advance width="482"/>
  <unicode hex="0047"/>
  <outline>
    <contour>
      <point x="154" y="529"/>
      <point x="25" y="378"/>
      <point x="25" y="186" type="curve" smooth="yes"/>
      <point x="25" y="72"/>
      <point x="89" y="-7"/>
      <point x="184" y="-7" type="curve" smooth="yes"/>
      <point x="257" y="-7"/>
      <point x="320" y="42"/>
      <point x="345" y="128" type="curve"/>
      <point x="349" y="128" type="line"/>
      <point x="349" y="-79" type="line"/>
      <point x="438" y="-50" type="line"/>
      <point x="438" y="245" type="line"/>
      <point x="346" y="217" type="line"/>
      <point x="346" y="137"/>
      <point x="287" y="58"/>
      <point x="226" y="58" type="curve" smooth="yes"/>
      <point x="160" y="58"/>
      <point x="125" y="129"/>
      <point x="125" y="239" type="curve" smooth="yes"/>
      <point x="125" y="381"/>
      <point x="187" y="486"/>
      <point x="274" y="486" type="curve" smooth="yes"/>
      <point x="305" y="486"/>
      <point x="325" y="466"/>
      <point x="325" y="436" type="curve" smooth="yes"/>
      <point x="325" y="396"/>
      <point x="286" y="354"/>
      <point x="235" y="341" type="curve"/>
      <point x="245" y="321" type="line"/>
      <point x="333" y="326"/>
      <point x="421" y="395"/>
      <point x="421" y="460" type="curve" smooth="yes"/>
      <point x="421" y="501"/>
      <point x="378" y="529"/>
      <point x="317" y="529" type="curve" smooth="yes"/>
    </contour>
    <contour>
      <point x="275" y="538" type="move" name="top"/>
    </contour>
    <contour>
      <point x="239" y="0" type="move" name="bottom"/>
    </contour>
  </outline>
</glyph>
<glyph name="H" format="1">
  <advance width="479"/>
  <unicode hex="0048"/>
  <outline>
    <contour>
      <point x="422" y="16" type="line"/>
      <point x="332" y="-13" type="line"/>
      <point x="332" y="197" type="line"/>
      <point x="156" y="197" type="line"/>
      <point x="156" y="16" type="line"/>
      <point x="66" y="-13" type="line"/>
      <point x="66" y="197" type="line"/>
      <point x="7" y="197" type="line"/>
      <point x="32" y="245" type="line"/>
      <point x="66" y="245" type="line"/>
      <point x="66" y="503" type="line"/>
      <point x="156" y="533" type="line"/>
      <point x="156" y="245" type="line"/>
      <point x="332" y="245" type="line"/>
      <point x="332" y="503" type="line"/>
      <point x="422" y="533" type="line"/>
    </contour>
    <contour>
      <point x="241" y="269" type="move" name="center"/>
    </contour>
    <contour>
      <point x="255" y="538" type="move" name="top"/>
    </contour>
  </outline>
</glyph>
<glyph name="K" format="1">
  <advance width="453"/>
  <unicode hex="004B"/>
  <outline>
    <contour>
      <point x="87" y="169" type="line"/>
      <point x="142" y="164" type="line"/>
      <point x="432" y="512" type="line"/>
      <point x="374" y="517" type="line"/>
    </contour>
    <contour>
      <point x="57" y="503" type="line"/>
      <point x="57" y="-13" type="line"/>
      <point x="148" y="16" type="line"/>
      <point x="148" y="533" type="line"/>
    </contour>
    <contour>
      <point x="137" y="211" type="line"/>
      <point x="229" y="74" type="line" smooth="yes"/>
      <point x="266" y="16"/>
      <point x="287" y="-7"/>
      <point x="333" y="-7" type="curve" smooth="yes"/>
      <point x="378" y="-7"/>
      <point x="425" y="28"/>
      <point x="458" y="84" type="curve"/>
      <point x="441" y="98" type="line"/>
      <point x="422" y="71"/>
      <point x="395" y="52"/>
      <point x="372" y="52" type="curve" smooth="yes"/>
      <point x="352" y="51"/>
      <point x="340" y="62"/>
      <point x="325" y="85" type="curve" smooth="yes"/>
      <point x="205" y="263" type="line"/>
    </contour>
    <contour>
      <point x="225" y="538" type="move" name="top"/>
    </contour>
    <contour>
      <point x="225" y="0" type="move" name="bottom"/>
    </contour>
  </outline>
</glyph>
<glyph name="M" format="1">
  <advance width="653"/>
  <unicode hex="004D"/>
  <outline>
    <contour>
      <point x="59" y="-13" type="line"/>
      <point x="150" y="17" type="line"/>
      <point x="150" y="255" type="line" smooth="yes"/>
      <point x="150" y="358"/>
      <point x="203" y="481"/>
      <point x="248" y="481" type="curve" smooth="yes"/>
      <point x="270" y="481"/>
      <point x="275" y="452"/>
      <point x="275" y="424" type="curve"/>
      <point x="275" y="-13" type="line"/>
      <point x="366" y="17" type="line"/>
      <point x="366" y="255" type="line" smooth="yes"/>
      <point x="366" y="358"/>
      <point x="418" y="481"/>
      <point x="463" y="481" type="curve" smooth="yes"/>
      <point x="487" y="481"/>
      <point x="492" y="452"/>
      <point x="492" y="424" type="curve"/>
      <point x="492" y="92" type="line"/>
      <point x="492" y="25"/>
      <point x="522" y="-5"/>
      <point x="572" y="-5" type="curve" smooth="yes"/>
      <point x="621" y="-5"/>
      <point x="649" y="20"/>
      <point x="666" y="48" type="curve"/>
      <point x="651" y="63" type="line"/>
      <point x="641" y="48"/>
      <point x="625" y="39"/>
      <point x="609" y="39" type="curve" smooth="yes"/>
      <point x="591" y="39"/>
      <point x="582" y="55"/>
      <point x="582" y="74" type="curve"/>
      <point x="582" y="442" type="line"/>
      <point x="582" y="491"/>
      <point x="558" y="530"/>
      <point x="504" y="530" type="curve" smooth="yes"/>
      <point x="450" y="530"/>
      <point x="391" y="483"/>
      <point x="366" y="380" type="curve"/>
      <point x="366" y="443" type="line"/>
      <point x="364" y="492"/>
      <point x="341" y="530"/>
      <point x="288" y="530" type="curve" smooth="yes"/>
      <point x="234" y="530"/>
      <point x="175" y="483"/>
      <point x="150" y="382" type="curve"/>
      <point x="150" y="533" type="line"/>
      <point x="59" y="503" type="line"/>
    </contour>
  </outline>
</glyph>
<glyph name="O" format="1">
  <advance width="531"/>
  <unicode hex="004F"/>
  <outline>
    <contour>
      <point x="110" y="528"/>
      <point x="26" y="396"/>
      <point x="26" y="259" type="curve" smooth="yes"/>
      <point x="26" y="127"/>
      <point x="119" y="-10"/>
      <point x="267" y="-10" type="curve" smooth="yes"/>
      <point x="424" y="-10"/>
      <point x="507" y="122"/>
      <point x="507" y="259" type="curve" smooth="yes"/>
      <point x="507" y="392"/>
      <point x="415" y="528"/>
      <point x="267" y="528" type="curve" smooth="yes"/>
    </contour>
    <contour>
      <point x="368" y="488"/>
      <point x="415" y="327"/>
      <point x="415" y="215" type="curve" smooth="yes"/>
      <point x="415" y="138"/>
      <point x="384" y="34"/>
      <point x="293" y="34" type="curve" smooth="yes"/>
      <point x="164" y="34"/>
      <point x="116" y="193"/>
      <point x="116" y="306" type="curve" smooth="yes"/>
      <point x="116" y="385"/>
      <point x="147" y="488"/>
      <point x="239" y="488" type="curve" smooth="yes"/>
    </contour>
    <contour>
      <point x="267" y="538" type="move" name="top"/>
    </contour>
  </outline>
</glyph>
<glyph name="P" format="1">
  <advance width="454"/>
  <unicode hex="0050"/>
  <outline>
    <contour>
      <point x="176" y="528"/>
      <point x="81" y="477"/>
      <point x="14" y="416" type="curve"/>
      <point x="33" y="395" type="line"/>
      <point x="88" y="444"/>
      <point x="164" y="481"/>
      <point x="234" y="481" type="curve" smooth="yes"/>
      <point x="319" y="481"/>
      <point x="356" y="433"/>
      <point x="356" y="365" type="curve" smooth="yes"/>
      <point x="356" y="260"/>
      <point x="252" y="191"/>
      <point x="158" y="178" type="curve"/>
      <point x="154" y="158" type="line"/>
      <point x="161" y="156"/>
      <point x="165" y="156"/>
      <point x="169" y="156" type="curve" smooth="yes"/>
      <point x="305" y="156"/>
      <point x="448" y="255"/>
      <point x="448" y="379" type="curve" smooth="yes"/>
      <point x="448" y="475"/>
      <point x="382" y="528"/>
      <point x="286" y="528" type="curve"/>
    </contour>
    <contour>
      <point x="63" y="397" type="line"/>
      <point x="63" y="-13" type="line"/>
      <point x="151" y="17" type="line"/>
      <point x="151" y="427" type="line"/>
    </contour>
  </outline>
</glyph>
<glyph name="Q" format="1">
  <advance width="531"/>
  <unicode hex="0051"/>
  <outline>
    <contour>
      <point x="186" y="172"/>
      <point x="158" y="145"/>
      <point x="143" y="122" type="curve"/>
      <point x="157" y="107" type="line"/>
      <point x="165" y="114"/>
      <point x="176" y="120"/>
      <point x="191" y="120" type="curve" smooth="yes"/>
      <point x="222" y="120"/>
      <point x="246" y="95"/>
      <point x="298" y="22" type="curve" smooth="yes"/>
      <point x="351" y="-53"/>
      <point x="379" y="-72"/>
      <point x="430" y="-72" type="curve" smooth="yes"/>
      <point x="471" y="-72"/>
      <point x="499" y="-47"/>
      <point x="514" y="-23" type="curve"/>
      <point x="500" y="-9" type="line"/>
      <point x="493" y="-15"/>
      <point x="482" y="-21"/>
      <point x="465" y="-21" type="curve" smooth="yes"/>
      <point x="435" y="-21"/>
      <point x="411" y="4"/>
      <point x="360" y="76" type="curve" smooth="yes"/>
      <point x="307" y="151"/>
      <point x="278" y="172"/>
      <point x="227" y="172" type="curve" smooth="yes"/>
    </contour>
    <component base="O"/>
  </outline>
</glyph>
<glyph name="R" format="1">
  <advance width="468"/>
  <unicode hex="0052"/>
  <outline>
    <contour>
      <point x="176" y="528"/>
      <point x="81" y="477"/>
      <point x="14" y="416" type="curve"/>
      <point x="33" y="395" type="line"/>
      <point x="88" y="444"/>
      <point x="164" y="481"/>
      <point x="234" y="481" type="curve" smooth="yes"/>
      <point x="319" y="481"/>
      <point x="356" y="433"/>
      <point x="356" y="365" type="curve" smooth="yes"/>
      <point x="356" y="260"/>
      <point x="256" y="191"/>
      <point x="161" y="178" type="curve"/>
      <point x="157" y="158" type="line"/>
      <point x="242" y="47" type="line" smooth="yes"/>
      <point x="275" y="3"/>
      <point x="300" y="-9"/>
      <point x="330" y="-9" type="curve" smooth="yes"/>
      <point x="381" y="-9"/>
      <point x="427" y="38"/>
      <point x="457" y="80" type="curve"/>
      <point x="441" y="93" type="line"/>
      <point x="425" y="76"/>
      <point x="398" y="53"/>
      <point x="372" y="53" type="curve" smooth="yes"/>
      <point x="356" y="53"/>
      <point x="342" y="61"/>
      <point x="332" y="74" type="curve"/>
      <point x="255" y="169" type="line"/>
      <point x="359" y="198"/>
      <point x="448" y="281"/>
      <point x="448" y="379" type="curve" smooth="yes"/>
      <point x="448" y="475"/>
      <point x="382" y="528"/>
      <point x="286" y="528" type="curve" smooth="yes"/>
    </contour>
    <contour>
      <point x="62" y="398" type="line"/>
      <point x="62" y="-13" type="line"/>
      <point x="150" y="17" type="line"/>
      <point x="150" y="427" type="line"/>
    </contour>
    <contour>
      <point x="245" y="538" type="move" name="top"/>
    </contour>
    <contour>
      <point x="234" y="0" type="move" name="bottom"/>
    </contour>
  </outline>
</glyph>
<glyph name="S" format="1">
  <advance width="410"/>
  <unicode hex="0053"/>
  <outline>
    <contour>
      <point x="118" y="529"/>
      <point x="32" y="459"/>
      <point x="32" y="363" type="curve" smooth="yes"/>
      <point x="32" y="191"/>
      <point x="296" y="203"/>
      <point x="296" y="88" type="curve" smooth="yes"/>
      <point x="296" y="55"/>
      <point x="270" y="27"/>
      <point x="230" y="27" type="curve" smooth="yes"/>
      <point x="176" y="27"/>
      <point x="128" y="73"/>
      <point x="103" y="142" type="curve"/>
      <point x="40" y="70" type="line"/>
      <point x="75" y="20"/>
      <point x="142" y="-8"/>
      <point x="207" y="-8" type="curve" smooth="yes"/>
      <point x="301" y="-8"/>
      <point x="371" y="39"/>
      <point x="370" y="127" type="curve" smooth="yes"/>
      <point x="370" y="282"/>
      <point x="112" y="247"/>
      <point x="112" y="396" type="curve" smooth="yes"/>
      <point x="112" y="448"/>
      <point x="147" y="489"/>
      <point x="203" y="489" type="curve" smooth="yes"/>
      <point x="271" y="489"/>
      <point x="317" y="431"/>
      <point x="339" y="365" type="curve"/>
      <point x="404" y="443" type="line"/>
      <point x="363" y="497"/>
      <point x="302" y="529"/>
      <point x="228" y="529" type="curve" smooth="yes"/>
    </contour>
    <contour>
      <point x="225" y="538" type="move" name="top"/>
    </contour>
    <contour>
      <point x="218" y="0" type="move" name="bottom"/>
    </contour>
  </outline>
</glyph>
<glyph name="T" format="1">
  <advance width="363"/>
  <unicode hex="0054"/>
  <outline>
    <contour>
      <point x="350" y="516"/>
      <point x="286" y="512"/>
      <point x="254" y="512" type="curve" smooth="yes"/>
      <point x="146" y="512" type="line" smooth="yes"/>
      <point x="79" y="512"/>
      <point x="32" y="466"/>
      <point x="-5" y="414" type="curve"/>
      <point x="10" y="400" type="line"/>
      <point x="34" y="429"/>
      <point x="60" y="444"/>
      <point x="94" y="444" type="curve"/>
      <point x="191" y="443" type="line"/>
      <point x="159" y="416"/>
      <point x="124" y="375"/>
      <point x="124" y="330" type="curve" smooth="yes"/>
      <point x="124" y="73" type="line" smooth="yes"/>
      <point x="124" y="49"/>
      <point x="120" y="20"/>
      <point x="104" y="3" type="curve"/>
      <point x="120" y="-15" type="line"/>
      <point x="181" y="23"/>
      <point x="214" y="67"/>
      <point x="214" y="137" type="curve"/>
      <point x="214" y="372" type="line" smooth="yes"/>
      <point x="214" y="401"/>
      <point x="222" y="420"/>
      <point x="240" y="443" type="curve"/>
      <point x="299" y="443"/>
      <point x="357" y="481"/>
      <point x="390" y="527" type="curve"/>
      <point x="378" y="540" type="line"/>
    </contour>
    <contour>
      <point x="181" y="269" type="move" name="center"/>
    </contour>
    <contour>
      <point x="171" y="0" type="move" name="bottom"/>
    </contour>
    <contour>
      <point x="194" y="538" type="move" name="top"/>
    </contour>
  </outline>
</glyph>
<glyph name="W" format="1">
  <advance width="576"/>
  <unicode hex="0057"/>
  <outline>
    <contour>
      <point x="435" y="501" type="line"/>
      <point x="478" y="467"/>
      <point x="501" y="427"/>
      <point x="501" y="379" type="curve" smooth="yes"/>
      <point x="501" y="351"/>
      <point x="491" y="317"/>
      <point x="478" y="286" type="curve"/>
      <point x="406" y="114" type="line"/>
      <point x="429" y="114" type="line"/>
      <point x="293" y="492" type="line"/>
      <point x="205" y="460" type="line"/>
      <point x="385" y="-27" type="line"/>
      <point x="536" y="333" type="line"/>
      <point x="552" y="370"/>
      <point x="564" y="410"/>
      <point x="564" y="447" type="curve" smooth="yes"/>
      <point x="564" y="492"/>
      <point x="544" y="537"/>
      <point x="498" y="570" type="curve"/>
    </contour>
    <contour>
      <point x="-6" y="487" type="line"/>
      <point x="184" y="-27" type="line"/>
      <point x="303" y="280" type="line"/>
      <point x="278" y="311" type="line"/>
      <point x="203" y="120" type="line"/>
      <point x="226" y="120" type="line"/>
      <point x="81" y="519" type="line"/>
    </contour>
    <contour>
      <point x="288" y="538" type="move" name="top"/>
    </contour>
  </outline>
</glyph>
<glyph name="X" format="1">
  <advance width="422"/>
  <unicode hex="0058"/>
  <outline>
    <contour>
      <point x="6" y="490" type="line"/>
      <point x="329" y="-15" type="line"/>
      <point x="418" y="13" type="line"/>
      <point x="95" y="517" type="line"/>
    </contour>
    <contour>
      <point x="197" y="518"/>
      <point x="197" y="74"/>
      <point x="48" y="74" type="curve" smooth="yes"/>
      <point x="41" y="74"/>
      <point x="32" y="76"/>
      <point x="26" y="79" type="curve"/>
      <point x="4" y="-15" type="line"/>
      <point x="212" y="-15"/>
      <point x="211" y="429"/>
      <point x="361" y="429" type="curve" smooth="yes"/>
      <point x="368" y="429"/>
      <point x="377" y="427"/>
      <point x="383" y="424" type="curve"/>
      <point x="404" y="518" type="line"/>
    </contour>
  </outline>
</glyph>
<glyph name="Y" format="1">
  <advance width="461"/>
  <unicode hex="0059"/>
  <outline>
    <contour>
      <point x="311" y="119" type="line"/>
      <point x="311" y="-47" type="line" smooth="yes"/>
      <point x="311" y="-87"/>
      <point x="292" y="-124"/>
      <point x="248" y="-124" type="curve" smooth="yes"/>
      <point x="214" y="-124"/>
      <point x="185" y="-89"/>
      <point x="172" y="-61" type="curve"/>
      <point x="103" y="-121" type="line"/>
      <point x="134" y="-147"/>
      <point x="171" y="-161"/>
      <point x="223" y="-161" type="curve" smooth="yes"/>
      <point x="322" y="-161"/>
      <point x="402" y="-79"/>
      <point x="402" y="20" type="curve" smooth="yes"/>
      <point x="402" y="528" type="line"/>
      <point x="311" y="499" type="line"/>
      <point x="311" y="250" type="line" smooth="yes"/>
      <point x="311" y="196"/>
      <point x="281" y="42"/>
      <point x="206" y="42" type="curve" smooth="yes"/>
      <point x="165" y="42"/>
      <point x="164" y="94"/>
      <point x="164" y="129" type="curve" smooth="yes"/>
      <point x="164" y="424" type="line" smooth="yes"/>
      <point x="164" y="482"/>
      <point x="134" y="521"/>
      <point x="80" y="521" type="curve" smooth="yes"/>
      <point x="37" y="521"/>
      <point x="7" y="495"/>
      <point x="-11" y="466" type="curve"/>
      <point x="5" y="452" type="line"/>
      <point x="15" y="465"/>
      <point x="31" y="476"/>
      <point x="47" y="476" type="curve" smooth="yes"/>
      <point x="67" y="476"/>
      <point x="73" y="458"/>
      <point x="73" y="441" type="curve" smooth="yes"/>
      <point x="73" y="106" type="line" smooth="yes"/>
      <point x="73" y="49"/>
      <point x="102" y="0"/>
      <point x="167" y="0" type="curve" smooth="yes"/>
      <point x="240" y="0"/>
      <point x="283" y="47"/>
      <point x="307" y="119" type="curve"/>
    </contour>
    <contour>
      <point x="232" y="538" type="move" name="top"/>
    </contour>
  </outline>
</glyph>
<glyph name="bracketright" format="1">
  <advance width="213"/>
  <unicode hex="005D"/>
  <outline>
    <contour>
      <point x="9" y="542" type="line"/>
      <point x="9" y="514" type="line"/>
      <point x="77" y="514" type="line"/>
      <point x="77" y="-73" type="line"/>
      <point x="9" y="-73" type="line"/>
      <point x="9" y="-102" type="line"/>
      <point x="168" y="-102" type="line"/>
      <point x="168" y="542" type="line"/>
    </contour>
  </outline>
</glyph>
<glyph name="asciicircum" format="1">
  <advance width="222"/>
  <unicode hex="005E"/>
  <outline>
    <contour>
      <point x="0" y="300" type="line"/>
      <point x="24" y="281" type="line"/>
      <point x="101" y="392" type="line"/>
      <point x="73" y="392" type="line"/>
      <point x="178" y="283" type="line"/>
      <point x="222" y="331" type="line"/>
      <point x="105" y="450" type="line"/>
    </contour>
  </outline>
</glyph>
<glyph name="a" format="1">
  <advance width="335"/>
  <unicode hex="0061"/>
  <outline>
    <contour>
      <point x="82" y="279"/>
      <point x="22" y="199"/>
      <point x="22" y="109" type="curve" smooth="yes"/>
      <point x="22" y="45"/>
      <point x="55" y="-7"/>
      <point x="114" y="-7" type="curve" smooth="yes"/>
      <point x="160" y="-7"/>
      <point x="186" y="22"/>
      <point x="201" y="59" type="curve"/>
      <point x="204" y="59" type="line"/>
      <point x="204" y="27"/>
      <point x="217" y="-5"/>
      <point x="260" y="-5" type="curve" smooth="yes"/>
      <point x="296" y="-5"/>
      <point x="322" y="20"/>
      <point x="333" y="44" type="curve"/>
      <point x="322" y="56" type="line"/>
      <point x="316" y="48"/>
      <point x="306" y="39"/>
      <point x="295" y="39" type="curve" smooth="yes"/>
      <point x="286" y="39"/>
      <point x="281" y="47"/>
      <point x="281" y="58" type="curve" smooth="yes"/>
      <point x="281" y="201" type="line"/>
      <point x="199" y="175" type="line"/>
      <point x="199" y="151" type="line" smooth="yes"/>
      <point x="199" y="112"/>
      <point x="191" y="35"/>
      <point x="144" y="35" type="curve" smooth="yes"/>
      <point x="110" y="35"/>
      <point x="99" y="84"/>
      <point x="99" y="133" type="curve" smooth="yes"/>
      <point x="99" y="192"/>
      <point x="124" y="242"/>
      <point x="166" y="242" type="curve" smooth="yes"/>
      <point x="185" y="242"/>
      <point x="202" y="229"/>
      <point x="211" y="207" type="curve"/>
      <point x="280" y="230" type="line"/>
      <point x="262" y="266"/>
      <point x="220" y="279"/>
      <point x="182" y="279" type="curve" smooth="yes"/>
    </contour>
    <contour>
      <point x="336" y="4" type="move" name="ogonek"/>
    </contour>
    <contour>
      <point x="178" y="300" type="move" name="top"/>
    </contour>
  </outline>
</glyph>
<glyph name="g" format="1">
  <advance width="318"/>
  <unicode hex="0067"/>
  <outline>
    <contour>
      <point x="81" y="282"/>
      <point x="21" y="194"/>
      <point x="21" y="106" type="curve" smooth="yes"/>
      <point x="21" y="45"/>
      <point x="55" y="-7"/>
      <point x="115" y="-7" type="curve" smooth="yes"/>
      <point x="157" y="-7"/>
      <point x="184" y="26"/>
      <point x="198" y="59" type="curve"/>
      <point x="202" y="59" type="line"/>
      <point x="200" y="47"/>
      <point x="198" y="28"/>
      <point x="198" y="11" type="curve"/>
      <point x="198" y="-21" type="line"/>
      <point x="198" y="-72"/>
      <point x="191" y="-117"/>
      <point x="142" y="-117" type="curve" smooth="yes"/>
      <point x="127" y="-117"/>
      <point x="111" y="-110"/>
      <point x="94" y="-93" type="curve"/>
      <point x="47" y="-144" type="line"/>
      <point x="63" y="-157"/>
      <point x="82" y="-163"/>
      <point x="101" y="-163" type="curve" smooth="yes"/>
      <point x="194" y="-163"/>
      <point x="281" y="-61"/>
      <point x="281" y="29" type="curve" smooth="yes"/>
      <point x="281" y="201" type="line"/>
      <point x="198" y="175" type="line"/>
      <point x="198" y="151" type="line" smooth="yes"/>
      <point x="198" y="112"/>
      <point x="191" y="35"/>
      <point x="146" y="35" type="curve" smooth="yes"/>
      <point x="109" y="35"/>
      <point x="98" y="88"/>
      <point x="98" y="133" type="curve" smooth="yes"/>
      <point x="98" y="183"/>
      <point x="123" y="245"/>
      <point x="166" y="245" type="curve" smooth="yes"/>
      <point x="184" y="245"/>
      <point x="201" y="233"/>
      <point x="211" y="208" type="curve"/>
      <point x="280" y="230" type="line"/>
      <point x="261" y="266"/>
      <point x="220" y="282"/>
      <point x="181" y="282" type="curve" smooth="yes"/>
    </contour>
    <contour>
      <point x="169" y="300" type="move" name="top"/>
    </contour>
  </outline>
</glyph>
<glyph name="i" format="1">
  <advance width="183"/>
  <unicode hex="0069"/>
  <outline>
    <contour>
      <point x="43" y="255" type="line"/>
      <point x="43" y="55" type="line" smooth="yes"/>
      <point x="43" y="20"/>
      <point x="59" y="-5"/>
      <point x="103" y="-5" type="curve" smooth="yes"/>
      <point x="137" y="-5"/>
      <point x="163" y="16"/>
      <point x="179" y="43" type="curve"/>
      <point x="167" y="56" type="line"/>
      <point x="159" y="45"/>
      <point x="149" y="38"/>
      <point x="140" y="38" type="curve" smooth="yes"/>
      <point x="133" y="38"/>
      <point x="127" y="45"/>
      <point x="127" y="57" type="curve" smooth="yes"/>
      <point x="127" y="281" type="line"/>
    </contour>
    <contour>
      <point x="35" y="442" type="line"/>
      <point x="57" y="324" type="line"/>
      <point x="110" y="341" type="line"/>
      <point x="129" y="474" type="line"/>
    </contour>
  </outline>
</glyph>
<glyph name="j" format="1">
  <advance width="169"/>
  <unicode hex="006A"/>
  <outline>
    <contour>
      <point x="133" y="474" type="line"/>
      <point x="113" y="341" type="line"/>
      <point x="61" y="324" type="line"/>
      <point x="39" y="442" type="line"/>
    </contour>
    <contour>
      <point x="129" y="31" type="line" smooth="yes"/>
      <point x="129" y="-68"/>
      <point x="35" y="-162"/>
      <point x="-56" y="-162" type="curve" smooth="yes"/>
      <point x="-73" y="-162"/>
      <point x="-92" y="-158"/>
      <point x="-108" y="-146" type="curve"/>
      <point x="-65" y="-91" type="line"/>
      <point x="-42" y="-110"/>
      <point x="-23" y="-115"/>
      <point x="-10" y="-115" type="curve"/>
      <point x="27" y="-115"/>
      <point x="46" y="-89"/>
      <point x="46" y="-17" type="curve" smooth="yes"/>
      <point x="46" y="255" type="line"/>
      <point x="129" y="281" type="line"/>
    </contour>
  </outline>
</glyph>
<glyph name="k" format="1">
  <advance width="332"/>
  <unicode hex="006B"/>
  <outline>
    <contour>
      <point x="41" y="490" type="line"/>
      <point x="41" y="-7" type="line"/>
      <point x="124" y="9" type="line"/>
      <point x="125" y="26"/>
      <point x="127" y="58"/>
      <point x="131" y="75" type="curve"/>
      <point x="136" y="76" type="line"/>
      <point x="167" y="41"/>
      <point x="199" y="-7"/>
      <point x="245" y="-7" type="curve" smooth="yes"/>
      <point x="285" y="-7"/>
      <point x="317" y="20"/>
      <point x="332" y="45" type="curve"/>
      <point x="320" y="58" type="line"/>
      <point x="313" y="49"/>
      <point x="301" y="42"/>
      <point x="287" y="42" type="curve" smooth="yes"/>
      <point x="261" y="42"/>
      <point x="234" y="79"/>
      <point x="204" y="115" type="curve"/>
      <point x="243" y="138"/>
      <point x="299" y="182"/>
      <point x="299" y="235" type="curve" smooth="yes"/>
      <point x="299" y="262"/>
      <point x="279" y="284"/>
      <point x="247" y="284" type="curve" smooth="yes"/>
      <point x="183" y="284"/>
      <point x="150" y="210"/>
      <point x="128" y="141" type="curve"/>
      <point x="124" y="141" type="line"/>
      <point x="124" y="516" type="line"/>
    </contour>
    <contour>
      <point x="211" y="229"/>
      <point x="216" y="220"/>
      <point x="216" y="207" type="curve" smooth="yes"/>
      <point x="216" y="171"/>
      <point x="179" y="130"/>
      <point x="133" y="96" type="curve"/>
      <point x="142" y="137"/>
      <point x="176" y="229"/>
      <point x="202" y="229" type="curve" smooth="yes"/>
    </contour>
    <contour>
      <point x="166" y="0" type="move" name="bottom"/>
    </contour>
  </outline>
</glyph>
<glyph name="o" format="1">
  <advance width="317"/>
  <unicode hex="006F"/>
  <outline>
    <contour>
      <point x="77" y="262"/>
      <point x="18" y="198"/>
      <point x="18" y="118" type="curve" smooth="yes"/>
      <point x="18" y="46"/>
      <point x="78" y="-8"/>
      <point x="153" y="-8" type="curve" smooth="yes"/>
      <point x="243" y="-8"/>
      <point x="298" y="73"/>
      <point x="298" y="149" type="curve" smooth="yes"/>
      <point x="298" y="204"/>
      <point x="266" y="260"/>
      <point x="207" y="280" type="curve"/>
      <point x="187" y="267"/>
      <point x="164" y="249"/>
      <point x="146" y="228" type="curve"/>
      <point x="200" y="223"/>
      <point x="233" y="160"/>
      <point x="233" y="109" type="curve" smooth="yes"/>
      <point x="233" y="66"/>
      <point x="211" y="29"/>
      <point x="172" y="29" type="curve" smooth="yes"/>
      <point x="125" y="29"/>
      <point x="102" y="90"/>
      <point x="102" y="135" type="curve" smooth="yes"/>
      <point x="102" y="199"/>
      <point x="131" y="241"/>
      <point x="169" y="272" type="curve"/>
      <point x="158" y="286" type="line"/>
    </contour>
    <contour>
      <point x="163" y="300" type="move" name="top"/>
    </contour>
  </outline>
</glyph>
<glyph name="p" format="1">
  <advance width="339"/>
  <unicode hex="0070"/>
  <outline>
    <contour>
      <point x="184" y="285"/>
      <point x="155" y="262"/>
      <point x="141" y="221" type="curve"/>
      <point x="138" y="221" type="line"/>
      <point x="137" y="264"/>
      <point x="117" y="285"/>
      <point x="79" y="285" type="curve" smooth="yes"/>
      <point x="50" y="285"/>
      <point x="21" y="266"/>
      <point x="6" y="236" type="curve"/>
      <point x="18" y="224" type="line"/>
      <point x="26" y="235"/>
      <point x="36" y="241"/>
      <point x="45" y="241" type="curve" smooth="yes"/>
      <point x="52" y="241"/>
      <point x="58" y="233"/>
      <point x="58" y="221" type="curve" smooth="yes"/>
      <point x="58" y="-174" type="line"/>
      <point x="141" y="-148" type="line"/>
      <point x="141" y="125" type="line" smooth="yes"/>
      <point x="141" y="198"/>
      <point x="158" y="242"/>
      <point x="187" y="242" type="curve" smooth="yes"/>
      <point x="220" y="242"/>
      <point x="241" y="202"/>
      <point x="241" y="139" type="curve" smooth="yes"/>
      <point x="241" y="72"/>
      <point x="218" y="30"/>
      <point x="181" y="30" type="curve" smooth="yes"/>
      <point x="157" y="30"/>
      <point x="140" y="41"/>
      <point x="126" y="65" type="curve"/>
      <point x="105" y="11" type="line"/>
      <point x="123" y="0"/>
      <point x="145" y="-7"/>
      <point x="171" y="-7" type="curve" smooth="yes"/>
      <point x="260" y="-7"/>
      <point x="318" y="60"/>
      <point x="318" y="161" type="curve" smooth="yes"/>
      <point x="318" y="232"/>
      <point x="276" y="285"/>
      <point x="219" y="285" type="curve" smooth="yes"/>
    </contour>
  </outline>
</glyph>
<glyph name="q" format="1">
  <advance width="318"/>
  <unicode hex="0071"/>
  <outline>
    <contour>
      <point x="87" y="281"/>
      <point x="21" y="208"/>
      <point x="21" y="106" type="curve" smooth="yes"/>
      <point x="21" y="39"/>
      <point x="59" y="-7"/>
      <point x="115" y="-7" type="curve" smooth="yes"/>
      <point x="154" y="-7"/>
      <point x="185" y="18"/>
      <point x="199" y="60" type="curve"/>
      <point x="202" y="60" type="line"/>
      <point x="199" y="43"/>
      <point x="198" y="30"/>
      <point x="198" y="5" type="curve"/>
      <point x="198" y="-102" type="line" smooth="yes"/>
      <point x="198" y="-141"/>
      <point x="220" y="-163"/>
      <point x="259" y="-163" type="curve" smooth="yes"/>
      <point x="288" y="-163"/>
      <point x="317" y="-144"/>
      <point x="332" y="-114" type="curve"/>
      <point x="321" y="-101" type="line"/>
      <point x="314" y="-111"/>
      <point x="303" y="-118"/>
      <point x="294" y="-118" type="curve" smooth="yes"/>
      <point x="285" y="-118"/>
      <point x="280" y="-111"/>
      <point x="280" y="-100" type="curve" smooth="yes"/>
      <point x="280" y="201" type="line"/>
      <point x="198" y="175" type="line"/>
      <point x="198" y="151" type="line"/>
      <point x="198" y="82"/>
      <point x="177" y="35"/>
      <point x="146" y="35" type="curve" smooth="yes"/>
      <point x="117" y="35"/>
      <point x="98" y="73"/>
      <point x="98" y="133" type="curve" smooth="yes"/>
      <point x="98" y="197"/>
      <point x="127" y="245"/>
      <point x="165" y="245" type="curve" smooth="yes"/>
      <point x="182" y="245"/>
      <point x="198" y="231"/>
      <point x="210" y="207" type="curve"/>
      <point x="280" y="230" type="line"/>
      <point x="263" y="262"/>
      <point x="226" y="281"/>
      <point x="181" y="281" type="curve" smooth="yes"/>
    </contour>
  </outline>
</glyph>
<glyph name="r" format="1">
  <advance width="260"/>
  <unicode hex="0072"/>
  <outline>
    <contour>
      <point x="146" y="198" type="line"/>
      <point x="133" y="192"/>
      <point x="118" y="189"/>
      <point x="105" y="189" type="curve" smooth="yes"/>
      <point x="93" y="189"/>
      <point x="83" y="190"/>
      <point x="74" y="194" type="curve"/>
      <point x="37" y="118" type="line"/>
      <point x="11" y="130" type="line"/>
      <point x="49" y="206" type="line"/>
      <point x="40" y="212"/>
      <point x="29" y="222"/>
      <point x="26" y="230" type="curve"/>
      <point x="88" y="300" type="line"/>
      <point x="96" y="264"/>
      <point x="124" y="241"/>
      <point x="156" y="241" type="curve" smooth="yes"/>
      <point x="182" y="241"/>
      <point x="207" y="252"/>
      <point x="227" y="265" type="curve"/>
      <point x="240" y="252" type="line"/>
      <point x="197" y="218"/>
      <point x="160" y="152"/>
      <point x="160" y="97" type="curve" smooth="yes"/>
      <point x="160" y="65"/>
      <point x="176" y="40"/>
      <point x="210" y="40" type="curve" smooth="yes"/>
      <point x="221" y="40"/>
      <point x="234" y="45"/>
      <point x="247" y="52" type="curve"/>
      <point x="258" y="40" type="line"/>
      <point x="234" y="11"/>
      <point x="200" y="-7"/>
      <point x="167" y="-7" type="curve" smooth="yes"/>
      <point x="123" y="-7"/>
      <point x="94" y="24"/>
      <point x="94" y="67" type="curve" smooth="yes"/>
      <point x="94" y="109"/>
      <point x="119" y="163"/>
      <point x="148" y="196" type="curve"/>
    </contour>
    <contour>
      <point x="150" y="300" type="move" name="top"/>
    </contour>
    <contour>
      <point x="130" y="0" type="move" name="bottom"/>
    </contour>
  </outline>
</glyph>
<glyph name="s" format="1">
  <advance width="238"/>
  <unicode hex="0073"/>
  <outline>
    <contour>
      <point x="72" y="302"/>
      <point x="55" y="271"/>
      <point x="55" y="237" type="curve" smooth="yes"/>
      <point x="55" y="221"/>
      <point x="59" y="203"/>
      <point x="70" y="189" type="curve"/>
      <point x="28" y="130" type="line"/>
      <point x="50" y="115" type="line"/>
      <point x="86" y="168" type="line"/>
      <point x="106" y="147"/>
      <point x="162" y="110"/>
      <point x="162" y="77" type="curve" smooth="yes"/>
      <point x="162" y="49"/>
      <point x="142" y="33"/>
      <point x="118" y="33" type="curve" smooth="yes"/>
      <point x="96" y="33"/>
      <point x="71" y="59"/>
      <point x="59" y="83" type="curve"/>
      <point x="14" y="23" type="line"/>
      <point x="33" y="2"/>
      <point x="73" y="-7"/>
      <point x="105" y="-7" type="curve" smooth="yes"/>
      <point x="167" y="-7"/>
      <point x="218" y="40"/>
      <point x="218" y="100" type="curve" smooth="yes"/>
      <point x="218" y="167"/>
      <point x="169" y="191"/>
      <point x="130" y="224" type="curve"/>
      <point x="141" y="238"/>
      <point x="151" y="251"/>
      <point x="152" y="270" type="curve" smooth="yes"/>
      <point x="151" y="289"/>
      <point x="138" y="302"/>
      <point x="112" y="302" type="curve" smooth="yes"/>
    </contour>
    <contour>
      <point x="119" y="279"/>
      <point x="122" y="274"/>
      <point x="122" y="268" type="curve" smooth="yes"/>
      <point x="122" y="260"/>
      <point x="117" y="250"/>
      <point x="110" y="242" type="curve"/>
      <point x="104" y="249"/>
      <point x="101" y="257"/>
      <point x="101" y="264" type="curve" smooth="yes"/>
      <point x="101" y="271"/>
      <point x="104" y="279"/>
      <point x="111" y="279" type="curve" smooth="yes"/>
    </contour>
    <contour>
      <point x="117" y="300" type="move" name="top"/>
    </contour>
    <contour>
      <point x="119" y="0" type="move" name="bottom"/>
    </contour>
  </outline>
</glyph>
<glyph name="x" format="1">
  <advance width="323"/>
  <unicode hex="0078"/>
  <outline>
    <contour>
      <point x="59" y="283"/>
      <point x="26" y="255"/>
      <point x="10" y="233" type="curve"/>
      <point x="21" y="220" type="line"/>
      <point x="28" y="226"/>
      <point x="36" y="231"/>
      <point x="47" y="231" type="curve" smooth="yes"/>
      <point x="112" y="231"/>
      <point x="139" y="-6"/>
      <point x="228" y="-6" type="curve" smooth="yes"/>
      <point x="264" y="-6"/>
      <point x="297" y="22"/>
      <point x="313" y="45" type="curve"/>
      <point x="302" y="58" type="line"/>
      <point x="296" y="52"/>
      <point x="287" y="47"/>
      <point x="276" y="47" type="curve" smooth="yes"/>
      <point x="212" y="47"/>
      <point x="184" y="283"/>
      <point x="96" y="283" type="curve" smooth="yes"/>
    </contour>
    <contour>
      <point x="145" y="286"/>
      <point x="171" y="57"/>
      <point x="80" y="57" type="curve" smooth="yes"/>
      <point x="65" y="57"/>
      <point x="50" y="65"/>
      <point x="35" y="77" type="curve"/>
      <point x="8" y="13" type="line"/>
      <point x="22" y="1"/>
      <point x="40" y="-6"/>
      <point x="62" y="-6" type="curve" smooth="yes"/>
      <point x="177" y="-6"/>
      <point x="154" y="224"/>
      <point x="238" y="224" type="curve" smooth="yes"/>
      <point x="252" y="224"/>
      <point x="267" y="214"/>
      <point x="280" y="204" type="curve"/>
      <point x="309" y="270" type="line"/>
      <point x="294" y="281"/>
      <point x="278" y="286"/>
      <point x="257" y="286" type="curve" smooth="yes"/>
    </contour>
  </outline>
</glyph>
<glyph name="bar" format="1">
  <advance width="184"/>
  <unicode hex="007C"/>
  <outline>
    <contour>
      <point x="137" y="-75" type="line"/>
      <point x="46" y="-103" type="line"/>
      <point x="46" y="516" type="line"/>
      <point x="137" y="542" type="line"/>
    </contour>
  </outline>
</glyph>
<glyph name="cent" format="1">
  <advance width="289"/>
  <unicode hex="00A2"/>
  <outline>
    <contour>
      <point x="117" y="484" type="line"/>
      <point x="131" y="375" type="line"/>
      <point x="170" y="387" type="line"/>
      <point x="183" y="504" type="line"/>
    </contour>
    <contour>
      <point x="135" y="119" type="line"/>
      <point x="122" y="7" type="line"/>
      <point x="189" y="28" type="line"/>
      <point x="176" y="123" type="line"/>
    </contour>
    <component base="c" yOffset="114"/>
  </outline>
</glyph>
<glyph name="currency" format="1">
  <advance width="397"/>
  <unicode hex="00A4"/>
  <outline>
    <contour>
      <point x="21" y="383" type="line"/>
      <point x="125" y="305" type="line"/>
      <point x="138" y="339" type="line"/>
      <point x="64" y="431" type="line"/>
    </contour>
    <contour>
      <point x="22" y="121" type="line"/>
      <point x="70" y="78" type="line"/>
      <point x="149" y="181" type="line"/>
      <point x="115" y="194" type="line"/>
    </contour>
    <contour>
      <point x="272" y="157" type="line"/>
      <point x="334" y="79" type="line"/>
      <point x="376" y="128" type="line"/>
      <point x="292" y="192" type="line"/>
    </contour>
    <contour>
      <point x="262" y="348" type="line"/>
      <point x="297" y="328" type="line"/>
      <point x="375" y="390" type="line"/>
      <point x="326" y="433" type="line"/>
    </contour>
    <component base="o" xOffset="47" yOffset="114"/>
  </outline>
</glyph>
<glyph name="dieresis" format="1">
  <advance width="232"/>
  <unicode hex="00A8"/>
  <outline>
    <contour>
      <point x="155" y="444"/>
      <point x="134" y="423"/>
      <point x="134" y="397" type="curve" smooth="yes"/>
      <point x="134" y="371"/>
      <point x="155" y="350"/>
      <point x="181" y="350" type="curve" smooth="yes"/>
      <point x="207" y="350"/>
      <point x="228" y="371"/>
      <point x="228" y="397" type="curve" smooth="yes"/>
      <point x="228" y="423"/>
      <point x="207" y="444"/>
      <point x="181" y="444" type="curve" smooth="yes"/>
    </contour>
    <contour>
      <point x="25" y="444"/>
      <point x="3" y="423"/>
      <point x="3" y="397" type="curve" smooth="yes"/>
      <point x="3" y="371"/>
      <point x="25" y="350"/>
      <point x="50" y="350" type="curve" smooth="yes"/>
      <point x="76" y="350"/>
      <point x="97" y="371"/>
      <point x="97" y="397" type="curve" smooth="yes"/>
      <point x="97" y="423"/>
      <point x="76" y="444"/>
      <point x="50" y="444" type="curve" smooth="yes"/>
    </contour>
    <contour>
      <point x="116" y="300" type="move" name="_top"/>
    </contour>
  </outline>
</glyph>
<glyph name="copyright" format="1">
  <advance width="420"/>
  <unicode hex="00A9"/>
  <outline>
    <contour>
      <point x="118" y="419"/>
      <point x="42" y="344"/>
      <point x="42" y="251" type="curve" smooth="yes"/>
      <point x="42" y="159"/>
      <point x="118" y="84"/>
      <point x="210" y="84" type="curve" smooth="yes"/>
      <point x="302" y="84"/>
      <point x="378" y="159"/>
      <point x="378" y="251" type="curve" smooth="yes"/>
      <point x="378" y="344"/>
      <point x="302" y="419"/>
      <point x="210" y="419" type="curve" smooth="yes"/>
    </contour>
    <contour>
      <point x="167" y="363"/>
      <point x="118" y="303"/>
      <point x="118" y="235" type="curve" smooth="yes"/>
      <point x="118" y="194"/>
      <point x="144" y="149"/>
      <point x="194" y="149" type="curve" smooth="yes"/>
      <point x="227" y="149"/>
      <point x="256" y="170"/>
      <point x="273" y="192" type="curve"/>
      <point x="265" y="200" type="line"/>
      <point x="252" y="185"/>
      <point x="235" y="174"/>
      <point x="218" y="174" type="curve" smooth="yes"/>
      <point x="177" y="174"/>
      <point x="159" y="216"/>
      <point x="159" y="255" type="curve" smooth="yes"/>
      <point x="159" y="291"/>
      <point x="176" y="344"/>
      <point x="214" y="344" type="curve" smooth="yes"/>
      <point x="234" y="344"/>
      <point x="244" y="328"/>
      <point x="244" y="308" type="curve" smooth="yes"/>
      <point x="244" y="290"/>
      <point x="233" y="271"/>
      <point x="217" y="263" type="curve"/>
      <point x="221" y="255" type="line"/>
      <point x="251" y="264"/>
      <point x="281" y="292"/>
      <point x="281" y="324" type="curve" smooth="yes"/>
      <point x="281" y="349"/>
      <point x="262" y="363"/>
      <point x="238" y="363" type="curve" smooth="yes"/>
    </contour>
    <contour>
      <point x="293" y="401"/>
      <point x="360" y="334"/>
      <point x="360" y="251" type="curve" smooth="yes"/>
      <point x="360" y="169"/>
      <point x="293" y="102"/>
      <point x="210" y="102" type="curve" smooth="yes"/>
      <point x="127" y="102"/>
      <point x="60" y="169"/>
      <point x="60" y="251" type="curve" smooth="yes"/>
      <point x="60" y="334"/>
      <point x="127" y="401"/>
      <point x="210" y="401" type="curve" smooth="yes"/>
    </contour>
  </outline>
</glyph>
<glyph name="ordfeminine" format="1">
  <advance width="300"/>
  <unicode hex="00AA"/>
  <outline>
    <contour>
      <point x="263" y="231" type="line"/>
      <point x="246" y="180" type="line"/>
      <point x="32" y="180" type="line"/>
      <point x="49" y="231" type="line"/>
    </contour>
    <component base="a" xOffset="17" yOffset="292" xScale="0.8" yScale="0.8"/>
  </outline>
</glyph>
<glyph name="softhyphen" format="1">
  <advance width="342"/>
  <unicode hex="00AD"/>
  <outline>
    <contour>
      <point x="311" y="307" type="line"/>
      <point x="289" y="237" type="line"/>
      <point x="43" y="237" type="line"/>
      <point x="66" y="307" type="line"/>
    </contour>
  </outline>
</glyph>
<glyph name="twosuperior" format="1">
  <advance width="238"/>
  <unicode hex="00B2"/>
  <outline>
    <contour>
      <point x="69" y="510"/>
      <point x="29" y="481"/>
      <point x="9" y="452" type="curve"/>
      <point x="23" y="440" type="line"/>
      <point x="41" y="462"/>
      <point x="67" y="477"/>
      <point x="91" y="477" type="curve" smooth="yes"/>
      <point x="124" y="477"/>
      <point x="143" y="455"/>
      <point x="143" y="421" type="curve" smooth="yes"/>
      <point x="143" y="355"/>
      <point x="66" y="293"/>
      <point x="7" y="244" type="curve"/>
      <point x="20" y="230" type="line"/>
      <point x="34" y="240"/>
      <point x="47" y="245"/>
      <point x="67" y="245" type="curve" smooth="yes"/>
      <point x="113" y="245"/>
      <point x="137" y="233"/>
      <point x="192" y="230" type="curve"/>
      <point x="226" y="305" type="line"/>
      <point x="214" y="314" type="line"/>
      <point x="203" y="298"/>
      <point x="190" y="287"/>
      <point x="169" y="287" type="curve" smooth="yes"/>
      <point x="154" y="287"/>
      <point x="141" y="293"/>
      <point x="123" y="293" type="curve" smooth="yes"/>
      <point x="111" y="293"/>
      <point x="99" y="290"/>
      <point x="91" y="285" type="curve"/>
      <point x="89" y="288" type="line"/>
      <point x="137" y="320"/>
      <point x="207" y="359"/>
      <point x="207" y="428" type="curve" smooth="yes"/>
      <point x="207" y="479"/>
      <point x="167" y="510"/>
      <point x="109" y="510" type="curve" smooth="yes"/>
    </contour>
  </outline>
</glyph>
<glyph name="acute" format="1">
  <advance width="145"/>
  <unicode hex="00B4"/>
  <outline>
    <contour>
      <point x="16" y="323" type="line"/>
      <point x="3" y="345" type="line"/>
      <point x="103" y="449" type="line"/>
      <point x="151" y="380" type="line"/>
    </contour>
    <contour>
      <point x="71" y="300" type="move" name="_top"/>
    </contour>
  </outline>
</glyph>
<glyph name="periodcentered" format="1">
  <advance width="154"/>
  <unicode hex="00B7"/>
  <outline>
    <contour>
      <point x="126" y="236"/>
      <point x="104" y="215"/>
      <point x="77" y="215" type="curve" smooth="yes"/>
      <point x="50" y="215"/>
      <point x="28" y="236"/>
      <point x="28" y="264" type="curve" smooth="yes"/>
      <point x="28" y="290"/>
      <point x="50" y="313"/>
      <point x="77" y="313" type="curve" smooth="yes"/>
      <point x="104" y="313"/>
      <point x="126" y="290"/>
      <point x="126" y="264" type="curve" smooth="yes"/>
    </contour>
  </outline>
</glyph>
<glyph name="Thorn" format="1">
  <advance width="450"/>
  <unicode hex="00DE"/>
  <outline>
    <contour>
      <point x="173" y="455"/>
      <point x="78" y="403"/>
      <point x="11" y="342" type="curve"/>
      <point x="29" y="321" type="line"/>
      <point x="85" y="370"/>
      <point x="161" y="407"/>
      <point x="231" y="407" type="curve" smooth="yes"/>
      <point x="316" y="407"/>
      <point x="353" y="359"/>
      <point x="353" y="292" type="curve" smooth="yes"/>
      <point x="353" y="186"/>
      <point x="249" y="117"/>
      <point x="154" y="104" type="curve"/>
      <point x="150" y="84" type="line"/>
      <point x="157" y="83"/>
      <point x="161" y="83"/>
      <point x="165" y="83" type="curve" smooth="yes"/>
      <point x="302" y="83"/>
      <point x="445" y="182"/>
      <point x="445" y="306" type="curve" smooth="yes"/>
      <point x="445" y="401"/>
      <point x="379" y="455"/>
      <point x="283" y="455" type="curve"/>
    </contour>
    <contour>
      <point x="58" y="503" type="line"/>
      <point x="58" y="-22" type="line"/>
      <point x="149" y="8" type="line"/>
      <point x="149" y="533" type="line"/>
    </contour>
  </outline>
</glyph>
<glyph name="ae" format="1">
  <advance width="479"/>
  <unicode hex="00E6"/>
  <outline>
    <contour>
      <point x="277" y="284"/>
      <point x="195" y="208"/>
      <point x="195" y="118" type="curve" smooth="yes"/>
      <point x="195" y="44"/>
      <point x="249" y="-7"/>
      <point x="324" y="-7" type="curve" smooth="yes"/>
      <point x="385" y="-7"/>
      <point x="432" y="31"/>
      <point x="465" y="74" type="curve"/>
      <point x="450" y="88" type="line"/>
      <point x="426" y="60"/>
      <point x="392" y="34"/>
      <point x="360" y="34" type="curve" smooth="yes"/>
      <point x="337" y="34"/>
      <point x="312" y="46"/>
      <point x="297" y="69" type="curve"/>
      <point x="344" y="91"/>
      <point x="449" y="167"/>
      <point x="449" y="220" type="curve" smooth="yes"/>
      <point x="449" y="264"/>
      <point x="411" y="284"/>
      <point x="368" y="284" type="curve" smooth="yes"/>
    </contour>
    <contour>
      <point x="352" y="247"/>
      <point x="363" y="231"/>
      <point x="363" y="206" type="curve" smooth="yes"/>
      <point x="363" y="166"/>
      <point x="317" y="112"/>
      <point x="285" y="89" type="curve"/>
      <point x="276" y="105"/>
      <point x="272" y="125"/>
      <point x="272" y="144" type="curve" smooth="yes"/>
      <point x="272" y="201"/>
      <point x="297" y="247"/>
      <point x="332" y="247" type="curve" smooth="yes"/>
    </contour>
    <contour>
      <point x="177" y="242"/>
      <point x="196" y="233"/>
      <point x="196" y="201" type="curve" smooth="yes"/>
      <point x="196" y="103"/>
      <point x="188" y="35"/>
      <point x="145" y="35" type="curve" smooth="yes"/>
      <point x="109" y="35"/>
      <point x="98" y="92"/>
      <point x="98" y="133" type="curve" smooth="yes"/>
      <point x="98" y="192"/>
      <point x="123" y="242"/>
      <point x="165" y="242" type="curve" smooth="yes"/>
    </contour>
    <contour>
      <point x="79" y="279"/>
      <point x="20" y="195"/>
      <point x="20" y="106" type="curve" smooth="yes"/>
      <point x="20" y="42"/>
      <point x="55" y="-7"/>
      <point x="115" y="-7" type="curve" smooth="yes"/>
      <point x="167" y="-7"/>
      <point x="200" y="30"/>
      <point x="211" y="94" type="curve"/>
      <point x="284" y="229" type="line"/>
      <point x="264" y="261"/>
      <point x="220" y="279"/>
      <point x="180" y="279" type="curve" smooth="yes"/>
    </contour>
    <contour>
      <point x="239" y="300" type="move" name="top"/>
    </contour>
  </outline>
</glyph>
<glyph name="divide" format="1">
  <advance width="338"/>
  <unicode hex="00F7"/>
  <outline>
    <contour>
      <point x="303" y="301" type="line"/>
      <point x="281" y="243" type="line"/>
      <point x="35" y="243" type="line"/>
      <point x="58" y="301" type="line"/>
    </contour>
    <contour>
      <point x="189" y="395"/>
      <point x="205" y="379"/>
      <point x="205" y="360" type="curve" smooth="yes"/>
      <point x="205" y="341"/>
      <point x="189" y="327"/>
      <point x="171" y="327" type="curve" smooth="yes"/>
      <point x="153" y="327"/>
      <point x="137" y="341"/>
      <point x="137" y="360" type="curve" smooth="yes"/>
      <point x="137" y="379"/>
      <point x="153" y="395"/>
      <point x="171" y="395" type="curve" smooth="yes"/>
    </contour>
    <contour>
      <point x="189" y="217"/>
      <point x="205" y="202"/>
      <point x="205" y="184" type="curve" smooth="yes"/>
      <point x="205" y="165"/>
      <point x="189" y="150"/>
      <point x="171" y="150" type="curve" smooth="yes"/>
      <point x="153" y="150"/>
      <point x="137" y="165"/>
      <point x="137" y="184" type="curve" smooth="yes"/>
      <point x="137" y="202"/>
      <point x="153" y="217"/>
      <point x="171" y="217" type="curve" smooth="yes"/>
    </contour>
  </outline>
</glyph>
<glyph name="dcroat" format="1">
  <advance width="339"/>
  <unicode hex="0111"/>
  <outline>
    <contour>
      <point x="133" y="365" type="line"/>
      <point x="117" y="328" type="line"/>
      <point x="318" y="328" type="line"/>
      <point x="333" y="365" type="line"/>
    </contour>
    <component base="d"/>
  </outline>
</glyph>
<glyph name="hbar" format="1">
  <advance width="336"/>
  <unicode hex="0127"/>
  <outline>
    <contour>
      <point x="7" y="365" type="line"/>
      <point x="-10" y="328" type="line"/>
      <point x="171" y="328" type="line"/>
      <point x="185" y="365" type="line"/>
    </contour>
    <component base="h"/>
  </outline>
</glyph>
<glyph name="dotlessi" format="1">
  <advance width="183"/>
  <unicode hex="0131"/>
  <outline>
    <contour>
      <point x="43" y="255" type="line"/>
      <point x="43" y="55" type="line" smooth="yes"/>
      <point x="43" y="20"/>
      <point x="59" y="-5"/>
      <point x="103" y="-5" type="curve" smooth="yes"/>
      <point x="137" y="-5"/>
      <point x="163" y="16"/>
      <point x="179" y="43" type="curve"/>
      <point x="167" y="56" type="line"/>
      <point x="159" y="45"/>
      <point x="149" y="38"/>
      <point x="140" y="38" type="curve" smooth="yes"/>
      <point x="133" y="38"/>
      <point x="127" y="45"/>
      <point x="127" y="57" type="curve" smooth="yes"/>
      <point x="127" y="281" type="line"/>
    </contour>
    <contour>
      <point x="180" y="4" type="move" name="ogonek"/>
    </contour>
    <contour>
      <point x="87" y="300" type="move" name="top"/>
    </contour>
  </outline>
</glyph>
<glyph name="kgreenlandic" format="1">
  <advance width="332"/>
  <unicode hex="0138"/>
  <outline>
    <contour>
      <point x="41" y="-7" type="line"/>
      <point x="124" y="9" type="line"/>
      <point x="125" y="26"/>
      <point x="127" y="60"/>
      <point x="132" y="76" type="curve"/>
      <point x="137" y="76" type="line"/>
      <point x="172" y="35"/>
      <point x="206" y="-7"/>
      <point x="246" y="-7" type="curve" smooth="yes"/>
      <point x="284" y="-7"/>
      <point x="315" y="20"/>
      <point x="329" y="45" type="curve"/>
      <point x="316" y="58" type="line"/>
      <point x="309" y="49"/>
      <point x="298" y="42"/>
      <point x="284" y="42" type="curve" smooth="yes"/>
      <point x="258" y="42"/>
      <point x="231" y="82"/>
      <point x="204" y="115" type="curve"/>
      <point x="243" y="138"/>
      <point x="300" y="184"/>
      <point x="300" y="235" type="curve" smooth="yes"/>
      <point x="300" y="262"/>
      <point x="280" y="284"/>
      <point x="248" y="284" type="curve" smooth="yes"/>
      <point x="184" y="284"/>
      <point x="150" y="210"/>
      <point x="129" y="141" type="curve"/>
      <point x="125" y="141" type="line"/>
      <point x="125" y="288" type="line"/>
      <point x="41" y="262" type="line"/>
    </contour>
    <contour>
      <point x="212" y="229"/>
      <point x="217" y="221"/>
      <point x="217" y="210" type="curve" smooth="yes"/>
      <point x="217" y="182"/>
      <point x="169" y="129"/>
      <point x="137" y="101" type="curve"/>
      <point x="146" y="141"/>
      <point x="178" y="229"/>
      <point x="203" y="229" type="curve" smooth="yes"/>
    </contour>
  </outline>
</glyph>
<glyph name="Lslash" format="1">
  <advance width="410"/>
  <unicode hex="0141"/>
  <outline>
    <contour>
      <point x="6" y="200" type="line"/>
      <point x="6" y="157" type="line"/>
      <point x="205" y="233" type="line"/>
      <point x="205" y="275" type="line"/>
    </contour>
    <component base="L"/>
  </outline>
</glyph>
<glyph name="Eng" format="1">
  <advance width="432"/>
  <unicode hex="014A"/>
  <outline>
    <contour>
      <point x="61" y="504" type="line"/>
      <point x="61" y="-12" type="line"/>
      <point x="152" y="18" type="line"/>
      <point x="152" y="280" type="line" smooth="yes"/>
      <point x="152" y="335"/>
      <point x="182" y="489"/>
      <point x="255" y="489" type="curve" smooth="yes"/>
      <point x="295" y="489"/>
      <point x="296" y="437"/>
      <point x="296" y="402" type="curve" smooth="yes"/>
      <point x="296" y="-43" type="line"/>
      <point x="296" y="-86"/>
      <point x="280" y="-124"/>
      <point x="239" y="-124" type="curve" smooth="yes"/>
      <point x="205" y="-124"/>
      <point x="173" y="-90"/>
      <point x="159" y="-61" type="curve"/>
      <point x="91" y="-121" type="line"/>
      <point x="123" y="-147"/>
      <point x="162" y="-161"/>
      <point x="210" y="-161" type="curve" smooth="yes"/>
      <point x="311" y="-161"/>
      <point x="386" y="-78"/>
      <point x="386" y="20" type="curve"/>
      <point x="386" y="425" type="line" smooth="yes"/>
      <point x="386" y="481"/>
      <point x="358" y="530"/>
      <point x="293" y="530" type="curve" smooth="yes"/>
      <point x="219" y="530"/>
      <point x="176" y="480"/>
      <point x="152" y="407" type="curve"/>
      <point x="152" y="534" type="line"/>
    </contour>
  </outline>
</glyph>
<glyph name="florin" format="1">
  <advance width="250"/>
  <unicode hex="0192"/>
  <outline>
    <contour>
      <point x="90" y="530"/>
      <point x="56" y="443"/>
      <point x="56" y="364" type="curve" smooth="yes"/>
      <point x="56" y="279" type="line"/>
      <point x="35" y="279" type="line"/>
      <point x="19" y="242" type="line"/>
      <point x="56" y="242" type="line"/>
      <point x="56" y="-16" type="line" smooth="yes"/>
      <point x="56" y="-43"/>
      <point x="52" y="-81"/>
      <point x="19" y="-81" type="curve" smooth="yes"/>
      <point x="-1" y="-81"/>
      <point x="-14" y="-60"/>
      <point x="-22" y="-29" type="curve"/>
      <point x="-86" y="-66" type="line"/>
      <point x="-67" y="-97"/>
      <point x="-30" y="-113"/>
      <point x="6" y="-113" type="curve" smooth="yes"/>
      <point x="106" y="-113"/>
      <point x="140" y="-26"/>
      <point x="140" y="53" type="curve" smooth="yes"/>
      <point x="140" y="242" type="line"/>
      <point x="209" y="242" type="line"/>
      <point x="225" y="279" type="line"/>
      <point x="140" y="279" type="line"/>
      <point x="140" y="432" type="line" smooth="yes"/>
      <point x="140" y="460"/>
      <point x="145" y="498"/>
      <point x="177" y="498" type="curve" smooth="yes"/>
      <point x="197" y="498"/>
      <point x="211" y="478"/>
      <point x="219" y="446" type="curve"/>
      <point x="282" y="483" type="line"/>
      <point x="263" y="514"/>
      <point x="226" y="530"/>
      <point x="191" y="530" type="curve" smooth="yes"/>
    </contour>
  </outline>
</glyph>
<glyph name="dotlessj" format="1">
  <advance width="169"/>
  <unicode hex="0237"/>
  <outline>
    <contour>
      <point x="129" y="31" type="line" smooth="yes"/>
      <point x="129" y="-68"/>
      <point x="35" y="-162"/>
      <point x="-56" y="-162" type="curve" smooth="yes"/>
      <point x="-73" y="-162"/>
      <point x="-92" y="-158"/>
      <point x="-108" y="-146" type="curve"/>
      <point x="-65" y="-91" type="line"/>
      <point x="-42" y="-110"/>
      <point x="-24" y="-115"/>
      <point x="-10" y="-115" type="curve"/>
      <point x="27" y="-115"/>
      <point x="46" y="-89"/>
      <point x="46" y="-17" type="curve" smooth="yes"/>
      <point x="46" y="255" type="line"/>
      <point x="129" y="281" type="line"/>
    </contour>
    <contour>
      <point x="89" y="300" type="move" name="top"/>
    </contour>
  </outline>
</glyph>
<glyph name="circumflex" format="1">
  <advance width="202"/>
  <unicode hex="02C6"/>
  <outline>
    <contour>
      <point x="2" y="345" type="line"/>
      <point x="26" y="326" type="line"/>
      <point x="76" y="387" type="line"/>
      <point x="159" y="320" type="line"/>
      <point x="200" y="371" type="line"/>
      <point x="94" y="455" type="line"/>
    </contour>
    <contour>
      <point x="101" y="300" type="move" name="_top"/>
    </contour>
  </outline>
</glyph>
<glyph name="breve" format="1">
  <advance width="153"/>
  <unicode hex="02D8"/>
  <outline>
    <contour>
      <point x="43" y="449" type="line"/>
      <point x="38" y="439"/>
      <point x="35" y="428"/>
      <point x="35" y="411" type="curve" smooth="yes"/>
      <point x="35" y="387"/>
      <point x="47" y="349"/>
      <point x="74" y="349" type="curve" smooth="yes"/>
      <point x="90" y="349"/>
      <point x="102" y="362"/>
      <point x="102" y="381" type="curve" smooth="yes"/>
      <point x="102" y="400"/>
      <point x="93" y="419"/>
      <point x="81" y="429" type="curve"/>
      <point x="133" y="462" type="line"/>
      <point x="150" y="444"/>
      <point x="158" y="424"/>
      <point x="158" y="405" type="curve" smooth="yes"/>
      <point x="158" y="356"/>
      <point x="119" y="323"/>
      <point x="68" y="323" type="curve" smooth="yes"/>
      <point x="26" y="323"/>
      <point x="-6" y="350"/>
      <point x="-6" y="390" type="curve" smooth="yes"/>
      <point x="-6" y="417"/>
      <point x="7" y="443"/>
      <point x="28" y="460" type="curve"/>
    </contour>
    <contour>
      <point x="77" y="300" type="move" name="_top"/>
    </contour>
  </outline>
</glyph>
<glyph name="dotaccent" format="1">
  <advance width="102"/>
  <unicode hex="02D9"/>
  <outline>
    <contour>
      <point x="24" y="447"/>
      <point x="2" y="424"/>
      <point x="2" y="397" type="curve" smooth="yes"/>
      <point x="2" y="370"/>
      <point x="24" y="349"/>
      <point x="51" y="349" type="curve" smooth="yes"/>
      <point x="77" y="349"/>
      <point x="99" y="370"/>
      <point x="99" y="397" type="curve" smooth="yes"/>
      <point x="99" y="424"/>
      <point x="77" y="447"/>
      <point x="51" y="447" type="curve" smooth="yes"/>
    </contour>
    <contour>
      <point x="51" y="300" type="move" name="_top"/>
    </contour>
  </outline>
</glyph>
<glyph name="ogonek" format="1">
  <advance width="127"/>
  <unicode hex="02DB"/>
  <outline>
    <contour>
      <point x="37" y="-9"/>
      <point x="0" y="-43"/>
      <point x="0" y="-87" type="curve" smooth="yes"/>
      <point x="0" y="-128"/>
      <point x="32" y="-142"/>
      <point x="58" y="-142" type="curve" smooth="yes"/>
      <point x="87" y="-142"/>
      <point x="113" y="-121"/>
      <point x="129" y="-92" type="curve"/>
      <point x="116" y="-81" type="line"/>
      <point x="104" y="-95"/>
      <point x="91" y="-100"/>
      <point x="81" y="-100" type="curve" smooth="yes"/>
      <point x="59" y="-100"/>
      <point x="47" y="-88"/>
      <point x="47" y="-64" type="curve" smooth="yes"/>
      <point x="47" y="-46"/>
      <point x="57" y="-22"/>
      <point x="79" y="1" type="curve"/>
      <point x="70" y="11" type="line"/>
    </contour>
    <contour>
      <point x="129" y="4" type="move" name="_ogonek"/>
    </contour>
  </outline>
</glyph>
<glyph name="Omega" format="1">
  <advance width="682"/>
  <unicode hex="03A9"/>
  <outline>
    <contour>
      <point x="203" y="531"/>
      <point x="67" y="452"/>
      <point x="67" y="277" type="curve" smooth="yes"/>
      <point x="67" y="177"/>
      <point x="143" y="89"/>
      <point x="211" y="64" type="curve"/>
      <point x="67" y="64" type="line"/>
      <point x="38" y="0" type="line"/>
      <point x="296" y="0" type="line"/>
      <point x="296" y="59" type="line"/>
      <point x="237" y="89"/>
      <point x="162" y="172"/>
      <point x="162" y="278" type="curve" smooth="yes"/>
      <point x="162" y="419"/>
      <point x="237" y="492"/>
      <point x="341" y="492" type="curve"/>
      <point x="444" y="492"/>
      <point x="519" y="419"/>
      <point x="519" y="278" type="curve" smooth="yes"/>
      <point x="519" y="172"/>
      <point x="444" y="89"/>
      <point x="385" y="59" type="curve"/>
      <point x="385" y="0" type="line"/>
      <point x="643" y="0" type="line"/>
      <point x="614" y="64" type="line"/>
      <point x="470" y="64" type="line"/>
      <point x="538" y="89"/>
      <point x="614" y="177"/>
      <point x="614" y="277" type="curve" smooth="yes"/>
      <point x="614" y="452"/>
      <point x="478" y="531"/>
      <point x="341" y="531" type="curve"/>
    </contour>
  </outline>
</glyph>
<glyph name="anusvara-deva" format="1">
  <advance width="0"/>
  <unicode hex="0902"/>
  <outline>
    <contour>
      <point x="-122" y="624" type="line"/>
      <point x="-58" y="680" type="line"/>
      <point x="-122" y="737" type="line"/>
      <point x="-185" y="680" type="line"/>
    </contour>
    <contour>
      <point x="-122" y="500" type="move" name="_top"/>
    </contour>
  </outline>
</glyph>
<glyph name="visarga-deva" format="1">
  <advance width="289"/>
  <unicode hex="0903"/>
  <outline>
    <contour>
      <point x="144" y="47" type="line"/>
      <point x="217" y="111" type="line"/>
      <point x="145" y="176" type="line"/>
      <point x="72" y="111" type="line"/>
    </contour>
    <contour>
      <point x="217" y="299" type="line"/>
      <point x="145" y="364" type="line"/>
      <point x="72" y="299" type="line"/>
      <point x="145" y="235" type="line"/>
    </contour>
  </outline>
</glyph>
<glyph name="i-deva" format="1">
  <advance width="390"/>
  <unicode hex="0907"/>
  <outline>
    <contour>
      <point x="235" y="421" type="line"/>
      <point x="246" y="412"/>
      <point x="255" y="398"/>
      <point x="255" y="388" type="curve" smooth="yes"/>
      <point x="255" y="377"/>
      <point x="242" y="369"/>
      <point x="229" y="369" type="curve" smooth="yes"/>
      <point x="128" y="367" type="line" smooth="yes"/>
      <point x="82" y="366"/>
      <point x="33" y="330"/>
      <point x="33" y="288" type="curve" smooth="yes"/>
      <point x="33" y="240"/>
      <point x="120" y="163"/>
      <point x="180" y="163" type="curve" smooth="yes"/>
      <point x="226" y="163"/>
      <point x="261" y="209"/>
      <point x="279" y="209" type="curve" smooth="yes"/>
      <point x="293" y="209"/>
      <point x="306" y="195"/>
      <point x="306" y="178" type="curve" smooth="yes"/>
      <point x="306" y="138"/>
      <point x="229" y="90"/>
      <point x="173" y="90" type="curve"/>
      <point x="148" y="119"/>
      <point x="115" y="135"/>
      <point x="88" y="135" type="curve" smooth="yes"/>
      <point x="64" y="135"/>
      <point x="41" y="119"/>
      <point x="41" y="96" type="curve" smooth="yes"/>
      <point x="41" y="56"/>
      <point x="96" y="14"/>
      <point x="176" y="14" type="curve"/>
      <point x="246" y="-63"/>
      <point x="318" y="-106"/>
      <point x="376" y="-106" type="curve" smooth="yes"/>
      <point x="399" y="-106"/>
      <point x="423" y="-99"/>
      <point x="436" y="-83" type="curve"/>
      <point x="374" y="-22" type="line"/>
      <point x="361" y="-37"/>
      <point x="340" y="-45"/>
      <point x="320" y="-45" type="curve" smooth="yes"/>
      <point x="286" y="-45"/>
      <point x="246" y="-22"/>
      <point x="211" y="18" type="curve"/>
      <point x="295" y="28"/>
      <point x="360" y="78"/>
      <point x="360" y="132" type="curve" smooth="yes"/>
      <point x="360" y="181"/>
      <point x="301" y="261"/>
      <point x="236" y="261" type="curve" smooth="yes"/>
      <point x="196" y="261"/>
      <point x="168" y="213"/>
      <point x="135" y="213" type="curve" smooth="yes"/>
      <point x="116" y="213"/>
      <point x="101" y="227"/>
      <point x="101" y="243" type="curve" smooth="yes"/>
      <point x="101" y="272"/>
      <point x="137" y="300"/>
      <point x="176" y="301" type="curve" smooth="yes"/>
      <point x="272" y="304" type="line" smooth="yes"/>
      <point x="298" y="304"/>
      <point x="318" y="321"/>
      <point x="318" y="341" type="curve" smooth="yes"/>
      <point x="318" y="363"/>
      <point x="303" y="393"/>
      <point x="277" y="421" type="curve"/>
      <point x="200" y="500" type="line"/>
      <point x="-10" y="500" type="line"/>
      <point x="-10" y="421" type="line"/>
    </contour>
    <contour>
      <point x="400" y="421" type="line"/>
      <point x="400" y="500" type="line"/>
      <point x="242" y="500" type="line"/>
      <point x="319" y="421" type="line"/>
    </contour>
    <contour>
      <point x="221" y="500" type="move" name="top"/>
    </contour>
  </outline>
</glyph>
<glyph name="ii-deva" format="1">
  <advance width="390"/>
  <unicode hex="0908"/>
  <outline>
    <component base="i-deva"/>
    <component base="reph-deva" xOffset="343"/>
    <contour>
      <point x="286" y="500" type="move" name="top"/>
    </contour>
  </outline>
</glyph>
<glyph name="u-deva" format="1">
  <advance width="434"/>
  <unicode hex="0909"/>
  <outline>
    <contour>
      <point x="273" y="421" type="line"/>
      <point x="295" y="412"/>
      <point x="311" y="389"/>
      <point x="311" y="364" type="curve" smooth="yes"/>
      <point x="311" y="333"/>
      <point x="272" y="311"/>
      <point x="231" y="311" type="curve" smooth="yes"/>
      <point x="203" y="311"/>
      <point x="181" y="313"/>
      <point x="162" y="319" type="curve"/>
      <point x="177" y="280"/>
      <point x="194" y="252"/>
      <point x="215" y="232" type="curve"/>
      <point x="222" y="230"/>
      <point x="236" y="228"/>
      <point x="254" y="228" type="curve" smooth="yes"/>
      <point x="272" y="228"/>
      <point x="287" y="231"/>
      <point x="299" y="236" type="curve"/>
      <point x="320" y="215"/>
      <point x="332" y="191"/>
      <point x="332" y="169" type="curve" smooth="yes"/>
      <point x="332" y="126"/>
      <point x="290" y="94"/>
      <point x="244" y="94" type="curve" smooth="yes"/>
      <point x="162" y="94"/>
      <point x="85" y="181"/>
      <point x="40" y="301" type="curve"/>
      <point x="15" y="292" type="line"/>
      <point x="74" y="132"/>
      <point x="183" y="20"/>
      <point x="288" y="20" type="curve" smooth="yes"/>
      <point x="348" y="20"/>
      <point x="396" y="64"/>
      <point x="396" y="117" type="curve" smooth="yes"/>
      <point x="396" y="159"/>
      <point x="368" y="207"/>
      <point x="323" y="249" type="curve"/>
      <point x="348" y="262"/>
      <point x="366" y="287"/>
      <point x="366" y="314" type="curve" smooth="yes"/>
      <point x="366" y="344"/>
      <point x="349" y="384"/>
      <point x="316" y="421" type="curve" smooth="yes"/>
      <point x="246" y="500" type="line"/>
      <point x="-10" y="500" type="line"/>
      <point x="-10" y="421" type="line"/>
    </contour>
    <contour>
      <point x="443" y="421" type="line"/>
      <point x="443" y="500" type="line"/>
      <point x="287" y="500" type="line"/>
      <point x="357" y="421" type="line"/>
    </contour>
    <contour>
      <point x="267" y="500" type="move" name="top"/>
    </contour>
    <contour>
      <point x="288" y="20" type="move" name="bottom"/>
    </contour>
  </outline>
</glyph>
<glyph name="uu-deva" format="1">
  <advance width="619"/>
  <unicode hex="090A"/>
  <outline>
    <contour>
      <point x="273" y="421" type="line"/>
      <point x="295" y="412"/>
      <point x="311" y="389"/>
      <point x="311" y="364" type="curve" smooth="yes"/>
      <point x="311" y="333"/>
      <point x="272" y="311"/>
      <point x="231" y="311" type="curve" smooth="yes"/>
      <point x="203" y="311"/>
      <point x="181" y="313"/>
      <point x="162" y="319" type="curve"/>
      <point x="177" y="280"/>
      <point x="194" y="252"/>
      <point x="215" y="232" type="curve"/>
      <point x="222" y="230"/>
      <point x="236" y="228"/>
      <point x="254" y="228" type="curve" smooth="yes"/>
      <point x="272" y="228"/>
      <point x="287" y="231"/>
      <point x="299" y="236" type="curve"/>
      <point x="320" y="215"/>
      <point x="332" y="191"/>
      <point x="332" y="169" type="curve" smooth="yes"/>
      <point x="332" y="126"/>
      <point x="290" y="94"/>
      <point x="244" y="94" type="curve" smooth="yes"/>
      <point x="162" y="94"/>
      <point x="85" y="181"/>
      <point x="40" y="301" type="curve"/>
      <point x="15" y="292" type="line"/>
      <point x="74" y="132"/>
      <point x="183" y="20"/>
      <point x="288" y="20" type="curve" smooth="yes"/>
      <point x="348" y="20"/>
      <point x="396" y="64"/>
      <point x="396" y="117" type="curve" smooth="yes"/>
      <point x="396" y="134"/>
      <point x="391" y="153"/>
      <point x="382" y="171" type="curve"/>
      <point x="418" y="212"/>
      <point x="463" y="239"/>
      <point x="509" y="239" type="curve" smooth="yes"/>
      <point x="525" y="239"/>
      <point x="540" y="224"/>
      <point x="540" y="207" type="curve" smooth="yes"/>
      <point x="540" y="168"/>
      <point x="507" y="131"/>
      <point x="458" y="113" type="curve"/>
      <point x="511" y="50" type="line"/>
      <point x="557" y="63"/>
      <point x="592" y="106"/>
      <point x="592" y="154" type="curve" smooth="yes"/>
      <point x="592" y="218"/>
      <point x="519" y="300"/>
      <point x="461" y="300" type="curve" smooth="yes"/>
      <point x="417" y="300"/>
      <point x="372" y="275"/>
      <point x="337" y="234" type="curve"/>
      <point x="323" y="249" type="line"/>
      <point x="348" y="262"/>
      <point x="366" y="287"/>
      <point x="366" y="314" type="curve" smooth="yes"/>
      <point x="366" y="344"/>
      <point x="349" y="384"/>
      <point x="316" y="421" type="curve" smooth="yes"/>
      <point x="246" y="500" type="line"/>
      <point x="-10" y="500" type="line"/>
      <point x="-10" y="421" type="line"/>
    </contour>
    <contour>
      <point x="629" y="421" type="line"/>
      <point x="629" y="500" type="line"/>
      <point x="287" y="500" type="line"/>
      <point x="357" y="421" type="line"/>
    </contour>
    <contour>
      <point x="267" y="500" type="move" name="top"/>
    </contour>
    <contour>
      <point x="288" y="20" type="move" name="bottom"/>
    </contour>
  </outline>
</glyph>
<glyph name="lVocalic-deva" format="1">
  <advance width="603"/>
  <unicode hex="090C"/>
  <outline>
    <contour>
      <point x="354" y="421" type="line"/>
      <point x="354" y="356" type="line"/>
      <point x="323" y="352"/>
      <point x="291" y="322"/>
      <point x="274" y="279" type="curve"/>
      <point x="237" y="326"/>
      <point x="192" y="354"/>
      <point x="154" y="354" type="curve" smooth="yes"/>
      <point x="94" y="354"/>
      <point x="38" y="296"/>
      <point x="38" y="231" type="curve" smooth="yes"/>
      <point x="38" y="131"/>
      <point x="171" y="-18"/>
      <point x="279" y="-18" type="curve" smooth="yes"/>
      <point x="297" y="-18"/>
      <point x="315" y="-12"/>
      <point x="329" y="2" type="curve"/>
      <point x="277" y="67" type="line"/>
      <point x="261" y="51"/>
      <point x="241" y="44"/>
      <point x="219" y="44" type="curve" smooth="yes"/>
      <point x="173" y="44"/>
      <point x="106" y="117"/>
      <point x="106" y="166" type="curve" smooth="yes"/>
      <point x="106" y="231"/>
      <point x="150" y="288"/>
      <point x="205" y="288" type="curve" smooth="yes"/>
      <point x="225" y="288"/>
      <point x="246" y="273"/>
      <point x="261" y="250" type="curve"/>
      <point x="258" y="229"/>
      <point x="256" y="211"/>
      <point x="256" y="195" type="curve"/>
      <point x="341" y="162" type="line"/>
      <point x="341" y="268"/>
      <point x="389" y="307"/>
      <point x="438" y="307" type="curve" smooth="yes"/>
      <point x="474" y="307"/>
      <point x="504" y="273"/>
      <point x="504" y="235" type="curve" smooth="yes"/>
      <point x="504" y="136"/>
      <point x="363" y="137"/>
      <point x="363" y="52" type="curve" smooth="yes"/>
      <point x="363" y="-7"/>
      <point x="450" y="-84"/>
      <point x="534" y="-84" type="curve" smooth="yes"/>
      <point x="574" y="-84"/>
      <point x="611" y="-71"/>
      <point x="635" y="-47" type="curve"/>
      <point x="574" y="12" type="line"/>
      <point x="548" y="-17"/>
      <point x="515" y="-34"/>
      <point x="480" y="-34" type="curve" smooth="yes"/>
      <point x="448" y="-34"/>
      <point x="424" y="-18"/>
      <point x="424" y="7" type="curve" smooth="yes"/>
      <point x="424" y="71"/>
      <point x="568" y="78"/>
      <point x="568" y="188" type="curve" smooth="yes"/>
      <point x="568" y="253"/>
      <point x="516" y="317"/>
      <point x="439" y="345" type="curve"/>
      <point x="439" y="421" type="line"/>
      <point x="362" y="500" type="line"/>
      <point x="-10" y="500" type="line"/>
      <point x="-10" y="421" type="line"/>
    </contour>
    <contour>
      <point x="612" y="421" type="line"/>
      <point x="612" y="500" type="line"/>
      <point x="403" y="500" type="line"/>
      <point x="480" y="421" type="line"/>
    </contour>
    <contour>
      <point x="383" y="500" type="move" name="top"/>
    </contour>
    <contour>
      <point x="350" y="0" type="move" name="bottom"/>
    </contour>
  </outline>
</glyph>
<glyph name="eCandra-deva" format="1">
  <advance width="420"/>
  <unicode hex="090D"/>
  <outline>
    <component base="e-deva"/>
    <component base="eCandraMatra-deva" xOffset="400" yOffset="10"/>
    <contour>
      <point x="279" y="500" type="move" name="top"/>
    </contour>
  </outline>
</glyph>
<glyph name="eShort-deva" format="1">
  <advance width="420"/>
  <unicode hex="090E"/>
  <outline>
    <component base="e-deva"/>
    <component base="eShortMatra-deva" xOffset="400"/>
    <contour>
      <point x="278" y="500" type="move" name="top"/>
    </contour>
  </outline>
</glyph>
<glyph name="e-deva" format="1">
  <advance width="420"/>
  <unicode hex="090F"/>
  <outline>
    <contour>
      <point x="106" y="421" type="line"/>
      <point x="63" y="368"/>
      <point x="38" y="310"/>
      <point x="38" y="251" type="curve" smooth="yes"/>
      <point x="38" y="175"/>
      <point x="90" y="95"/>
      <point x="195" y="12" type="curve" smooth="yes"/>
      <point x="300" y="-71"/>
      <point x="399" y="-113"/>
      <point x="494" y="-113" type="curve" smooth="yes"/>
      <point x="519" y="-113"/>
      <point x="541" y="-107"/>
      <point x="558" y="-94" type="curve"/>
      <point x="492" y="-30" type="line"/>
      <point x="477" y="-44"/>
      <point x="453" y="-53"/>
      <point x="428" y="-53" type="curve" smooth="yes"/>
      <point x="294" y="-53"/>
      <point x="121" y="78"/>
      <point x="121" y="188" type="curve" smooth="yes"/>
      <point x="121" y="281"/>
      <point x="153" y="366"/>
      <point x="207" y="421" type="curve"/>
      <point x="282" y="421" type="line"/>
      <point x="307" y="388"/>
      <point x="321" y="353"/>
      <point x="321" y="330" type="curve" smooth="yes"/>
      <point x="321" y="277"/>
      <point x="281" y="233"/>
      <point x="231" y="233" type="curve" smooth="yes"/>
      <point x="217" y="233"/>
      <point x="202" y="241"/>
      <point x="192" y="256" type="curve"/>
      <point x="176" y="242" type="line"/>
      <point x="207" y="187"/>
      <point x="252" y="150"/>
      <point x="289" y="150" type="curve" smooth="yes"/>
      <point x="341" y="150"/>
      <point x="388" y="201"/>
      <point x="388" y="255" type="curve" smooth="yes"/>
      <point x="388" y="300"/>
      <point x="367" y="357"/>
      <point x="318" y="421" type="curve" smooth="yes"/>
      <point x="258" y="500" type="line"/>
      <point x="-10" y="500" type="line"/>
      <point x="-10" y="421" type="line"/>
    </contour>
    <contour>
      <point x="430" y="421" type="line"/>
      <point x="430" y="500" type="line"/>
      <point x="299" y="500" type="line"/>
      <point x="359" y="421" type="line"/>
    </contour>
    <contour>
      <point x="278" y="500" type="move" name="top"/>
    </contour>
  </outline>
</glyph>
<glyph name="kha-deva" format="1">
  <advance width="707"/>
  <unicode hex="0916"/>
  <outline>
    <contour>
      <point x="188" y="500" type="line"/>
      <point x="261" y="421" type="line"/>
      <point x="550" y="421" type="line"/>
      <point x="550" y="303" type="line"/>
      <point x="519" y="336"/>
      <point x="477" y="356"/>
      <point x="436" y="356" type="curve" smooth="yes"/>
      <point x="373" y="356"/>
      <point x="317" y="310"/>
      <point x="317" y="259" type="curve" smooth="yes"/>
      <point x="317" y="205"/>
      <point x="400" y="135"/>
      <point x="461" y="135" type="curve" smooth="yes"/>
      <point x="495" y="135"/>
      <point x="527" y="151"/>
      <point x="550" y="180" type="curve"/>
      <point x="550" y="135" type="line"/>
      <point x="501" y="77"/>
      <point x="435" y="44"/>
      <point x="373" y="44" type="curve" smooth="yes"/>
      <point x="311" y="44"/>
      <point x="232" y="84"/>
      <point x="154" y="158" type="curve"/>
      <point x="219" y="178"/>
      <point x="265" y="228"/>
      <point x="265" y="284" type="curve" smooth="yes"/>
      <point x="265" y="323"/>
      <point x="249" y="382"/>
      <point x="219" y="421" type="curve" smooth="yes"/>
      <point x="146" y="500" type="line"/>
      <point x="-10" y="500" type="line"/>
      <point x="-10" y="421" type="line"/>
      <point x="188" y="421" type="line"/>
      <point x="201" y="399"/>
      <point x="209" y="374"/>
      <point x="209" y="342" type="curve" smooth="yes"/>
      <point x="209" y="314"/>
      <point x="198" y="289"/>
      <point x="180" y="276" type="curve"/>
      <point x="151" y="318"/>
      <point x="118" y="344"/>
      <point x="92" y="344" type="curve" smooth="yes"/>
      <point x="56" y="344"/>
      <point x="25" y="318"/>
      <point x="25" y="285" type="curve" smooth="yes"/>
      <point x="25" y="240"/>
      <point x="83" y="173"/>
      <point x="183" y="99" type="curve" smooth="yes"/>
      <point x="279" y="28"/>
      <point x="362" y="-8"/>
      <point x="433" y="-8" type="curve" smooth="yes"/>
      <point x="484" y="-8"/>
      <point x="536" y="19"/>
      <point x="577" y="62" type="curve"/>
      <point x="656" y="-13"/>
      <point x="740" y="-55"/>
      <point x="804" y="-55" type="curve" smooth="yes"/>
      <point x="828" y="-55"/>
      <point x="850" y="-45"/>
      <point x="867" y="-26" type="curve"/>
      <point x="793" y="18" type="line"/>
      <point x="780" y="1"/>
      <point x="764" y="-7"/>
      <point x="749" y="-7" type="curve" smooth="yes"/>
      <point x="710" y="-7"/>
      <point x="635" y="41"/>
      <point x="635" y="70" type="curve" smooth="yes"/>
      <point x="635" y="421" type="line"/>
      <point x="557" y="500" type="line"/>
    </contour>
    <contour>
      <point x="140" y="281"/>
      <point x="151" y="273"/>
      <point x="162" y="256" type="curve"/>
      <point x="143" y="236"/>
      <point x="121" y="223"/>
      <point x="99" y="215" type="curve"/>
      <point x="90" y="223"/>
      <point x="84" y="232"/>
      <point x="84" y="241" type="curve" smooth="yes"/>
      <point x="84" y="262"/>
      <point x="111" y="281"/>
      <point x="133" y="281" type="curve" smooth="yes"/>
    </contour>
    <contour>
      <point x="510" y="301"/>
      <point x="532" y="289"/>
      <point x="547" y="270" type="curve"/>
      <point x="506" y="221"/>
      <point x="457" y="193"/>
      <point x="413" y="193" type="curve" smooth="yes"/>
      <point x="396" y="193"/>
      <point x="381" y="204"/>
      <point x="381" y="218" type="curve" smooth="yes"/>
      <point x="381" y="255"/>
      <point x="442" y="301"/>
      <point x="490" y="301" type="curve" smooth="yes"/>
    </contour>
    <contour>
      <point x="600" y="500" type="line"/>
      <point x="677" y="421" type="line"/>
      <point x="717" y="421" type="line"/>
      <point x="717" y="500" type="line"/>
    </contour>
    <contour>
      <point x="116" y="0" type="move" name="nukta"/>
    </contour>
    <contour>
      <point x="593" y="0" type="move" name="bottom"/>
    </contour>
    <contour>
      <point x="578" y="500" type="move" name="top"/>
    </contour>
  </outline>
</glyph>
<glyph name="ga-deva" format="1">
  <advance width="534"/>
  <unicode hex="0917"/>
  <outline>
    <contour>
      <point x="175" y="421" type="line"/>
      <point x="198" y="380"/>
      <point x="210" y="341"/>
      <point x="210" y="304" type="curve" smooth="yes"/>
      <point x="210" y="241"/>
      <point x="168" y="175"/>
      <point x="121" y="175" type="curve" smooth="yes"/>
      <point x="107" y="175"/>
      <point x="96" y="187"/>
      <point x="96" y="200" type="curve" smooth="yes"/>
      <point x="96" y="225"/>
      <point x="124" y="260"/>
      <point x="143" y="260" type="curve" smooth="yes"/>
      <point x="149" y="260"/>
      <point x="156" y="255"/>
      <point x="165" y="248" type="curve"/>
      <point x="178" y="263" type="line"/>
      <point x="156" y="294"/>
      <point x="126" y="313"/>
      <point x="99" y="313" type="curve" smooth="yes"/>
      <point x="60" y="313"/>
      <point x="25" y="278"/>
      <point x="25" y="239" type="curve" smooth="yes"/>
      <point x="25" y="185"/>
      <point x="101" y="125"/>
      <point x="175" y="125" type="curve" smooth="yes"/>
      <point x="226" y="125"/>
      <point x="271" y="178"/>
      <point x="271" y="237" type="curve" smooth="yes"/>
      <point x="271" y="290"/>
      <point x="251" y="352"/>
      <point x="211" y="421" type="curve"/>
      <point x="377" y="421" type="line"/>
      <point x="377" y="126" type="line" smooth="yes"/>
      <point x="377" y="55"/>
      <point x="548" y="-55"/>
      <point x="633" y="-55" type="curve" smooth="yes"/>
      <point x="658" y="-55"/>
      <point x="679" y="-44"/>
      <point x="694" y="-26" type="curve"/>
      <point x="620" y="19" type="line"/>
      <point x="605" y="2"/>
      <point x="590" y="-7"/>
      <point x="573" y="-7" type="curve" smooth="yes"/>
      <point x="535" y="-7"/>
      <point x="462" y="41"/>
      <point x="462" y="70" type="curve" smooth="yes"/>
      <point x="462" y="421" type="line"/>
      <point x="383" y="500" type="line"/>
      <point x="-10" y="500" type="line"/>
      <point x="-10" y="421" type="line"/>
    </contour>
    <contour>
      <point x="544" y="421" type="line"/>
      <point x="544" y="500" type="line"/>
      <point x="424" y="500" type="line"/>
      <point x="503" y="421" type="line"/>
    </contour>
    <contour>
      <point x="175" y="20" type="move" name="nukta"/>
    </contour>
    <contour>
      <point x="420" y="0" type="move" name="bottom"/>
    </contour>
    <contour>
      <point x="404" y="500" type="move" name="top"/>
    </contour>
  </outline>
</glyph>
<glyph name="ca-deva" format="1">
  <advance width="539"/>
  <unicode hex="091A"/>
  <outline>
    <contour>
      <point x="382" y="421" type="line"/>
      <point x="382" y="246" type="line"/>
      <point x="333" y="188"/>
      <point x="276" y="155"/>
      <point x="226" y="155" type="curve" smooth="yes"/>
      <point x="208" y="155"/>
      <point x="191" y="169"/>
      <point x="191" y="187" type="curve" smooth="yes"/>
      <point x="191" y="231"/>
      <point x="246" y="274"/>
      <point x="315" y="286" type="curve"/>
      <point x="264" y="350" type="line"/>
      <point x="9" y="350" type="line"/>
      <point x="59" y="284" type="line"/>
      <point x="161" y="284" type="line"/>
      <point x="136" y="268"/>
      <point x="120" y="243"/>
      <point x="120" y="221" type="curve" smooth="yes"/>
      <point x="120" y="175"/>
      <point x="214" y="99"/>
      <point x="286" y="99" type="curve" smooth="yes"/>
      <point x="321" y="99"/>
      <point x="357" y="116"/>
      <point x="385" y="143" type="curve"/>
      <point x="385" y="110" type="line" smooth="yes"/>
      <point x="385" y="57"/>
      <point x="548" y="-55"/>
      <point x="638" y="-55" type="curve" smooth="yes"/>
      <point x="661" y="-55"/>
      <point x="682" y="-44"/>
      <point x="698" y="-26" type="curve"/>
      <point x="624" y="18" type="line"/>
      <point x="611" y="1"/>
      <point x="596" y="-7"/>
      <point x="580" y="-7" type="curve" smooth="yes"/>
      <point x="542" y="-7"/>
      <point x="467" y="41"/>
      <point x="467" y="70" type="curve" smooth="yes"/>
      <point x="467" y="421" type="line"/>
      <point x="388" y="500" type="line"/>
      <point x="-10" y="500" type="line"/>
      <point x="-10" y="421" type="line"/>
    </contour>
    <contour>
      <point x="549" y="421" type="line"/>
      <point x="549" y="500" type="line"/>
      <point x="429" y="500" type="line"/>
      <point x="508" y="421" type="line"/>
    </contour>
    <contour>
      <point x="166" y="15" type="move" name="nukta"/>
    </contour>
    <contour>
      <point x="427" y="0" type="move" name="bottom"/>
    </contour>
    <contour>
      <point x="408" y="500" type="move" name="top"/>
    </contour>
  </outline>
</glyph>
<glyph name="jha-deva" format="1">
  <advance width="596"/>
  <unicode hex="091D"/>
  <outline>
    <contour>
      <point x="-10" y="500" type="line"/>
      <point x="-10" y="421" type="line"/>
      <point x="436" y="421" type="line"/>
      <point x="436" y="120" type="line" smooth="yes"/>
      <point x="436" y="51"/>
      <point x="616" y="-55"/>
      <point x="692" y="-55" type="curve" smooth="yes"/>
      <point x="716" y="-55"/>
      <point x="739" y="-42"/>
      <point x="753" y="-26" type="curve"/>
      <point x="679" y="18" type="line"/>
      <point x="668" y="2"/>
      <point x="652" y="-7"/>
      <point x="635" y="-7" type="curve" smooth="yes"/>
      <point x="597" y="-7"/>
      <point x="521" y="34"/>
      <point x="521" y="70" type="curve" smooth="yes"/>
      <point x="521" y="421" type="line"/>
      <point x="442" y="500" type="line"/>
    </contour>
    <contour>
      <point x="229" y="421" type="line"/>
      <point x="240" y="410"/>
      <point x="248" y="398"/>
      <point x="248" y="388" type="curve" smooth="yes"/>
      <point x="248" y="376"/>
      <point x="235" y="369"/>
      <point x="222" y="369" type="curve" smooth="yes"/>
      <point x="122" y="367" type="line" smooth="yes"/>
      <point x="77" y="366"/>
      <point x="31" y="329"/>
      <point x="31" y="288" type="curve" smooth="yes"/>
      <point x="31" y="241"/>
      <point x="117" y="163"/>
      <point x="179" y="163" type="curve" smooth="yes"/>
      <point x="226" y="163"/>
      <point x="249" y="209"/>
      <point x="270" y="209" type="curve" smooth="yes"/>
      <point x="284" y="209"/>
      <point x="297" y="196"/>
      <point x="297" y="178" type="curve" smooth="yes"/>
      <point x="297" y="138"/>
      <point x="222" y="90"/>
      <point x="169" y="90" type="curve"/>
      <point x="144" y="118"/>
      <point x="111" y="135"/>
      <point x="85" y="135" type="curve" smooth="yes"/>
      <point x="61" y="135"/>
      <point x="43" y="117"/>
      <point x="43" y="95" type="curve" smooth="yes"/>
      <point x="43" y="56"/>
      <point x="95" y="14"/>
      <point x="172" y="14" type="curve"/>
      <point x="236" y="-62"/>
      <point x="305" y="-106"/>
      <point x="363" y="-106" type="curve" smooth="yes"/>
      <point x="385" y="-106"/>
      <point x="406" y="-99"/>
      <point x="421" y="-83" type="curve"/>
      <point x="361" y="-22" type="line"/>
      <point x="350" y="-38"/>
      <point x="330" y="-47"/>
      <point x="312" y="-47" type="curve" smooth="yes"/>
      <point x="280" y="-47"/>
      <point x="239" y="-23"/>
      <point x="204" y="18" type="curve"/>
      <point x="285" y="32"/>
      <point x="345" y="82"/>
      <point x="345" y="135" type="curve" smooth="yes"/>
      <point x="345" y="152"/>
      <point x="338" y="171"/>
      <point x="327" y="190" type="curve"/>
      <point x="352" y="171"/>
      <point x="374" y="160"/>
      <point x="396" y="160" type="curve" smooth="yes"/>
      <point x="408" y="160"/>
      <point x="421" y="164"/>
      <point x="436" y="176" type="curve"/>
      <point x="436" y="258" type="line"/>
      <point x="412" y="232"/>
      <point x="380" y="217"/>
      <point x="347" y="217" type="curve" smooth="yes"/>
      <point x="309" y="217"/>
      <point x="267" y="261"/>
      <point x="229" y="261" type="curve" smooth="yes"/>
      <point x="193" y="261"/>
      <point x="158" y="213"/>
      <point x="132" y="213" type="curve" smooth="yes"/>
      <point x="115" y="213"/>
      <point x="100" y="226"/>
      <point x="100" y="243" type="curve" smooth="yes"/>
      <point x="100" y="273"/>
      <point x="133" y="302"/>
      <point x="169" y="303" type="curve" smooth="yes"/>
      <point x="260" y="306" type="line" smooth="yes"/>
      <point x="288" y="307"/>
      <point x="310" y="322"/>
      <point x="310" y="341" type="curve" smooth="yes"/>
      <point x="310" y="361"/>
      <point x="293" y="389"/>
      <point x="266" y="421" type="curve"/>
    </contour>
    <contour>
      <point x="483" y="500" type="line"/>
      <point x="562" y="421" type="line"/>
      <point x="606" y="421" type="line"/>
      <point x="606" y="500" type="line"/>
    </contour>
    <contour>
      <point x="103" y="-76" type="move" name="nukta"/>
    </contour>
    <contour>
      <point x="479" y="0" type="move" name="bottom"/>
    </contour>
    <contour>
      <point x="463" y="500" type="move" name="top"/>
    </contour>
  </outline>
</glyph>
<glyph name="dda-deva" format="1">
  <advance width="475"/>
  <unicode hex="0921"/>
  <outline>
    <contour>
      <point x="297" y="421" type="line"/>
      <point x="310" y="409"/>
      <point x="318" y="393"/>
      <point x="318" y="384" type="curve" smooth="yes"/>
      <point x="318" y="374"/>
      <point x="306" y="368"/>
      <point x="295" y="368" type="curve" smooth="yes"/>
      <point x="179" y="368" type="line" smooth="yes"/>
      <point x="133" y="368"/>
      <point x="91" y="336"/>
      <point x="91" y="293" type="curve" smooth="yes"/>
      <point x="91" y="234"/>
      <point x="189" y="150"/>
      <point x="263" y="150" type="curve" smooth="yes"/>
      <point x="306" y="150"/>
      <point x="336" y="191"/>
      <point x="358" y="191" type="curve" smooth="yes"/>
      <point x="375" y="191"/>
      <point x="387" y="177"/>
      <point x="387" y="160" type="curve" smooth="yes"/>
      <point x="387" y="111"/>
      <point x="312" y="63"/>
      <point x="244" y="63" type="curve" smooth="yes"/>
      <point x="164" y="63"/>
      <point x="83" y="135"/>
      <point x="43" y="227" type="curve"/>
      <point x="16" y="211" type="line"/>
      <point x="76" y="83"/>
      <point x="182" y="-1"/>
      <point x="299" y="-1" type="curve" smooth="yes"/>
      <point x="380" y="-1"/>
      <point x="451" y="47"/>
      <point x="451" y="111" type="curve" smooth="yes"/>
      <point x="451" y="168"/>
      <point x="376" y="246"/>
      <point x="313" y="246" type="curve" smooth="yes"/>
      <point x="274" y="246"/>
      <point x="244" y="204"/>
      <point x="206" y="204" type="curve" smooth="yes"/>
      <point x="182" y="204"/>
      <point x="163" y="220"/>
      <point x="163" y="239" type="curve" smooth="yes"/>
      <point x="163" y="272"/>
      <point x="195" y="300"/>
      <point x="234" y="300" type="curve" smooth="yes"/>
      <point x="316" y="300" type="line" smooth="yes"/>
      <point x="345" y="300"/>
      <point x="371" y="317"/>
      <point x="371" y="342" type="curve" smooth="yes"/>
      <point x="371" y="362"/>
      <point x="357" y="392"/>
      <point x="335" y="421" type="curve"/>
      <point x="268" y="500" type="line"/>
      <point x="-10" y="500" type="line"/>
      <point x="-10" y="421" type="line"/>
    </contour>
    <contour>
      <point x="485" y="421" type="line"/>
      <point x="485" y="500" type="line"/>
      <point x="310" y="500" type="line"/>
      <point x="377" y="421" type="line"/>
    </contour>
    <contour>
      <point x="269" y="-120" type="move" name="nukta"/>
    </contour>
    <contour>
      <point x="271" y="0" type="move" name="bottom"/>
    </contour>
    <contour>
      <point x="289" y="500" type="move" name="top"/>
    </contour>
  </outline>
</glyph>
<glyph name="ta-deva" format="1">
  <advance width="503"/>
  <unicode hex="0924"/>
  <outline>
    <contour>
      <point x="346" y="421" type="line"/>
      <point x="346" y="291" type="line"/>
      <point x="291" y="331"/>
      <point x="236" y="352"/>
      <point x="187" y="352" type="curve" smooth="yes"/>
      <point x="107" y="352"/>
      <point x="39" y="292"/>
      <point x="39" y="214" type="curve" smooth="yes"/>
      <point x="39" y="107"/>
      <point x="152" y="-35"/>
      <point x="258" y="-35" type="curve" smooth="yes"/>
      <point x="281" y="-35"/>
      <point x="302" y="-29"/>
      <point x="312" y="-18" type="curve"/>
      <point x="251" y="39" type="line"/>
      <point x="241" y="26"/>
      <point x="226" y="21"/>
      <point x="212" y="21" type="curve" smooth="yes"/>
      <point x="165" y="21"/>
      <point x="108" y="91"/>
      <point x="108" y="145" type="curve" smooth="yes"/>
      <point x="108" y="223"/>
      <point x="177" y="283"/>
      <point x="261" y="283" type="curve" smooth="yes"/>
      <point x="289" y="283"/>
      <point x="320" y="271"/>
      <point x="346" y="250" type="curve"/>
      <point x="346" y="126" type="line" smooth="yes"/>
      <point x="346" y="60"/>
      <point x="516" y="-55"/>
      <point x="602" y="-55" type="curve" smooth="yes"/>
      <point x="627" y="-55"/>
      <point x="648" y="-44"/>
      <point x="663" y="-26" type="curve"/>
      <point x="589" y="19" type="line"/>
      <point x="576" y="2"/>
      <point x="560" y="-7"/>
      <point x="542" y="-7" type="curve" smooth="yes"/>
      <point x="504" y="-7"/>
      <point x="431" y="41"/>
      <point x="431" y="70" type="curve" smooth="yes"/>
      <point x="431" y="421" type="line"/>
      <point x="352" y="500" type="line"/>
      <point x="-10" y="500" type="line"/>
      <point x="-10" y="421" type="line"/>
    </contour>
    <contour>
      <point x="514" y="421" type="line"/>
      <point x="514" y="500" type="line"/>
      <point x="394" y="500" type="line"/>
      <point x="473" y="421" type="line"/>
    </contour>
    <contour>
      <point x="70" y="-30" type="move" name="nukta"/>
    </contour>
    <contour>
      <point x="389" y="0" type="move" name="bottom"/>
    </contour>
    <contour>
      <point x="373" y="500" type="move" name="top"/>
    </contour>
  </outline>
</glyph>
<glyph name="da-deva" format="1">
  <advance width="416"/>
  <unicode hex="0926"/>
  <outline>
    <contour>
      <point x="269" y="421" type="line"/>
      <point x="283" y="409"/>
      <point x="291" y="392"/>
      <point x="291" y="382" type="curve" smooth="yes"/>
      <point x="291" y="366"/>
      <point x="280" y="356"/>
      <point x="260" y="352" type="curve" smooth="yes"/>
      <point x="132" y="330" type="line" smooth="yes"/>
      <point x="75" y="320"/>
      <point x="32" y="280"/>
      <point x="32" y="240" type="curve" smooth="yes"/>
      <point x="32" y="141"/>
      <point x="132" y="46"/>
      <point x="246" y="46" type="curve" smooth="yes"/>
      <point x="266" y="46"/>
      <point x="282" y="49"/>
      <point x="295" y="53" type="curve"/>
      <point x="348" y="-27"/>
      <point x="408" y="-78"/>
      <point x="452" y="-78" type="curve" smooth="yes"/>
      <point x="475" y="-78"/>
      <point x="496" y="-70"/>
      <point x="510" y="-55" type="curve"/>
      <point x="443" y="3" type="line"/>
      <point x="430" y="-9"/>
      <point x="418" y="-16"/>
      <point x="407" y="-16" type="curve" smooth="yes"/>
      <point x="383" y="-16"/>
      <point x="351" y="16"/>
      <point x="325" y="62" type="curve"/>
      <point x="360" y="78"/>
      <point x="383" y="106"/>
      <point x="383" y="133" type="curve" smooth="yes"/>
      <point x="383" y="177"/>
      <point x="342" y="214"/>
      <point x="292" y="214" type="curve" smooth="yes"/>
      <point x="269" y="214"/>
      <point x="251" y="196"/>
      <point x="251" y="177" type="curve" smooth="yes"/>
      <point x="251" y="160"/>
      <point x="256" y="145"/>
      <point x="264" y="132" type="curve"/>
      <point x="238" y="117"/>
      <point x="209" y="109"/>
      <point x="177" y="109" type="curve" smooth="yes"/>
      <point x="131" y="109"/>
      <point x="93" y="140"/>
      <point x="93" y="180" type="curve" smooth="yes"/>
      <point x="93" y="213"/>
      <point x="127" y="243"/>
      <point x="174" y="253" type="curve" smooth="yes"/>
      <point x="286" y="275" type="line" smooth="yes"/>
      <point x="324" y="283"/>
      <point x="347" y="307"/>
      <point x="347" y="339" type="curve"/>
      <point x="347" y="364"/>
      <point x="335" y="395"/>
      <point x="310" y="421" type="curve" smooth="yes"/>
      <point x="238" y="500" type="line"/>
      <point x="-10" y="500" type="line"/>
      <point x="-10" y="421" type="line"/>
    </contour>
    <contour>
      <point x="425" y="421" type="line"/>
      <point x="425" y="500" type="line"/>
      <point x="279" y="500" type="line"/>
      <point x="351" y="421" type="line"/>
    </contour>
    <contour>
      <point x="112" y="-20" type="move" name="nukta"/>
    </contour>
    <contour>
      <point x="384" y="-39" type="move" name="bottom"/>
    </contour>
    <contour>
      <point x="259" y="500" type="move" name="top"/>
    </contour>
  </outline>
</glyph>
<glyph name="dha-deva" format="1">
  <advance width="511"/>
  <unicode hex="0927"/>
  <outline>
    <contour>
      <point x="22" y="404"/>
      <point x="51" y="359"/>
      <point x="103" y="322" type="curve"/>
      <point x="68" y="307"/>
      <point x="45" y="279"/>
      <point x="45" y="249" type="curve" smooth="yes"/>
      <point x="45" y="182"/>
      <point x="132" y="107"/>
      <point x="229" y="107" type="curve" smooth="yes"/>
      <point x="272" y="107"/>
      <point x="319" y="129"/>
      <point x="353" y="167" type="curve"/>
      <point x="353" y="120" type="line" smooth="yes"/>
      <point x="353" y="60"/>
      <point x="519" y="-55"/>
      <point x="610" y="-55" type="curve" smooth="yes"/>
      <point x="632" y="-55"/>
      <point x="654" y="-44"/>
      <point x="670" y="-26" type="curve"/>
      <point x="596" y="18" type="line"/>
      <point x="585" y="1"/>
      <point x="568" y="-7"/>
      <point x="552" y="-7" type="curve" smooth="yes"/>
      <point x="513" y="-7"/>
      <point x="438" y="41"/>
      <point x="438" y="70" type="curve" smooth="yes"/>
      <point x="438" y="421" type="line"/>
      <point x="359" y="500" type="line"/>
      <point x="252" y="500" type="line"/>
      <point x="313" y="421" type="line"/>
      <point x="353" y="421" type="line"/>
      <point x="353" y="286" type="line"/>
      <point x="307" y="211"/>
      <point x="231" y="161"/>
      <point x="159" y="161" type="curve" smooth="yes"/>
      <point x="135" y="161"/>
      <point x="114" y="174"/>
      <point x="114" y="193" type="curve" smooth="yes"/>
      <point x="114" y="238"/>
      <point x="172" y="275"/>
      <point x="245" y="275" type="curve"/>
      <point x="200" y="346" type="line"/>
      <point x="182" y="346"/>
      <point x="159" y="342"/>
      <point x="131" y="333" type="curve"/>
      <point x="108" y="348"/>
      <point x="93" y="371"/>
      <point x="93" y="392" type="curve" smooth="yes"/>
      <point x="93" y="404"/>
      <point x="96" y="411"/>
      <point x="98" y="416" type="curve"/>
      <point x="122" y="394"/>
      <point x="151" y="382"/>
      <point x="179" y="382" type="curve" smooth="yes"/>
      <point x="214" y="382"/>
      <point x="244" y="407"/>
      <point x="244" y="440" type="curve" smooth="yes"/>
      <point x="244" y="489"/>
      <point x="183" y="537"/>
      <point x="117" y="537" type="curve" smooth="yes"/>
      <point x="66" y="537"/>
      <point x="22" y="494"/>
      <point x="22" y="443" type="curve" smooth="yes"/>
    </contour>
    <contour>
      <point x="521" y="421" type="line"/>
      <point x="521" y="500" type="line"/>
      <point x="401" y="500" type="line"/>
      <point x="480" y="421" type="line"/>
    </contour>
    <contour>
      <point x="115" y="447"/>
      <point x="122" y="458"/>
      <point x="130" y="461" type="curve" smooth="yes"/>
      <point x="142" y="477"/>
      <point x="157" y="484"/>
      <point x="168" y="478" type="curve" smooth="yes"/>
      <point x="171" y="469"/>
      <point x="167" y="456"/>
      <point x="158" y="452" type="curve" smooth="yes"/>
      <point x="151" y="440"/>
      <point x="131" y="429"/>
      <point x="115" y="436" type="curve"/>
    </contour>
    <contour>
      <point x="89" y="40" type="move" name="nukta"/>
    </contour>
    <contour>
      <point x="396" y="0" type="move" name="bottom"/>
    </contour>
    <contour>
      <point x="380" y="500" type="move" name="top"/>
    </contour>
  </outline>
</glyph>
<glyph name="pha-deva" format="1">
  <advance width="578"/>
  <unicode hex="092B"/>
  <outline>
    <contour>
      <point x="-10" y="500" type="line"/>
      <point x="-10" y="421" type="line"/>
      <point x="33" y="421" type="line"/>
      <point x="33" y="286" type="line" smooth="yes"/>
      <point x="33" y="237"/>
      <point x="131" y="146"/>
      <point x="197" y="146" type="curve" smooth="yes"/>
      <point x="217" y="146"/>
      <point x="238" y="156"/>
      <point x="255" y="173" type="curve"/>
      <point x="255" y="120" type="line" smooth="yes"/>
      <point x="255" y="60"/>
      <point x="421" y="-55"/>
      <point x="511" y="-55" type="curve" smooth="yes"/>
      <point x="534" y="-55"/>
      <point x="556" y="-44"/>
      <point x="572" y="-26" type="curve"/>
      <point x="498" y="18" type="line"/>
      <point x="487" y="1"/>
      <point x="470" y="-7"/>
      <point x="454" y="-7" type="curve" smooth="yes"/>
      <point x="415" y="-7"/>
      <point x="340" y="41"/>
      <point x="340" y="70" type="curve" smooth="yes"/>
      <point x="340" y="218" type="line"/>
      <point x="387" y="270"/>
      <point x="434" y="303"/>
      <point x="467" y="303" type="curve" smooth="yes"/>
      <point x="482" y="303"/>
      <point x="495" y="290"/>
      <point x="495" y="273" type="curve" smooth="yes"/>
      <point x="495" y="230"/>
      <point x="448" y="188"/>
      <point x="384" y="170" type="curve"/>
      <point x="441" y="107" type="line"/>
      <point x="505" y="122"/>
      <point x="555" y="171"/>
      <point x="555" y="226" type="curve" smooth="yes"/>
      <point x="555" y="288"/>
      <point x="476" y="362"/>
      <point x="416" y="362" type="curve" smooth="yes"/>
      <point x="390" y="362"/>
      <point x="362" y="347"/>
      <point x="340" y="323" type="curve"/>
      <point x="340" y="421" type="line"/>
      <point x="262" y="500" type="line"/>
    </contour>
    <contour>
      <point x="255" y="273" type="line"/>
      <point x="220" y="229"/>
      <point x="181" y="204"/>
      <point x="149" y="204" type="curve" smooth="yes"/>
      <point x="134" y="204"/>
      <point x="118" y="220"/>
      <point x="118" y="237" type="curve" smooth="yes"/>
      <point x="118" y="421" type="line"/>
      <point x="255" y="421" type="line"/>
    </contour>
    <contour>
      <point x="303" y="500" type="line"/>
      <point x="382" y="421" type="line"/>
      <point x="587" y="421" type="line"/>
      <point x="587" y="500" type="line"/>
    </contour>
    <contour>
      <point x="115" y="34" type="move" name="nukta"/>
    </contour>
    <contour>
      <point x="298" y="0" type="move" name="bottom"/>
    </contour>
    <contour>
      <point x="282" y="500" type="move" name="top"/>
    </contour>
  </outline>
</glyph>
<glyph name="ba-deva" format="1">
  <advance width="449"/>
  <unicode hex="092C"/>
  <outline>
    <contour>
      <point x="114" y="310" type="line"/>
      <point x="239" y="173" type="line"/>
      <point x="267" y="189" type="line"/>
      <point x="142" y="327" type="line"/>
    </contour>
    <component base="va-deva"/>
    <contour>
      <point x="106" y="34" type="move" name="nukta"/>
    </contour>
    <contour>
      <point x="334" y="0" type="move" name="bottom"/>
    </contour>
    <contour>
      <point x="319" y="500" type="move" name="top"/>
    </contour>
  </outline>
</glyph>
<glyph name="ma-deva" format="1">
  <advance width="470"/>
  <unicode hex="092E"/>
  <outline>
    <contour>
      <point x="-10" y="500" type="line"/>
      <point x="-10" y="421" type="line"/>
      <point x="89" y="421" type="line"/>
      <point x="89" y="282" type="line"/>
      <point x="39" y="282" type="line" smooth="yes"/>
      <point x="27" y="282"/>
      <point x="16" y="274"/>
      <point x="16" y="264" type="curve" smooth="yes"/>
      <point x="16" y="230"/>
      <point x="122" y="132"/>
      <point x="156" y="132" type="curve" smooth="yes"/>
      <point x="166" y="132"/>
      <point x="174" y="140"/>
      <point x="174" y="150" type="curve" smooth="yes"/>
      <point x="174" y="206" type="line"/>
      <point x="313" y="206" type="line"/>
      <point x="313" y="120" type="line" smooth="yes"/>
      <point x="313" y="60"/>
      <point x="479" y="-55"/>
      <point x="569" y="-55" type="curve" smooth="yes"/>
      <point x="592" y="-55"/>
      <point x="613" y="-44"/>
      <point x="629" y="-26" type="curve"/>
      <point x="555" y="18" type="line"/>
      <point x="544" y="2"/>
      <point x="529" y="-7"/>
      <point x="511" y="-7" type="curve" smooth="yes"/>
      <point x="473" y="-7"/>
      <point x="398" y="41"/>
      <point x="398" y="70" type="curve" smooth="yes"/>
      <point x="398" y="421" type="line"/>
      <point x="319" y="500" type="line"/>
    </contour>
    <contour>
      <point x="312" y="282" type="line"/>
      <point x="174" y="282" type="line"/>
      <point x="174" y="421" type="line"/>
      <point x="312" y="421" type="line"/>
    </contour>
    <contour>
      <point x="360" y="500" type="line"/>
      <point x="439" y="421" type="line"/>
      <point x="480" y="421" type="line"/>
      <point x="480" y="500" type="line"/>
    </contour>
    <contour>
      <point x="132" y="14" type="move" name="nukta"/>
    </contour>
    <contour>
      <point x="345" y="0" type="move" name="bottom"/>
    </contour>
    <contour>
      <point x="339" y="500" type="move" name="top"/>
    </contour>
  </outline>
</glyph>
<glyph name="rra-deva" format="1">
  <advance width="330"/>
  <unicode hex="0931"/>
  <outline>
    <contour>
      <point x="-10" y="500" type="line"/>
      <point x="-10" y="421" type="line"/>
      <point x="184" y="421" type="line"/>
      <point x="210" y="404"/>
      <point x="231" y="361"/>
      <point x="231" y="331" type="curve" smooth="yes"/>
      <point x="231" y="305"/>
      <point x="215" y="282"/>
      <point x="193" y="269" type="curve"/>
      <point x="171" y="321"/>
      <point x="132" y="358"/>
      <point x="93" y="358" type="curve" smooth="yes"/>
      <point x="57" y="358"/>
      <point x="26" y="332"/>
      <point x="26" y="300" type="curve" smooth="yes"/>
      <point x="26" y="251"/>
      <point x="112" y="158"/>
      <point x="189" y="86" type="curve" smooth="yes"/>
      <point x="286" y="-6"/>
      <point x="368" y="-57"/>
      <point x="422" y="-57" type="curve" smooth="yes"/>
      <point x="446" y="-57"/>
      <point x="468" y="-45"/>
      <point x="482" y="-29" type="curve"/>
      <point x="412" y="25" type="line"/>
      <point x="404" y="9"/>
      <point x="385" y="-1"/>
      <point x="366" y="-1" type="curve" smooth="yes"/>
      <point x="318" y="-1"/>
      <point x="241" y="59"/>
      <point x="145" y="169" type="curve"/>
      <point x="213" y="162"/>
      <point x="295" y="209"/>
      <point x="295" y="280" type="curve" smooth="yes"/>
      <point x="295" y="317"/>
      <point x="272" y="367"/>
      <point x="227" y="421" type="curve" smooth="yes"/>
      <point x="162" y="500" type="line"/>
    </contour>
    <contour>
      <point x="146" y="290"/>
      <point x="163" y="276"/>
      <point x="171" y="257" type="curve"/>
      <point x="147" y="243"/>
      <point x="124" y="237"/>
      <point x="102" y="237" type="curve" smooth="yes"/>
      <point x="92" y="237"/>
      <point x="84" y="247"/>
      <point x="84" y="258" type="curve" smooth="yes"/>
      <point x="84" y="274"/>
      <point x="105" y="290"/>
      <point x="129" y="290" type="curve" smooth="yes"/>
    </contour>
    <contour>
      <point x="204" y="500" type="line"/>
      <point x="269" y="421" type="line"/>
      <point x="340" y="421" type="line"/>
      <point x="340" y="500" type="line"/>
    </contour>
    <component base="nukta-deva" xOffset="219" yOffset="35"/>
    <contour>
      <point x="183" y="500" type="move" name="top"/>
    </contour>
    <contour>
      <point x="212" y="0" type="move" name="bottom"/>
    </contour>
  </outline>
</glyph>
<glyph name="sha-deva" format="1">
  <advance width="567"/>
  <unicode hex="0936"/>
  <outline>
    <contour>
      <point x="270" y="500" type="line"/>
      <point x="329" y="421" type="line"/>
      <point x="410" y="421" type="line"/>
      <point x="410" y="120" type="line" smooth="yes"/>
      <point x="410" y="60"/>
      <point x="576" y="-55"/>
      <point x="666" y="-55" type="curve" smooth="yes"/>
      <point x="689" y="-55"/>
      <point x="711" y="-44"/>
      <point x="727" y="-26" type="curve"/>
      <point x="653" y="18" type="line"/>
      <point x="641" y="1"/>
      <point x="625" y="-7"/>
      <point x="609" y="-7" type="curve" smooth="yes"/>
      <point x="570" y="-7"/>
      <point x="495" y="41"/>
      <point x="495" y="70" type="curve" smooth="yes"/>
      <point x="495" y="421" type="line"/>
      <point x="422" y="500" type="line"/>
    </contour>
    <contour>
      <point x="82" y="519"/>
      <point x="33" y="469"/>
      <point x="33" y="413" type="curve" smooth="yes"/>
      <point x="33" y="353"/>
      <point x="110" y="283"/>
      <point x="168" y="283" type="curve" smooth="yes"/>
      <point x="186" y="283"/>
      <point x="206" y="294"/>
      <point x="219" y="313" type="curve"/>
      <point x="222" y="311" type="line"/>
      <point x="212" y="260"/>
      <point x="183" y="219"/>
      <point x="149" y="202" type="curve"/>
      <point x="127" y="229"/>
      <point x="100" y="245"/>
      <point x="80" y="245" type="curve" smooth="yes"/>
      <point x="58" y="245"/>
      <point x="39" y="228"/>
      <point x="39" y="205" type="curve" smooth="yes"/>
      <point x="39" y="154"/>
      <point x="88" y="110"/>
      <point x="136" y="110" type="curve" smooth="yes"/>
      <point x="147" y="110"/>
      <point x="158" y="112"/>
      <point x="166" y="116" type="curve"/>
      <point x="245" y="23" type="line" smooth="yes"/>
      <point x="289" y="-30"/>
      <point x="333" y="-58"/>
      <point x="371" y="-58" type="curve" smooth="yes"/>
      <point x="389" y="-58"/>
      <point x="409" y="-52"/>
      <point x="423" y="-38" type="curve"/>
      <point x="364" y="25" type="line"/>
      <point x="353" y="14"/>
      <point x="342" y="7"/>
      <point x="328" y="7" type="curve" smooth="yes"/>
      <point x="309" y="7"/>
      <point x="278" y="24"/>
      <point x="247" y="61" type="curve" smooth="yes"/>
      <point x="192" y="129" type="line"/>
      <point x="258" y="166"/>
      <point x="302" y="240"/>
      <point x="302" y="318" type="curve" smooth="yes"/>
      <point x="302" y="415"/>
      <point x="218" y="519"/>
      <point x="137" y="519" type="curve" smooth="yes"/>
    </contour>
    <contour>
      <point x="204" y="461"/>
      <point x="217" y="441"/>
      <point x="217" y="427" type="curve" smooth="yes"/>
      <point x="217" y="383"/>
      <point x="171" y="333"/>
      <point x="129" y="333" type="curve" smooth="yes"/>
      <point x="116" y="333"/>
      <point x="99" y="350"/>
      <point x="99" y="364" type="curve" smooth="yes"/>
      <point x="99" y="408"/>
      <point x="144" y="461"/>
      <point x="190" y="461" type="curve" smooth="yes"/>
    </contour>
    <contour>
      <point x="464" y="500" type="line"/>
      <point x="537" y="421" type="line"/>
      <point x="578" y="421" type="line"/>
      <point x="578" y="500" type="line"/>
    </contour>
    <contour>
      <point x="106" y="12" type="move" name="nukta"/>
    </contour>
    <contour>
      <point x="462" y="0" type="move" name="bottom"/>
    </contour>
    <contour>
      <point x="443" y="500" type="move" name="top"/>
    </contour>
  </outline>
</glyph>
<glyph name="ssa-deva" format="1">
  <advance width="448"/>
  <unicode hex="0937"/>
  <outline>
    <contour>
      <point x="177" y="336" type="line"/>
      <point x="305" y="233" type="line"/>
      <point x="231" y="344" type="line"/>
      <point x="120" y="431" type="line"/>
    </contour>
    <component base="pa-deva"/>
    <contour>
      <point x="94" y="43" type="move" name="nukta"/>
    </contour>
    <contour>
      <point x="333" y="0" type="move" name="bottom"/>
    </contour>
    <contour>
      <point x="317" y="500" type="move" name="top"/>
    </contour>
  </outline>
</glyph>
<glyph name="avagraha-deva" format="1">
  <advance width="426"/>
  <unicode hex="093D"/>
  <outline>
    <contour>
      <point x="137" y="492" type="line" smooth="yes"/>
      <point x="91" y="492"/>
      <point x="53" y="455"/>
      <point x="53" y="410" type="curve" smooth="yes"/>
      <point x="53" y="371"/>
      <point x="88" y="324"/>
      <point x="147" y="286" type="curve" smooth="yes"/>
      <point x="262" y="215" type="line" smooth="yes"/>
      <point x="302" y="190"/>
      <point x="325" y="159"/>
      <point x="325" y="135" type="curve" smooth="yes"/>
      <point x="325" y="97"/>
      <point x="284" y="66"/>
      <point x="234" y="66" type="curve" smooth="yes"/>
      <point x="157" y="66"/>
      <point x="85" y="103"/>
      <point x="37" y="165" type="curve"/>
      <point x="16" y="144" type="line"/>
      <point x="101" y="41"/>
      <point x="197" y="-3"/>
      <point x="281" y="-3" type="curve" smooth="yes"/>
      <point x="346" y="-3"/>
      <point x="399" y="42"/>
      <point x="399" y="96" type="curve" smooth="yes"/>
      <point x="399" y="136"/>
      <point x="364" y="183"/>
      <point x="308" y="218" type="curve" smooth="yes"/>
      <point x="166" y="306" type="line" smooth="yes"/>
      <point x="140" y="323"/>
      <point x="125" y="346"/>
      <point x="125" y="366" type="curve" smooth="yes"/>
      <point x="125" y="396"/>
      <point x="151" y="418"/>
      <point x="184" y="418" type="curve" smooth="yes"/>
      <point x="270" y="418" type="line" smooth="yes"/>
      <point x="302" y="418"/>
      <point x="332" y="405"/>
      <point x="350" y="381" type="curve"/>
      <point x="368" y="396" type="line"/>
      <point x="338" y="444"/>
      <point x="300" y="492"/>
      <point x="271" y="492" type="curve" smooth="yes"/>
    </contour>
  </outline>
</glyph>
<glyph name="iMatra-deva" format="1">
  <advance width="227"/>
  <unicode hex="093F"/>
  <outline>
    <contour>
      <point x="-7" y="588"/>
      <point x="26" y="539"/>
      <point x="81" y="500" type="curve"/>
      <point x="112" y="500" type="line"/>
      <point x="83" y="528"/>
      <point x="67" y="559"/>
      <point x="67" y="584" type="curve" smooth="yes"/>
      <point x="67" y="630"/>
      <point x="116" y="671"/>
      <point x="191" y="671" type="curve" smooth="yes"/>
      <point x="377" y="671"/>
      <point x="419" y="506"/>
      <point x="509" y="506" type="curve" smooth="yes"/>
      <point x="530" y="506"/>
      <point x="553" y="519"/>
      <point x="571" y="541" type="curve"/>
      <point x="506" y="590" type="line"/>
      <point x="500" y="580"/>
      <point x="488" y="572"/>
      <point x="476" y="572" type="curve" smooth="yes"/>
      <point x="418" y="572"/>
      <point x="334" y="740"/>
      <point x="129" y="740" type="curve" smooth="yes"/>
      <point x="53" y="740"/>
      <point x="-7" y="691"/>
      <point x="-7" y="634" type="curve" smooth="yes"/>
    </contour>
    <contour>
      <point x="70" y="421" type="line"/>
      <point x="70" y="126" type="line" smooth="yes"/>
      <point x="70" y="61"/>
      <point x="235" y="-55"/>
      <point x="326" y="-55" type="curve" smooth="yes"/>
      <point x="351" y="-55"/>
      <point x="372" y="-44"/>
      <point x="386" y="-26" type="curve"/>
      <point x="312" y="19" type="line"/>
      <point x="299" y="2"/>
      <point x="283" y="-7"/>
      <point x="266" y="-7" type="curve" smooth="yes"/>
      <point x="227" y="-7"/>
      <point x="155" y="41"/>
      <point x="155" y="70" type="curve" smooth="yes"/>
      <point x="155" y="421" type="line"/>
      <point x="76" y="500" type="line"/>
      <point x="-10" y="500" type="line"/>
      <point x="-10" y="421" type="line"/>
    </contour>
    <contour>
      <point x="237" y="421" type="line"/>
      <point x="237" y="500" type="line"/>
      <point x="117" y="500" type="line"/>
      <point x="196" y="421" type="line"/>
    </contour>
    <contour>
      <point x="463" y="500" type="move" name="iimatra"/>
    </contour>
    <contour>
      <point x="509" y="500" type="move" name="top"/>
    </contour>
  </outline>
</glyph>
<glyph name="uMatra-deva" format="1">
  <advance width="0"/>
  <unicode hex="0941"/>
  <outline>
    <contour>
      <point x="-399" y="-171" type="line"/>
      <point x="-311" y="-256"/>
      <point x="-206" y="-305"/>
      <point x="-87" y="-305" type="curve" smooth="yes"/>
      <point x="-11" y="-305"/>
      <point x="62" y="-254"/>
      <point x="62" y="-195" type="curve" smooth="yes"/>
      <point x="62" y="-130"/>
      <point x="-37" y="-50"/>
      <point x="-122" y="-50" type="curve" smooth="yes"/>
      <point x="-177" y="-50"/>
      <point x="-227" y="-86"/>
      <point x="-227" y="-127" type="curve" smooth="yes"/>
      <point x="-227" y="-164"/>
      <point x="-158" y="-206"/>
      <point x="-102" y="-206" type="curve" smooth="yes"/>
      <point x="-81" y="-206"/>
      <point x="-59" y="-194"/>
      <point x="-42" y="-173" type="curve"/>
      <point x="-90" y="-145" type="line"/>
      <point x="-105" y="-163"/>
      <point x="-119" y="-175"/>
      <point x="-129" y="-175" type="curve" smooth="yes"/>
      <point x="-141" y="-175"/>
      <point x="-150" y="-167"/>
      <point x="-150" y="-156" type="curve" smooth="yes"/>
      <point x="-150" y="-133"/>
      <point x="-108" y="-106"/>
      <point x="-72" y="-106" type="curve" smooth="yes"/>
      <point x="-41" y="-106"/>
      <point x="-14" y="-128"/>
      <point x="-14" y="-158" type="curve" smooth="yes"/>
      <point x="-14" y="-205"/>
      <point x="-82" y="-256"/>
      <point x="-149" y="-256" type="curve" smooth="yes"/>
      <point x="-232" y="-256"/>
      <point x="-314" y="-212"/>
      <point x="-375" y="-147" type="curve"/>
    </contour>
    <contour>
      <point x="-122" y="0" type="move" name="_bottom"/>
    </contour>
  </outline>
</glyph>
<glyph name="uuMatra-deva" format="1">
  <advance width="0"/>
  <unicode hex="0942"/>
  <outline>
    <contour>
      <point x="-243" y="-204"/>
      <point x="-156" y="-268"/>
      <point x="-88" y="-268" type="curve" smooth="yes"/>
      <point x="-51" y="-268"/>
      <point x="-12" y="-237"/>
      <point x="-12" y="-203" type="curve" smooth="yes"/>
      <point x="-12" y="-179"/>
      <point x="-42" y="-147"/>
      <point x="-89" y="-126" type="curve"/>
      <point x="-104" y="-140" type="line"/>
      <point x="-90" y="-150"/>
      <point x="-82" y="-161"/>
      <point x="-82" y="-170" type="curve" smooth="yes"/>
      <point x="-82" y="-191"/>
      <point x="-116" y="-216"/>
      <point x="-140" y="-216" type="curve" smooth="yes"/>
      <point x="-156" y="-216"/>
      <point x="-170" y="-205"/>
      <point x="-170" y="-189" type="curve" smooth="yes"/>
      <point x="-170" y="-151"/>
      <point x="-116" y="-110"/>
      <point x="-72" y="-110" type="curve" smooth="yes"/>
      <point x="-47" y="-110"/>
      <point x="-19" y="-126"/>
      <point x="7" y="-153" type="curve" smooth="yes"/>
      <point x="112" y="-262" type="line" smooth="yes"/>
      <point x="143" y="-295"/>
      <point x="179" y="-314"/>
      <point x="209" y="-314" type="curve" smooth="yes"/>
      <point x="235" y="-314"/>
      <point x="263" y="-301"/>
      <point x="278" y="-278" type="curve"/>
      <point x="212" y="-220" type="line"/>
      <point x="199" y="-240"/>
      <point x="183" y="-251"/>
      <point x="164" y="-251" type="curve" smooth="yes"/>
      <point x="147" y="-251"/>
      <point x="129" y="-238"/>
      <point x="112" y="-220" type="curve" smooth="yes"/>
      <point x="11" y="-114" type="line" smooth="yes"/>
      <point x="-27" y="-74"/>
      <point x="-70" y="-50"/>
      <point x="-122" y="-50" type="curve" smooth="yes"/>
      <point x="-181" y="-50"/>
      <point x="-243" y="-99"/>
      <point x="-243" y="-151" type="curve" smooth="yes"/>
    </contour>
    <contour>
      <point x="-122" y="0" type="move" name="_bottom"/>
    </contour>
  </outline>
</glyph>
<glyph name="rrVocalicMatra-deva" format="1">
  <advance width="0"/>
  <unicode hex="0944"/>
  <outline>
    <contour>
      <point x="-236" y="-83"/>
      <point x="-192" y="-128"/>
      <point x="-138" y="-128" type="curve"/>
      <point x="-156" y="-139"/>
      <point x="-169" y="-154"/>
      <point x="-169" y="-169" type="curve" smooth="yes"/>
      <point x="-169" y="-208"/>
      <point x="-76" y="-255"/>
      <point x="-6" y="-255" type="curve" smooth="yes"/>
      <point x="48" y="-255"/>
      <point x="96" y="-238"/>
      <point x="125" y="-205" type="curve"/>
      <point x="67" y="-154" type="line"/>
      <point x="29" y="-196"/>
      <point x="-18" y="-220"/>
      <point x="-66" y="-220" type="curve" smooth="yes"/>
      <point x="-85" y="-220"/>
      <point x="-101" y="-208"/>
      <point x="-101" y="-194" type="curve" smooth="yes"/>
      <point x="-101" y="-176"/>
      <point x="-68" y="-151"/>
      <point x="-13" y="-128" type="curve"/>
      <point x="-55" y="-80" type="line"/>
      <point x="-85" y="-98"/>
      <point x="-113" y="-107"/>
      <point x="-142" y="-107" type="curve" smooth="yes"/>
      <point x="-156" y="-107"/>
      <point x="-171" y="-101"/>
      <point x="-171" y="-92" type="curve" smooth="yes"/>
      <point x="-171" y="-66"/>
      <point x="-126" y="-39"/>
      <point x="-65" y="-25" type="curve"/>
      <point x="-121" y="27" type="line"/>
      <point x="-187" y="11"/>
      <point x="-236" y="-23"/>
      <point x="-236" y="-56" type="curve" smooth="yes"/>
    </contour>
    <contour>
      <point x="-122" y="0" type="move" name="_bottom"/>
    </contour>
  </outline>
</glyph>
<glyph name="eCandraMatra-deva" format="1">
  <advance width="0"/>
  <unicode hex="0945"/>
  <outline>
    <contour>
      <point x="-281" y="690" type="line"/>
      <point x="-250" y="604"/>
      <point x="-185" y="547"/>
      <point x="-122" y="547" type="curve" smooth="yes"/>
      <point x="-54" y="547"/>
      <point x="10" y="596"/>
      <point x="35" y="669" type="curve"/>
      <point x="-23" y="708" type="line"/>
      <point x="-45" y="651"/>
      <point x="-93" y="613"/>
      <point x="-143" y="613" type="curve" smooth="yes"/>
      <point x="-193" y="613"/>
      <point x="-237" y="649"/>
      <point x="-257" y="703" type="curve"/>
    </contour>
    <contour>
      <point x="-122" y="490" type="move" name="_top"/>
    </contour>
  </outline>
</glyph>
<glyph name="oMatra-deva" format="1">
  <advance width="227"/>
  <unicode hex="094B"/>
  <outline>
    <component base="aaMatra-deva"/>
    <component base="eMatra-deva" xOffset="218"/>
    <contour>
      <point x="154" y="500" type="move" name="top"/>
    </contour>
  </outline>
</glyph>
<glyph name="auMatra-deva" format="1">
  <advance width="227"/>
  <unicode hex="094C"/>
  <outline>
    <component base="aaMatra-deva"/>
    <component base="aiMatra-deva" xOffset="218"/>
    <contour>
      <point x="154" y="500" type="move" name="top"/>
    </contour>
  </outline>
</glyph>
<glyph name="anudatta-deva" format="1">
  <advance width="0"/>
  <unicode hex="0952"/>
  <outline>
    <contour>
      <point x="-412" y="-115" type="line"/>
      <point x="-19" y="-115" type="line"/>
      <point x="-61" y="-61" type="line"/>
      <point x="-451" y="-61" type="line"/>
    </contour>
  </outline>
</glyph>
<glyph name="grave-deva" format="1">
  <advance width="0"/>
  <unicode hex="0953"/>
  <outline>
    <contour>
      <point x="-85" y="483" type="line"/>
      <point x="-43" y="483" type="line"/>
      <point x="-90" y="695" type="line"/>
      <point x="-200" y="695" type="line"/>
    </contour>
  </outline>
</glyph>
<glyph name="uni0956" format="1">
  <advance width="0"/>
  <unicode hex="0956"/>
  <outline>
    <contour>
      <point x="-299" y="-60" type="line"/>
      <point x="-257" y="-126"/>
      <point x="-180" y="-167"/>
      <point x="-101" y="-167" type="curve" smooth="yes"/>
      <point x="-22" y="-167"/>
      <point x="45" y="-139"/>
      <point x="80" y="-92" type="curve"/>
      <point x="3" y="-40" type="line"/>
      <point x="-29" y="-82"/>
      <point x="-88" y="-106"/>
      <point x="-150" y="-106" type="curve" smooth="yes"/>
      <point x="-206" y="-106"/>
      <point x="-253" y="-83"/>
      <point x="-278" y="-43" type="curve"/>
    </contour>
    <contour>
      <point x="-122" y="0" type="move" name="_bottom"/>
    </contour>
  </outline>
</glyph>
<glyph name="uni0957" format="1">
  <advance width="0"/>
  <unicode hex="0957"/>
  <outline>
    <contour>
      <point x="-297" y="-42" type="line"/>
      <point x="-249" y="-99"/>
      <point x="-178" y="-133"/>
      <point x="-101" y="-133" type="curve" smooth="yes"/>
      <point x="-16" y="-133"/>
      <point x="54" y="-110"/>
      <point x="82" y="-70" type="curve"/>
      <point x="0" y="-19" type="line"/>
      <point x="-31" y="-59"/>
      <point x="-85" y="-82"/>
      <point x="-144" y="-82" type="curve" smooth="yes"/>
      <point x="-199" y="-82"/>
      <point x="-250" y="-62"/>
      <point x="-279" y="-27" type="curve"/>
    </contour>
    <contour>
      <point x="-7" y="-243"/>
      <point x="61" y="-222"/>
      <point x="87" y="-188" type="curve"/>
      <point x="8" y="-137" type="line"/>
      <point x="-21" y="-172"/>
      <point x="-78" y="-192"/>
      <point x="-138" y="-192" type="curve" smooth="yes"/>
      <point x="-190" y="-192"/>
      <point x="-242" y="-169"/>
      <point x="-273" y="-130" type="curve"/>
      <point x="-291" y="-145" type="line"/>
      <point x="-240" y="-206"/>
      <point x="-170" y="-243"/>
      <point x="-95" y="-243" type="curve" smooth="yes"/>
    </contour>
  </outline>
</glyph>
<glyph name="ghha-deva" format="1">
  <advance width="534"/>
  <unicode hex="095A"/>
  <outline>
    <component base="ga-deva"/>
    <component base="nukta-deva" xOffset="297" yOffset="20"/>
    <contour>
      <point x="404" y="500" type="move" name="top"/>
    </contour>
    <contour>
      <point x="420" y="0" type="move" name="bottom"/>
    </contour>
  </outline>
</glyph>
<glyph name="dddha-deva" format="1">
  <advance width="475"/>
  <unicode hex="095C"/>
  <outline>
    <component base="dda-deva"/>
    <component base="nukta-deva" xOffset="391" yOffset="-120"/>
    <contour>
      <point x="289" y="500" type="move" name="top"/>
    </contour>
    <contour>
      <point x="271" y="0" type="move" name="bottom"/>
    </contour>
  </outline>
</glyph>
<glyph name="yya-deva" format="1">
  <advance width="479"/>
  <unicode hex="095F"/>
  <outline>
    <component base="ya-deva"/>
    <component base="nukta-deva" xOffset="243" yOffset="14"/>
    <contour>
      <point x="349" y="500" type="move" name="top"/>
    </contour>
    <contour>
      <point x="354" y="0" type="move" name="bottom"/>
    </contour>
  </outline>
</glyph>
<glyph name="llVocalic-deva" format="1">
  <advance width="601"/>
  <unicode hex="0961"/>
  <outline>
    <contour>
      <point x="-10" y="500" type="line"/>
      <point x="362" y="500" type="line"/>
      <point x="439" y="421" type="line"/>
      <point x="439" y="345" type="line"/>
      <point x="517" y="321"/>
      <point x="571" y="264"/>
      <point x="571" y="203" type="curve" smooth="yes"/>
      <point x="571" y="123"/>
      <point x="449" y="113"/>
      <point x="449" y="66" type="curve" smooth="yes"/>
      <point x="449" y="52"/>
      <point x="463" y="45"/>
      <point x="484" y="45" type="curve" smooth="yes"/>
      <point x="495" y="45"/>
      <point x="510" y="49"/>
      <point x="523" y="55" type="curve"/>
      <point x="544" y="18" type="line"/>
      <point x="503" y="11"/>
      <point x="465" y="-12"/>
      <point x="465" y="-39" type="curve" smooth="yes"/>
      <point x="465" y="-52"/>
      <point x="481" y="-61"/>
      <point x="501" y="-61" type="curve" smooth="yes"/>
      <point x="533" y="-61"/>
      <point x="565" y="-47"/>
      <point x="593" y="-21" type="curve"/>
      <point x="638" y="-66" type="line"/>
      <point x="615" y="-85"/>
      <point x="585" y="-96"/>
      <point x="554" y="-96" type="curve" smooth="yes"/>
      <point x="478" y="-96"/>
      <point x="401" y="-54"/>
      <point x="401" y="-12" type="curve" smooth="yes"/>
      <point x="401" y="4"/>
      <point x="419" y="22"/>
      <point x="447" y="32" type="curve"/>
      <point x="404" y="43"/>
      <point x="376" y="71"/>
      <point x="376" y="96" type="curve" smooth="yes"/>
      <point x="376" y="156"/>
      <point x="506" y="176"/>
      <point x="506" y="242" type="curve" smooth="yes"/>
      <point x="506" y="278"/>
      <point x="477" y="307"/>
      <point x="441" y="307" type="curve" smooth="yes"/>
      <point x="385" y="307"/>
      <point x="341" y="259"/>
      <point x="341" y="162" type="curve"/>
      <point x="256" y="195" type="line"/>
      <point x="256" y="211"/>
      <point x="258" y="229"/>
      <point x="261" y="250" type="curve"/>
      <point x="245" y="273"/>
      <point x="224" y="288"/>
      <point x="205" y="288" type="curve" smooth="yes"/>
      <point x="152" y="288"/>
      <point x="106" y="232"/>
      <point x="106" y="166" type="curve" smooth="yes"/>
      <point x="106" y="117"/>
      <point x="172" y="44"/>
      <point x="219" y="44" type="curve" smooth="yes"/>
      <point x="243" y="44"/>
      <point x="264" y="52"/>
      <point x="279" y="67" type="curve"/>
      <point x="329" y="2" type="line"/>
      <point x="316" y="-11"/>
      <point x="298" y="-18"/>
      <point x="279" y="-18" type="curve" smooth="yes"/>
      <point x="179" y="-18"/>
      <point x="38" y="129"/>
      <point x="38" y="231" type="curve" smooth="yes"/>
      <point x="38" y="297"/>
      <point x="92" y="354"/>
      <point x="154" y="354" type="curve" smooth="yes"/>
      <point x="192" y="354"/>
      <point x="236" y="327"/>
      <point x="274" y="279" type="curve"/>
      <point x="291" y="323"/>
      <point x="322" y="352"/>
      <point x="354" y="356" type="curve"/>
      <point x="354" y="421" type="line"/>
      <point x="-10" y="421" type="line"/>
    </contour>
    <contour>
      <point x="403" y="500" type="line"/>
      <point x="610" y="500" type="line"/>
      <point x="610" y="421" type="line"/>
      <point x="480" y="421" type="line"/>
    </contour>
    <contour>
      <point x="383" y="500" type="move" name="top"/>
    </contour>
    <contour>
      <point x="361" y="0" type="move" name="bottom"/>
    </contour>
  </outline>
</glyph>
<glyph name="lVocalicMatra-deva" format="1">
  <advance width="0"/>
  <unicode hex="0962"/>
  <outline>
    <contour>
      <point x="-371" y="-120"/>
      <point x="-332" y="-84"/>
      <point x="-288" y="-84" type="curve" smooth="yes"/>
      <point x="-261" y="-84"/>
      <point x="-229" y="-100"/>
      <point x="-198" y="-129" type="curve"/>
      <point x="-185" y="-99"/>
      <point x="-156" y="-80"/>
      <point x="-122" y="-80" type="curve" smooth="yes"/>
      <point x="-59" y="-80"/>
      <point x="16" y="-136"/>
      <point x="16" y="-184" type="curve" smooth="yes"/>
      <point x="16" y="-258"/>
      <point x="-87" y="-260"/>
      <point x="-87" y="-296" type="curve" smooth="yes"/>
      <point x="-87" y="-309"/>
      <point x="-70" y="-318"/>
      <point x="-47" y="-318" type="curve" smooth="yes"/>
      <point x="-29" y="-318"/>
      <point x="-5" y="-306"/>
      <point x="19" y="-285" type="curve"/>
      <point x="68" y="-327" type="line"/>
      <point x="44" y="-343"/>
      <point x="17" y="-352"/>
      <point x="-9" y="-352" type="curve" smooth="yes"/>
      <point x="-64" y="-352"/>
      <point x="-135" y="-305"/>
      <point x="-135" y="-269" type="curve" smooth="yes"/>
      <point x="-135" y="-218"/>
      <point x="-34" y="-209"/>
      <point x="-34" y="-158" type="curve" smooth="yes"/>
      <point x="-34" y="-136"/>
      <point x="-53" y="-116"/>
      <point x="-79" y="-116" type="curve" smooth="yes"/>
      <point x="-116" y="-116"/>
      <point x="-144" y="-133"/>
      <point x="-144" y="-204" type="curve"/>
      <point x="-212" y="-181" type="line"/>
      <point x="-212" y="-174"/>
      <point x="-210" y="-157"/>
      <point x="-208" y="-147" type="curve"/>
      <point x="-219" y="-135"/>
      <point x="-233" y="-128"/>
      <point x="-245" y="-128" type="curve" smooth="yes"/>
      <point x="-282" y="-128"/>
      <point x="-314" y="-162"/>
      <point x="-314" y="-202" type="curve" smooth="yes"/>
      <point x="-314" y="-230"/>
      <point x="-269" y="-272"/>
      <point x="-239" y="-272" type="curve" smooth="yes"/>
      <point x="-221" y="-272"/>
      <point x="-204" y="-267"/>
      <point x="-191" y="-257" type="curve"/>
      <point x="-155" y="-300" type="line"/>
      <point x="-166" y="-309"/>
      <point x="-180" y="-313"/>
      <point x="-193" y="-313" type="curve" smooth="yes"/>
      <point x="-267" y="-313"/>
      <point x="-371" y="-223"/>
      <point x="-371" y="-159" type="curve" smooth="yes"/>
    </contour>
    <contour>
      <point x="-79" y="30" type="line"/>
      <point x="-79" y="-101" type="line"/>
      <point x="-164" y="-101" type="line"/>
      <point x="-164" y="30" type="line"/>
    </contour>
    <contour>
      <point x="-122" y="0" type="move" name="_bottom"/>
    </contour>
  </outline>
</glyph>
<glyph name="danda-deva" format="1">
  <advance width="533"/>
  <unicode hex="0964"/>
  <outline>
    <contour>
      <point x="144" y="105" type="line" smooth="yes"/>
      <point x="144" y="35"/>
      <point x="321" y="-75"/>
      <point x="400" y="-75" type="curve" smooth="yes"/>
      <point x="425" y="-75"/>
      <point x="446" y="-65"/>
      <point x="461" y="-47" type="curve"/>
      <point x="387" y="-2" type="line"/>
      <point x="374" y="-19"/>
      <point x="358" y="-28"/>
      <point x="340" y="-28" type="curve" smooth="yes"/>
      <point x="302" y="-28"/>
      <point x="229" y="20"/>
      <point x="229" y="50" type="curve" smooth="yes"/>
      <point x="229" y="532" type="line"/>
      <point x="144" y="600" type="line"/>
    </contour>
  </outline>
</glyph>
<glyph name="zero-deva" format="1">
  <advance width="479"/>
  <unicode hex="0966"/>
  <outline>
    <contour>
      <point x="32" y="137"/>
      <point x="150" y="0"/>
      <point x="242" y="0" type="curve" smooth="yes"/>
      <point x="349" y="0"/>
      <point x="447" y="161"/>
      <point x="447" y="332" type="curve" smooth="yes"/>
      <point x="447" y="440"/>
      <point x="326" y="580"/>
      <point x="228" y="580" type="curve" smooth="yes"/>
      <point x="125" y="580"/>
      <point x="32" y="413"/>
      <point x="32" y="240" type="curve" smooth="yes"/>
    </contour>
    <contour>
      <point x="142" y="68"/>
      <point x="116" y="111"/>
      <point x="116" y="161" type="curve" smooth="yes"/>
      <point x="116" y="345"/>
      <point x="199" y="512"/>
      <point x="295" y="512" type="curve" smooth="yes"/>
      <point x="334" y="512"/>
      <point x="368" y="464"/>
      <point x="368" y="405" type="curve" smooth="yes"/>
      <point x="368" y="223"/>
      <point x="282" y="68"/>
      <point x="177" y="68" type="curve" smooth="yes"/>
    </contour>
  </outline>
</glyph>
<glyph name="one-deva" format="1">
  <advance width="479"/>
  <unicode hex="0967"/>
  <outline>
    <contour>
      <point x="96" y="400"/>
      <point x="185" y="319"/>
      <point x="250" y="319" type="curve" smooth="yes"/>
      <point x="266" y="319"/>
      <point x="285" y="329"/>
      <point x="298" y="349" type="curve"/>
      <point x="298" y="104" type="line" smooth="yes"/>
      <point x="298" y="80"/>
      <point x="276" y="58"/>
      <point x="246" y="49" type="curve"/>
      <point x="318" y="0" type="line"/>
      <point x="357" y="7"/>
      <point x="383" y="37"/>
      <point x="383" y="71" type="curve" smooth="yes"/>
      <point x="383" y="391" type="line" smooth="yes"/>
      <point x="383" y="475"/>
      <point x="288" y="580"/>
      <point x="209" y="580" type="curve" smooth="yes"/>
      <point x="149" y="580"/>
      <point x="96" y="521"/>
      <point x="96" y="460" type="curve" smooth="yes"/>
    </contour>
    <contour>
      <point x="188" y="373"/>
      <point x="175" y="388"/>
      <point x="175" y="404" type="curve" smooth="yes"/>
      <point x="175" y="454"/>
      <point x="229" y="518"/>
      <point x="271" y="518" type="curve" smooth="yes"/>
      <point x="287" y="518"/>
      <point x="301" y="505"/>
      <point x="301" y="487" type="curve" smooth="yes"/>
      <point x="301" y="438"/>
      <point x="247" y="373"/>
      <point x="205" y="373" type="curve" smooth="yes"/>
    </contour>
  </outline>
</glyph>
<glyph name="three-deva" format="1">
  <advance width="476"/>
  <unicode hex="0969"/>
  <outline>
    <contour>
      <point x="95" y="478" type="line"/>
      <point x="129" y="511"/>
      <point x="183" y="529"/>
      <point x="242" y="529" type="curve" smooth="yes"/>
      <point x="266" y="529"/>
      <point x="285" y="508"/>
      <point x="285" y="484" type="curve" smooth="yes"/>
      <point x="285" y="457"/>
      <point x="267" y="426"/>
      <point x="239" y="398" type="curve"/>
      <point x="216" y="423"/>
      <point x="189" y="442"/>
      <point x="164" y="442" type="curve" smooth="yes"/>
      <point x="125" y="442"/>
      <point x="89" y="413"/>
      <point x="89" y="381" type="curve" smooth="yes"/>
      <point x="89" y="343"/>
      <point x="153" y="293"/>
      <point x="196" y="293" type="curve" smooth="yes"/>
      <point x="218" y="293"/>
      <point x="243" y="303"/>
      <point x="266" y="320" type="curve"/>
      <point x="284" y="302"/>
      <point x="293" y="279"/>
      <point x="293" y="257" type="curve" smooth="yes"/>
      <point x="293" y="218"/>
      <point x="253" y="185"/>
      <point x="199" y="175" type="curve"/>
      <point x="181" y="231"/>
      <point x="143" y="273"/>
      <point x="109" y="273" type="curve" smooth="yes"/>
      <point x="72" y="273"/>
      <point x="41" y="247"/>
      <point x="41" y="218" type="curve" smooth="yes"/>
      <point x="41" y="170"/>
      <point x="97" y="98"/>
      <point x="196" y="98" type="curve"/>
      <point x="230" y="17"/>
      <point x="295" y="-37"/>
      <point x="361" y="-37" type="curve" smooth="yes"/>
      <point x="398" y="-37"/>
      <point x="431" y="-22"/>
      <point x="447" y="1" type="curve"/>
      <point x="373" y="60" type="line"/>
      <point x="358" y="38"/>
      <point x="333" y="25"/>
      <point x="310" y="25" type="curve" smooth="yes"/>
      <point x="279" y="25"/>
      <point x="245" y="56"/>
      <point x="224" y="101" type="curve"/>
      <point x="298" y="103"/>
      <point x="367" y="154"/>
      <point x="367" y="211" type="curve" smooth="yes"/>
      <point x="367" y="246"/>
      <point x="338" y="293"/>
      <point x="289" y="337" type="curve"/>
      <point x="326" y="365"/>
      <point x="348" y="401"/>
      <point x="348" y="433" type="curve" smooth="yes"/>
      <point x="348" y="502"/>
      <point x="260" y="586"/>
      <point x="182" y="586" type="curve" smooth="yes"/>
      <point x="116" y="586"/>
      <point x="62" y="570"/>
      <point x="26" y="543" type="curve"/>
    </contour>
    <contour>
      <point x="109" y="159"/>
      <point x="98" y="168"/>
      <point x="98" y="179" type="curve" smooth="yes"/>
      <point x="98" y="193"/>
      <point x="119" y="209"/>
      <point x="138" y="209" type="curve" smooth="yes"/>
      <point x="152" y="209"/>
      <point x="164" y="191"/>
      <point x="171" y="170" type="curve"/>
      <point x="160" y="163"/>
      <point x="143" y="159"/>
      <point x="123" y="159" type="curve" smooth="yes"/>
    </contour>
    <contour>
      <point x="153" y="342"/>
      <point x="146" y="347"/>
      <point x="146" y="355" type="curve" smooth="yes"/>
      <point x="146" y="370"/>
      <point x="174" y="391"/>
      <point x="192" y="391" type="curve" smooth="yes"/>
      <point x="202" y="391"/>
      <point x="214" y="385"/>
      <point x="221" y="376" type="curve"/>
      <point x="203" y="355"/>
      <point x="179" y="342"/>
      <point x="161" y="342" type="curve" smooth="yes"/>
    </contour>
  </outline>
</glyph>
<glyph name="four-deva" format="1">
  <advance width="479"/>
  <unicode hex="096A"/>
  <outline>
    <contour>
      <point x="27" y="348"/>
      <point x="90" y="276"/>
      <point x="185" y="232" type="curve"/>
      <point x="135" y="197"/>
      <point x="106" y="153"/>
      <point x="106" y="117" type="curve" smooth="yes"/>
      <point x="106" y="57"/>
      <point x="208" y="-11"/>
      <point x="286" y="-11" type="curve" smooth="yes"/>
      <point x="345" y="-11"/>
      <point x="400" y="39"/>
      <point x="400" y="96" type="curve" smooth="yes"/>
      <point x="400" y="136"/>
      <point x="355" y="182"/>
      <point x="290" y="209" type="curve"/>
      <point x="389" y="276"/>
      <point x="452" y="357"/>
      <point x="452" y="425" type="curve" smooth="yes"/>
      <point x="452" y="523"/>
      <point x="338" y="618"/>
      <point x="226" y="618" type="curve"/>
      <point x="211" y="593" type="line"/>
      <point x="296" y="593"/>
      <point x="380" y="537"/>
      <point x="380" y="479" type="curve" smooth="yes"/>
      <point x="380" y="410"/>
      <point x="316" y="326"/>
      <point x="213" y="253" type="curve"/>
      <point x="149" y="279"/>
      <point x="104" y="324"/>
      <point x="104" y="368" type="curve" smooth="yes"/>
      <point x="104" y="412"/>
      <point x="136" y="465"/>
      <point x="190" y="505" type="curve"/>
      <point x="109" y="569" type="line"/>
      <point x="58" y="530"/>
      <point x="27" y="473"/>
      <point x="27" y="415" type="curve" smooth="yes"/>
    </contour>
    <contour>
      <point x="209" y="36"/>
      <point x="188" y="53"/>
      <point x="188" y="74" type="curve" smooth="yes"/>
      <point x="188" y="106"/>
      <point x="217" y="147"/>
      <point x="264" y="184" type="curve"/>
      <point x="298" y="176"/>
      <point x="324" y="152"/>
      <point x="324" y="130" type="curve" smooth="yes"/>
      <point x="324" y="90"/>
      <point x="273" y="36"/>
      <point x="234" y="36" type="curve" smooth="yes"/>
    </contour>
  </outline>
</glyph>
<glyph name="five-deva" format="1">
  <advance width="479"/>
  <unicode hex="096B"/>
  <outline>
    <contour>
      <point x="26" y="314"/>
      <point x="123" y="228"/>
      <point x="252" y="228" type="curve" smooth="yes"/>
      <point x="266" y="228"/>
      <point x="282" y="230"/>
      <point x="301" y="233" type="curve"/>
      <point x="343" y="205"/>
      <point x="368" y="171"/>
      <point x="368" y="143" type="curve" smooth="yes"/>
      <point x="368" y="88"/>
      <point x="301" y="42"/>
      <point x="220" y="42" type="curve" smooth="yes"/>
      <point x="170" y="42"/>
      <point x="123" y="58"/>
      <point x="86" y="89" type="curve"/>
      <point x="71" y="68" type="line"/>
      <point x="148" y="14"/>
      <point x="222" y="-14"/>
      <point x="286" y="-14" type="curve" smooth="yes"/>
      <point x="375" y="-14"/>
      <point x="453" y="33"/>
      <point x="453" y="96" type="curve" smooth="yes"/>
      <point x="453" y="142"/>
      <point x="409" y="198"/>
      <point x="337" y="243" type="curve"/>
      <point x="392" y="255"/>
      <point x="434" y="294"/>
      <point x="434" y="337" type="curve" smooth="yes"/>
      <point x="434" y="382"/>
      <point x="367" y="443"/>
      <point x="317" y="443" type="curve" smooth="yes"/>
      <point x="261" y="443"/>
      <point x="212" y="403"/>
      <point x="212" y="357" type="curve" smooth="yes"/>
      <point x="212" y="331"/>
      <point x="232" y="303"/>
      <point x="265" y="282" type="curve"/>
      <point x="251" y="276"/>
      <point x="230" y="272"/>
      <point x="201" y="272" type="curve" smooth="yes"/>
      <point x="141" y="272"/>
      <point x="94" y="308"/>
      <point x="94" y="354" type="curve" smooth="yes"/>
      <point x="94" y="429"/>
      <point x="181" y="499"/>
      <point x="298" y="520" type="curve"/>
      <point x="223" y="587" type="line"/>
      <point x="109" y="567"/>
      <point x="26" y="496"/>
      <point x="26" y="420" type="curve" smooth="yes"/>
    </contour>
    <contour>
      <point x="286" y="302"/>
      <point x="276" y="316"/>
      <point x="276" y="326" type="curve" smooth="yes"/>
      <point x="276" y="359"/>
      <point x="323" y="400"/>
      <point x="359" y="400" type="curve" smooth="yes"/>
      <point x="368" y="400"/>
      <point x="377" y="392"/>
      <point x="377" y="382" type="curve" smooth="yes"/>
      <point x="377" y="353"/>
      <point x="345" y="317"/>
      <point x="295" y="294" type="curve"/>
    </contour>
  </outline>
</glyph>
<glyph name="six-deva" format="1">
  <advance width="479"/>
  <unicode hex="096C"/>
  <outline>
    <contour>
      <point x="13" y="418"/>
      <point x="54" y="372"/>
      <point x="116" y="342" type="curve"/>
      <point x="76" y="313"/>
      <point x="51" y="275"/>
      <point x="51" y="241" type="curve" smooth="yes"/>
      <point x="51" y="158"/>
      <point x="140" y="79"/>
      <point x="254" y="79" type="curve"/>
      <point x="280" y="-7"/>
      <point x="345" y="-67"/>
      <point x="410" y="-67" type="curve" smooth="yes"/>
      <point x="427" y="-67"/>
      <point x="447" y="-60"/>
      <point x="466" y="-47" type="curve"/>
      <point x="399" y="19" type="line"/>
      <point x="386" y="5"/>
      <point x="368" y="-2"/>
      <point x="350" y="-2" type="curve" smooth="yes"/>
      <point x="325" y="-2"/>
      <point x="297" y="32"/>
      <point x="282" y="80" type="curve"/>
      <point x="328" y="88"/>
      <point x="363" y="113"/>
      <point x="363" y="140" type="curve" smooth="yes"/>
      <point x="363" y="175"/>
      <point x="306" y="218"/>
      <point x="262" y="218" type="curve" smooth="yes"/>
      <point x="244" y="218"/>
      <point x="227" y="205"/>
      <point x="227" y="186" type="curve" smooth="yes"/>
      <point x="227" y="172"/>
      <point x="231" y="158"/>
      <point x="238" y="149" type="curve"/>
      <point x="229" y="140"/>
      <point x="209" y="135"/>
      <point x="183" y="135" type="curve" smooth="yes"/>
      <point x="146" y="135"/>
      <point x="116" y="156"/>
      <point x="116" y="183" type="curve" smooth="yes"/>
      <point x="116" y="227"/>
      <point x="146" y="270"/>
      <point x="191" y="293" type="curve"/>
      <point x="206" y="286"/>
      <point x="225" y="283"/>
      <point x="246" y="283" type="curve" smooth="yes"/>
      <point x="278" y="283"/>
      <point x="305" y="302"/>
      <point x="305" y="326" type="curve" smooth="yes"/>
      <point x="305" y="352"/>
      <point x="254" y="386"/>
      <point x="218" y="386" type="curve" smooth="yes"/>
      <point x="194" y="386"/>
      <point x="168" y="377"/>
      <point x="139" y="358" type="curve"/>
      <point x="110" y="369"/>
      <point x="89" y="391"/>
      <point x="89" y="415" type="curve" smooth="yes"/>
      <point x="89" y="466"/>
      <point x="151" y="509"/>
      <point x="226" y="509" type="curve" smooth="yes"/>
      <point x="241" y="509"/>
      <point x="259" y="500"/>
      <point x="278" y="486" type="curve"/>
      <point x="290" y="501" type="line"/>
      <point x="225" y="571" type="line"/>
      <point x="209" y="576"/>
      <point x="193" y="579"/>
      <point x="177" y="579" type="curve" smooth="yes"/>
      <point x="89" y="579"/>
      <point x="13" y="526"/>
      <point x="13" y="461" type="curve" smooth="yes"/>
    </contour>
  </outline>
</glyph>
<glyph name="seven-deva" format="1">
  <advance width="479"/>
  <unicode hex="096D"/>
  <outline>
    <contour>
      <point x="35" y="184"/>
      <point x="141" y="-3"/>
      <point x="279" y="-3" type="curve" smooth="yes"/>
      <point x="372" y="-3"/>
      <point x="445" y="100"/>
      <point x="445" y="220" type="curve" smooth="yes"/>
      <point x="445" y="331"/>
      <point x="372" y="453"/>
      <point x="292" y="453" type="curve" smooth="yes"/>
      <point x="228" y="453"/>
      <point x="183" y="396"/>
      <point x="183" y="316" type="curve" smooth="yes"/>
      <point x="183" y="246"/>
      <point x="254" y="157"/>
      <point x="311" y="157" type="curve" smooth="yes"/>
      <point x="329" y="157"/>
      <point x="346" y="169"/>
      <point x="358" y="184" type="curve"/>
      <point x="347" y="123"/>
      <point x="289" y="68"/>
      <point x="231" y="68" type="curve" smooth="yes"/>
      <point x="151" y="68"/>
      <point x="87" y="176"/>
      <point x="87" y="302" type="curve" smooth="yes"/>
      <point x="87" y="382"/>
      <point x="99" y="454"/>
      <point x="123" y="516" type="curve"/>
      <point x="56" y="556" type="line"/>
      <point x="42" y="506"/>
      <point x="35" y="447"/>
      <point x="35" y="379" type="curve" smooth="yes"/>
    </contour>
    <contour>
      <point x="264" y="210"/>
      <point x="252" y="229"/>
      <point x="252" y="250" type="curve" smooth="yes"/>
      <point x="252" y="316"/>
      <point x="291" y="380"/>
      <point x="336" y="380" type="curve" smooth="yes"/>
      <point x="354" y="380"/>
      <point x="365" y="364"/>
      <point x="365" y="342" type="curve" smooth="yes"/>
      <point x="365" y="270"/>
      <point x="327" y="210"/>
      <point x="280" y="210" type="curve" smooth="yes"/>
    </contour>
  </outline>
</glyph>
<glyph name="eight-deva" format="1">
  <advance width="479"/>
  <unicode hex="096E"/>
  <outline>
    <contour>
      <point x="36" y="100"/>
      <point x="146" y="-5"/>
      <point x="228" y="-5" type="curve" smooth="yes"/>
      <point x="308" y="-5"/>
      <point x="384" y="20"/>
      <point x="441" y="66" type="curve"/>
      <point x="379" y="151" type="line"/>
      <point x="313" y="89"/>
      <point x="234" y="53"/>
      <point x="162" y="53" type="curve" smooth="yes"/>
      <point x="128" y="53"/>
      <point x="101" y="78"/>
      <point x="101" y="107" type="curve" smooth="yes"/>
      <point x="101" y="130"/>
      <point x="122" y="164"/>
      <point x="168" y="213" type="curve" smooth="yes"/>
      <point x="443" y="512" type="line"/>
      <point x="372" y="584" type="line"/>
      <point x="111" y="296" type="line" smooth="yes"/>
      <point x="61" y="241"/>
      <point x="36" y="201"/>
      <point x="36" y="176" type="curve" smooth="yes"/>
    </contour>
  </outline>
</glyph>
<glyph name="highspacingdot-deva" format="1">
  <advance width="188"/>
  <unicode hex="0971"/>
  <outline>
    <contour>
      <point x="94" y="394" type="line"/>
      <point x="160" y="460" type="line"/>
      <point x="94" y="527" type="line"/>
      <point x="27" y="460" type="line"/>
    </contour>
  </outline>
</glyph>
<glyph name="quoteright" format="1">
  <advance width="188"/>
  <unicode hex="2019"/>
  <outline>
    <contour>
      <point x="143" y="429"/>
      <point x="111" y="394"/>
      <point x="74" y="373" type="curve"/>
      <point x="59" y="386" type="line"/>
      <point x="70" y="395"/>
      <point x="80" y="412"/>
      <point x="82" y="426" type="curve"/>
      <point x="60" y="432"/>
      <point x="45" y="451"/>
      <point x="45" y="474" type="curve" smooth="yes"/>
      <point x="45" y="500"/>
      <point x="67" y="523"/>
      <point x="94" y="523" type="curve" smooth="yes"/>
      <point x="121" y="523"/>
      <point x="143" y="500"/>
      <point x="143" y="474" type="curve" smooth="yes"/>
    </contour>
  </outline>
</glyph>
<glyph name="quotesinglbase" format="1">
  <advance width="159"/>
  <unicode hex="201A"/>
  <outline>
    <contour>
      <point x="53" y="88"/>
      <point x="30" y="65"/>
      <point x="30" y="39" type="curve" smooth="yes"/>
      <point x="30" y="16"/>
      <point x="46" y="-3"/>
      <point x="68" y="-9" type="curve"/>
      <point x="65" y="-23"/>
      <point x="55" y="-40"/>
      <point x="44" y="-49" type="curve"/>
      <point x="60" y="-62" type="line"/>
      <point x="96" y="-41"/>
      <point x="129" y="-5"/>
      <point x="129" y="39" type="curve" smooth="yes"/>
      <point x="129" y="65"/>
      <point x="106" y="88"/>
      <point x="79" y="88" type="curve" smooth="yes"/>
    </contour>
  </outline>
</glyph>
<glyph name="quotedblbase" format="1">
  <advance width="285"/>
  <unicode hex="201E"/>
  <outline>
    <contour>
      <point x="178" y="88"/>
      <point x="156" y="65"/>
      <point x="156" y="39" type="curve" smooth="yes"/>
      <point x="156" y="16"/>
      <point x="172" y="-3"/>
      <point x="194" y="-9" type="curve"/>
      <point x="191" y="-23"/>
      <point x="181" y="-40"/>
      <point x="170" y="-49" type="curve"/>
      <point x="186" y="-62" type="line"/>
      <point x="222" y="-41"/>
      <point x="255" y="-5"/>
      <point x="255" y="39" type="curve" smooth="yes"/>
      <point x="255" y="65"/>
      <point x="232" y="88"/>
      <point x="205" y="88" type="curve" smooth="yes"/>
    </contour>
    <contour>
      <point x="53" y="88"/>
      <point x="30" y="65"/>
      <point x="30" y="39" type="curve" smooth="yes"/>
      <point x="30" y="16"/>
      <point x="46" y="-3"/>
      <point x="68" y="-9" type="curve"/>
      <point x="65" y="-23"/>
      <point x="55" y="-40"/>
      <point x="44" y="-49" type="curve"/>
      <point x="60" y="-62" type="line"/>
      <point x="96" y="-41"/>
      <point x="129" y="-5"/>
      <point x="129" y="39" type="curve" smooth="yes"/>
      <point x="129" y="65"/>
      <point x="106" y="88"/>
      <point x="79" y="88" type="curve" smooth="yes"/>
    </contour>
  </outline>
</glyph>
<glyph name="daggerdbl" format="1">
  <advance width="286"/>
  <unicode hex="2021"/>
  <outline>
    <contour>
      <point x="98" y="515" type="line"/>
      <point x="98" y="363" type="line"/>
      <point x="29" y="363" type="line"/>
      <point x="21" y="335" type="line"/>
      <point x="98" y="335" type="line"/>
      <point x="98" y="131" type="line"/>
      <point x="29" y="131" type="line"/>
      <point x="21" y="104" type="line"/>
      <point x="98" y="104" type="line"/>
      <point x="98" y="-104" type="line"/>
      <point x="189" y="-74" type="line"/>
      <point x="189" y="104" type="line"/>
      <point x="258" y="104" type="line"/>
      <point x="265" y="131" type="line"/>
      <point x="189" y="131" type="line"/>
      <point x="189" y="335" type="line"/>
      <point x="258" y="335" type="line"/>
      <point x="265" y="363" type="line"/>
      <point x="189" y="363" type="line"/>
      <point x="189" y="544" type="line"/>
    </contour>
  </outline>
</glyph>
<glyph name="bullet" format="1">
  <advance width="218"/>
  <unicode hex="2022"/>
  <outline>
    <contour>
      <point x="193" y="226"/>
      <point x="155" y="189"/>
      <point x="109" y="189" type="curve" smooth="yes"/>
      <point x="62" y="189"/>
      <point x="25" y="226"/>
      <point x="25" y="273" type="curve" smooth="yes"/>
      <point x="25" y="319"/>
      <point x="62" y="357"/>
      <point x="109" y="357" type="curve" smooth="yes"/>
      <point x="155" y="357"/>
      <point x="193" y="319"/>
      <point x="193" y="273" type="curve" smooth="yes"/>
    </contour>
  </outline>
</glyph>
<glyph name="ellipsis" format="1">
  <advance width="475"/>
  <unicode hex="2026"/>
  <outline>
    <contour>
      <point x="129" y="12"/>
      <point x="106" y="-10"/>
      <point x="79" y="-10" type="curve" smooth="yes"/>
      <point x="53" y="-10"/>
      <point x="30" y="12"/>
      <point x="30" y="39" type="curve" smooth="yes"/>
      <point x="30" y="65"/>
      <point x="53" y="88"/>
      <point x="79" y="88" type="curve" smooth="yes"/>
      <point x="106" y="88"/>
      <point x="129" y="65"/>
      <point x="129" y="39" type="curve" smooth="yes"/>
    </contour>
    <contour>
      <point x="288" y="12"/>
      <point x="265" y="-10"/>
      <point x="238" y="-10" type="curve" smooth="yes"/>
      <point x="212" y="-10"/>
      <point x="189" y="12"/>
      <point x="189" y="39" type="curve" smooth="yes"/>
      <point x="189" y="65"/>
      <point x="212" y="88"/>
      <point x="238" y="88" type="curve" smooth="yes"/>
      <point x="265" y="88"/>
      <point x="288" y="65"/>
      <point x="288" y="39" type="curve" smooth="yes"/>
    </contour>
    <contour>
      <point x="445" y="12"/>
      <point x="423" y="-10"/>
      <point x="396" y="-10" type="curve" smooth="yes"/>
      <point x="370" y="-10"/>
      <point x="347" y="12"/>
      <point x="347" y="39" type="curve" smooth="yes"/>
      <point x="347" y="65"/>
      <point x="370" y="88"/>
      <point x="396" y="88" type="curve" smooth="yes"/>
      <point x="423" y="88"/>
      <point x="445" y="65"/>
      <point x="445" y="39" type="curve" smooth="yes"/>
    </contour>
  </outline>
</glyph>
<glyph name="guilsinglleft" format="1">
  <advance width="194"/>
  <unicode hex="2039"/>
  <outline>
    <contour>
      <point x="159" y="59" type="line"/>
      <point x="138" y="37" type="line"/>
      <point x="18" y="137" type="line"/>
      <point x="138" y="237" type="line"/>
      <point x="159" y="220" type="line"/>
      <point x="107" y="137" type="line"/>
    </contour>
  </outline>
</glyph>
<glyph name="guilsinglright" format="1">
  <advance width="194"/>
  <unicode hex="203A"/>
  <outline>
    <contour>
      <point x="35" y="217" type="line"/>
      <point x="87" y="137" type="line"/>
      <point x="35" y="56" type="line"/>
      <point x="56" y="37" type="line"/>
      <point x="176" y="137" type="line"/>
      <point x="56" y="237" type="line"/>
    </contour>
  </outline>
</glyph>
<glyph name="zerosuperior" format="1">
  <advance width="295"/>
  <unicode hex="2070"/>
  <outline>
    <contour>
      <point x="66" y="230"/>
      <point x="25" y="301"/>
      <point x="25" y="371" type="curve" smooth="yes"/>
      <point x="25" y="441"/>
      <point x="66" y="512"/>
      <point x="148" y="512" type="curve" smooth="yes"/>
      <point x="230" y="512"/>
      <point x="271" y="442"/>
      <point x="271" y="371" type="curve" smooth="yes"/>
      <point x="271" y="301"/>
      <point x="230" y="230"/>
      <point x="148" y="230" type="curve" smooth="yes"/>
    </contour>
    <contour>
      <point x="99" y="491"/>
      <point x="83" y="450"/>
      <point x="83" y="402" type="curve" smooth="yes"/>
      <point x="83" y="336"/>
      <point x="114" y="256"/>
      <point x="160" y="256" type="curve" smooth="yes"/>
      <point x="196" y="256"/>
      <point x="212" y="297"/>
      <point x="212" y="345" type="curve" smooth="yes"/>
      <point x="212" y="412"/>
      <point x="182" y="491"/>
      <point x="136" y="491" type="curve" smooth="yes"/>
    </contour>
  </outline>
</glyph>
<glyph name="sixsuperior" format="1">
  <advance width="270"/>
  <unicode hex="2076"/>
  <outline>
    <contour>
      <point x="90" y="355"/>
      <point x="89" y="342"/>
      <point x="89" y="330" type="curve" smooth="yes"/>
      <point x="89" y="288"/>
      <point x="104" y="249"/>
      <point x="143" y="249" type="curve" smooth="yes"/>
      <point x="175" y="249"/>
      <point x="189" y="277"/>
      <point x="189" y="312" type="curve" smooth="yes"/>
      <point x="189" y="348"/>
      <point x="173" y="388"/>
      <point x="135" y="388" type="curve" smooth="yes"/>
      <point x="119" y="388"/>
      <point x="103" y="381"/>
      <point x="93" y="367" type="curve"/>
    </contour>
    <contour>
      <point x="253" y="271"/>
      <point x="202" y="225"/>
      <point x="137" y="225" type="curve" smooth="yes"/>
      <point x="68" y="225"/>
      <point x="24" y="274"/>
      <point x="24" y="336" type="curve" smooth="yes"/>
      <point x="24" y="437"/>
      <point x="133" y="498"/>
      <point x="220" y="510" type="curve"/>
      <point x="225" y="492" type="line"/>
      <point x="174" y="481"/>
      <point x="121" y="444"/>
      <point x="102" y="397" type="curve"/>
      <point x="121" y="408"/>
      <point x="143" y="413"/>
      <point x="167" y="413" type="curve" smooth="yes"/>
      <point x="224" y="413"/>
      <point x="253" y="371"/>
      <point x="253" y="325" type="curve" smooth="yes"/>
    </contour>
  </outline>
</glyph>
<glyph name="ninesuperior" format="1">
  <advance width="270"/>
  <unicode hex="2079"/>
  <outline>
    <contour>
      <point x="180" y="379"/>
      <point x="181" y="392"/>
      <point x="181" y="405" type="curve" smooth="yes"/>
      <point x="181" y="446"/>
      <point x="166" y="486"/>
      <point x="127" y="486" type="curve" smooth="yes"/>
      <point x="96" y="486"/>
      <point x="81" y="457"/>
      <point x="81" y="423" type="curve" smooth="yes"/>
      <point x="81" y="386"/>
      <point x="97" y="346"/>
      <point x="135" y="346" type="curve" smooth="yes"/>
      <point x="152" y="346"/>
      <point x="167" y="354"/>
      <point x="177" y="368" type="curve"/>
    </contour>
    <contour>
      <point x="17" y="463"/>
      <point x="68" y="510"/>
      <point x="134" y="510" type="curve" smooth="yes"/>
      <point x="202" y="510"/>
      <point x="246" y="461"/>
      <point x="246" y="399" type="curve" smooth="yes"/>
      <point x="246" y="297"/>
      <point x="137" y="237"/>
      <point x="50" y="225" type="curve"/>
      <point x="46" y="242" type="line"/>
      <point x="96" y="254"/>
      <point x="149" y="291"/>
      <point x="168" y="338" type="curve"/>
      <point x="150" y="327"/>
      <point x="127" y="321"/>
      <point x="103" y="321" type="curve" smooth="yes"/>
      <point x="46" y="321"/>
      <point x="17" y="364"/>
      <point x="17" y="409" type="curve" smooth="yes"/>
    </contour>
  </outline>
</glyph>
<glyph name="trademark" format="1">
  <advance width="371"/>
  <unicode hex="2122"/>
  <outline>
    <contour>
      <point x="127" y="518"/>
      <point x="113" y="515"/>
      <point x="104" y="515" type="curve"/>
      <point x="47" y="515" type="line"/>
      <point x="18" y="515"/>
      <point x="4" y="493"/>
      <point x="-6" y="477" type="curve"/>
      <point x="0" y="470" type="line"/>
      <point x="9" y="481"/>
      <point x="20" y="487"/>
      <point x="30" y="487" type="curve"/>
      <point x="65" y="487" type="line"/>
      <point x="53" y="476"/>
      <point x="38" y="461"/>
      <point x="38" y="446" type="curve"/>
      <point x="38" y="352" type="line"/>
      <point x="38" y="343"/>
      <point x="37" y="332"/>
      <point x="32" y="325" type="curve"/>
      <point x="39" y="318" type="line"/>
      <point x="66" y="333"/>
      <point x="80" y="352"/>
      <point x="80" y="375" type="curve"/>
      <point x="80" y="462" type="line"/>
      <point x="80" y="472"/>
      <point x="83" y="482"/>
      <point x="90" y="487" type="curve"/>
      <point x="112" y="487"/>
      <point x="132" y="501"/>
      <point x="142" y="518" type="curve"/>
      <point x="136" y="526" type="line"/>
    </contour>
    <contour>
      <point x="150" y="510" type="line"/>
      <point x="150" y="318" type="line"/>
      <point x="192" y="331" type="line"/>
      <point x="192" y="435" type="line" smooth="yes"/>
      <point x="192" y="451"/>
      <point x="203" y="501"/>
      <point x="219" y="501" type="curve" smooth="yes"/>
      <point x="228" y="501"/>
      <point x="231" y="491"/>
      <point x="231" y="477" type="curve"/>
      <point x="231" y="318" type="line"/>
      <point x="273" y="331" type="line"/>
      <point x="273" y="435" type="line" smooth="yes"/>
      <point x="273" y="451"/>
      <point x="284" y="501"/>
      <point x="300" y="501" type="curve" smooth="yes"/>
      <point x="309" y="501"/>
      <point x="311" y="491"/>
      <point x="311" y="477" type="curve"/>
      <point x="311" y="360" type="line" smooth="yes"/>
      <point x="311" y="333"/>
      <point x="323" y="321"/>
      <point x="343" y="321" type="curve" smooth="yes"/>
      <point x="365" y="321"/>
      <point x="375" y="330"/>
      <point x="384" y="342" type="curve"/>
      <point x="376" y="349" type="line"/>
      <point x="372" y="344"/>
      <point x="366" y="340"/>
      <point x="361" y="340" type="curve" smooth="yes"/>
      <point x="355" y="340"/>
      <point x="354" y="345"/>
      <point x="354" y="350" type="curve" smooth="yes"/>
      <point x="354" y="481" type="line"/>
      <point x="354" y="502"/>
      <point x="342" y="520"/>
      <point x="317" y="520" type="curve" smooth="yes"/>
      <point x="299" y="520"/>
      <point x="280" y="509"/>
      <point x="272" y="476" type="curve"/>
      <point x="272" y="503"/>
      <point x="261" y="520"/>
      <point x="236" y="520" type="curve" smooth="yes"/>
      <point x="217" y="520"/>
      <point x="199" y="507"/>
      <point x="192" y="478" type="curve"/>
      <point x="192" y="523" type="line"/>
    </contour>
  </outline>
</glyph>
<glyph name="partialdiff" format="1">
  <advance width="348"/>
  <unicode hex="2202"/>
  <outline>
    <contour>
      <point x="316" y="72"/>
      <point x="249" y="-7"/>
      <point x="166" y="-7" type="curve" smooth="yes"/>
      <point x="78" y="-7"/>
      <point x="27" y="62"/>
      <point x="27" y="145" type="curve" smooth="yes"/>
      <point x="27" y="211"/>
      <point x="79" y="276"/>
      <point x="150" y="286" type="curve"/>
      <point x="172" y="273"/>
      <point x="195" y="254"/>
      <point x="211" y="234" type="curve"/>
      <point x="139" y="233"/>
      <point x="93" y="165"/>
      <point x="93" y="110" type="curve" smooth="yes"/>
      <point x="93" y="66"/>
      <point x="112" y="30"/>
      <point x="154" y="30" type="curve" smooth="yes"/>
      <point x="201" y="30"/>
      <point x="232" y="89"/>
      <point x="232" y="166" type="curve" smooth="yes"/>
      <point x="232" y="324"/>
      <point x="131" y="429"/>
      <point x="53" y="476" type="curve"/>
      <point x="65" y="490" type="line"/>
      <point x="174" y="450"/>
      <point x="316" y="349"/>
      <point x="316" y="157" type="curve" smooth="yes"/>
    </contour>
  </outline>
</glyph>
<glyph name="increment" format="1">
  <advance width="542"/>
  <unicode hex="2206"/>
  <outline>
    <contour>
      <point x="40" y="8" type="line"/>
      <point x="44" y="0" type="line"/>
      <point x="496" y="0" type="line"/>
      <point x="501" y="9" type="line"/>
      <point x="282" y="526" type="line"/>
      <point x="242" y="526" type="line"/>
    </contour>
    <contour>
      <point x="94" y="35" type="line"/>
      <point x="233" y="408" type="line"/>
      <point x="384" y="35" type="line"/>
    </contour>
  </outline>
</glyph>
<glyph name="summation" format="1">
  <advance width="354"/>
  <unicode hex="2211"/>
  <outline>
    <contour>
      <point x="326" y="0" type="line"/>
      <point x="26" y="0" type="line"/>
      <point x="26" y="31" type="line"/>
      <point x="165" y="256" type="line"/>
      <point x="26" y="485" type="line"/>
      <point x="26" y="516" type="line"/>
      <point x="326" y="516" type="line"/>
      <point x="326" y="482" type="line"/>
      <point x="130" y="482" type="line"/>
      <point x="268" y="257" type="line"/>
      <point x="130" y="34" type="line"/>
      <point x="326" y="34" type="line"/>
    </contour>
  </outline>
</glyph>
<glyph name="radical" format="1">
  <advance width="461"/>
  <unicode hex="221A"/>
  <outline>
    <contour>
      <point x="418" y="679" type="line"/>
      <point x="231" y="-10" type="line"/>
      <point x="268" y="-10" type="line"/>
      <point x="136" y="316" type="line"/>
      <point x="44" y="284" type="line"/>
      <point x="208" y="-100" type="line"/>
      <point x="248" y="-100" type="line"/>
      <point x="461" y="679" type="line"/>
    </contour>
  </outline>
</glyph>
